FasterOne-Regular.otf.ufo
<glyph name="exclam" format="1">
  <advance width="534"/>
  <unicode hex="0021"/>
  <outline>
    <contour>
      <point x="237" y="196" type="line" name="hr00"/>
      <point x="242" y="241" type="line"/>
      <point x="-186" y="241" type="line"/>
    </contour>
    <contour>
      <point x="247" y="292" type="line"/>
      <point x="252" y="337" type="line"/>
      <point x="-169" y="337" type="line"/>
    </contour>
    <contour>
      <point x="258" y="388" type="line"/>
      <point x="263" y="433" type="line"/>
      <point x="-152" y="433" type="line"/>
    </contour>
    <contour>
      <point x="268" y="484" type="line"/>
      <point x="273" y="529" type="line"/>
      <point x="-135" y="529" type="line"/>
    </contour>
    <contour>
      <point x="188" y="44" type="curve"/>
      <point x="188" y="48" type="line"/>
      <point x="-220" y="48" type="line"/>
      <point x="196" y="3" type="line"/>
      <point x="191" y="14"/>
      <point x="188" y="28"/>
    </contour>
    <contour>
      <point x="223" y="145" type="curve"/>
      <point x="-203" y="145" type="line"/>
      <point x="197" y="102" type="line"/>
      <point x="203" y="120"/>
      <point x="212" y="134"/>
    </contour>
    <contour>
      <point x="425" y="170" type="line"/>
      <point x="530" y="598" type="line" smooth="yes"/>
      <point x="531" y="600" smooth="yes"/>
      <point x="531" y="603" smooth="yes"/>
      <point x="531" y="605" type="curve" smooth="yes"/>
      <point x="531" y="617" smooth="yes"/>
      <point x="522" y="625" smooth="yes"/>
      <point x="500" y="625" type="curve" smooth="yes"/>
      <point x="352" y="625" type="line" smooth="yes"/>
      <point x="324" y="625" smooth="yes"/>
      <point x="313" y="613" smooth="yes"/>
      <point x="311" y="598" type="curve" smooth="yes"/>
      <point x="264" y="170" type="line"/>
    </contour>
    <contour>
      <point x="218" y="44" type="curve" smooth="yes"/>
      <point x="218" y="8" smooth="yes"/>
      <point x="241" y="-7" smooth="yes"/>
      <point x="314" y="-7" type="curve" smooth="yes"/>
      <point x="407" y="-7" smooth="yes"/>
      <point x="436" y="22" smooth="yes"/>
      <point x="436" y="96" type="curve" smooth="yes"/>
      <point x="436" y="132" smooth="yes"/>
      <point x="413" y="149" smooth="yes"/>
      <point x="342" y="149" type="curve" smooth="yes"/>
      <point x="262" y="149" smooth="yes"/>
      <point x="218" y="122" smooth="yes"/>
    </contour>
  </outline>
</glyph>
<glyph name="quotedbl" format="1">
  <advance width="665"/>
  <unicode hex="0022"/>
  <outline>
    <contour>
      <point x="574" y="275" type="line" name="hr00"/>
      <point x="659" y="510" smooth="yes"/>
      <point x="667" y="528" smooth="yes"/>
      <point x="669" y="540" type="curve" smooth="yes"/>
      <point x="679" y="598" type="line" smooth="yes"/>
      <point x="679" y="600" smooth="yes"/>
      <point x="680" y="602" smooth="yes"/>
      <point x="680" y="604" type="curve" smooth="yes"/>
      <point x="680" y="616" smooth="yes"/>
      <point x="672" y="625" smooth="yes"/>
      <point x="649" y="625" type="curve" smooth="yes"/>
      <point x="529" y="625" type="line" smooth="yes"/>
      <point x="501" y="625" smooth="yes"/>
      <point x="491" y="613" smooth="yes"/>
      <point x="489" y="598" type="curve" smooth="yes"/>
      <point x="482" y="559" smooth="yes"/>
      <point x="479" y="533" smooth="yes"/>
      <point x="479" y="506" type="curve" smooth="yes"/>
      <point x="479" y="275" type="line"/>
    </contour>
    <contour>
      <point x="211" y="292" type="line"/>
      <point x="211" y="337" type="line"/>
      <point x="-100" y="337" type="line"/>
    </contour>
    <contour>
      <point x="211" y="388" type="line"/>
      <point x="211" y="433" type="line"/>
      <point x="-83" y="433" type="line"/>
    </contour>
    <contour>
      <point x="211" y="484" type="line"/>
      <point x="211" y="529" type="line"/>
      <point x="-66" y="529" type="line"/>
    </contour>
    <contour>
      <point x="336" y="275" type="line"/>
      <point x="421" y="510" smooth="yes"/>
      <point x="429" y="528" smooth="yes"/>
      <point x="431" y="540" type="curve" smooth="yes"/>
      <point x="441" y="598" type="line" smooth="yes"/>
      <point x="441" y="600" smooth="yes"/>
      <point x="442" y="602" smooth="yes"/>
      <point x="442" y="604" type="curve" smooth="yes"/>
      <point x="442" y="616" smooth="yes"/>
      <point x="434" y="625" smooth="yes"/>
      <point x="411" y="625" type="curve" smooth="yes"/>
      <point x="291" y="625" type="line" smooth="yes"/>
      <point x="263" y="625" smooth="yes"/>
      <point x="253" y="613" smooth="yes"/>
      <point x="251" y="598" type="curve" smooth="yes"/>
      <point x="244" y="559" smooth="yes"/>
      <point x="241" y="533" smooth="yes"/>
      <point x="241" y="506" type="curve" smooth="yes"/>
      <point x="241" y="275" type="line"/>
    </contour>
  </outline>
</glyph>
<glyph name="numbersign" format="1">
  <advance width="746"/>
  <unicode hex="0023"/>
  <outline>
    <contour>
      <point x="425" y="665" type="line" name="hr00"/>
      <point x="374" y="665" type="line" smooth="yes"/>
      <point x="346" y="665"/>
      <point x="340" y="656"/>
      <point x="331" y="640" type="curve"/>
      <point x="265" y="474" type="line"/>
      <point x="155" y="474" type="line"/>
      <point x="137" y="471" smooth="yes"/>
      <point x="126" y="469" smooth="yes"/>
      <point x="116" y="443" type="curve" smooth="yes"/>
      <point x="97" y="395" type="line"/>
      <point x="234" y="395" type="line"/>
      <point x="168" y="228" type="line"/>
      <point x="58" y="228" type="line"/>
      <point x="40" y="226" smooth="yes"/>
      <point x="29" y="223" smooth="yes"/>
      <point x="19" y="197" type="curve" smooth="yes"/>
      <point x="0" y="150" type="line"/>
      <point x="137" y="150" type="line"/>
      <point x="62" y="-40" type="line"/>
      <point x="113" y="-40" type="line" smooth="yes"/>
      <point x="141" y="-40"/>
      <point x="147" y="-31"/>
      <point x="156" y="-15" type="curve"/>
      <point x="221" y="150" type="line"/>
      <point x="401" y="150" type="line"/>
      <point x="326" y="-40" type="line"/>
      <point x="377" y="-40" type="line" smooth="yes"/>
      <point x="405" y="-40"/>
      <point x="411" y="-31"/>
      <point x="420" y="-15" type="curve"/>
      <point x="485" y="150" type="line"/>
      <point x="592" y="150" type="line"/>
      <point x="610" y="152" smooth="yes"/>
      <point x="620" y="155" smooth="yes"/>
      <point x="631" y="181" type="curve" smooth="yes"/>
      <point x="649" y="228" type="line"/>
      <point x="516" y="228" type="line"/>
      <point x="582" y="395" type="line"/>
      <point x="689" y="395" type="line"/>
      <point x="707" y="398" smooth="yes"/>
      <point x="718" y="400" smooth="yes"/>
      <point x="728" y="426" type="curve" smooth="yes"/>
      <point x="746" y="474" type="line"/>
      <point x="613" y="474" type="line"/>
      <point x="689" y="665" type="line"/>
      <point x="638" y="665" type="line" smooth="yes"/>
      <point x="610" y="665"/>
      <point x="604" y="656"/>
      <point x="595" y="640" type="curve"/>
      <point x="529" y="474" type="line"/>
      <point x="349" y="474" type="line"/>
    </contour>
    <contour>
      <point x="318" y="395" type="line"/>
      <point x="498" y="395" type="line"/>
      <point x="432" y="228" type="line"/>
      <point x="252" y="228" type="line"/>
    </contour>
  </outline>
</glyph>
<glyph name="dollar" format="1">
  <advance width="770"/>
  <unicode hex="0024"/>
  <outline>
    <contour>
      <point x="519" y="718" type="line"/>
      <point x="501" y="635" type="line"/>
      <point x="355" y="611" smooth="yes"/>
      <point x="295" y="489" smooth="yes"/>
      <point x="295" y="357" type="curve" smooth="yes"/>
      <point x="295" y="282" smooth="yes"/>
      <point x="329" y="230" smooth="yes"/>
      <point x="451" y="215" type="curve" smooth="yes"/>
      <point x="509" y="208" type="line"/>
      <point x="502" y="166" type="line"/>
      <point x="477" y="163" smooth="yes"/>
      <point x="455" y="162" smooth="yes"/>
      <point x="433" y="162" type="curve" smooth="yes"/>
      <point x="379" y="162"/>
      <point x="319" y="170"/>
      <point x="272" y="184" type="curve"/>
      <point x="216" y="25" type="line"/>
      <point x="262" y="12"/>
      <point x="313" y="5"/>
      <point x="365" y="1" type="curve"/>
      <point x="343" y="-100" type="line"/>
      <point x="466" y="-100" type="line"/>
      <point x="487" y="1" type="line"/>
      <point x="643" y="6" smooth="yes"/>
      <point x="712" y="140" smooth="yes"/>
      <point x="712" y="270" type="curve" smooth="yes"/>
      <point x="712" y="344" smooth="yes"/>
      <point x="673" y="392" smooth="yes"/>
      <point x="548" y="407" type="curve" smooth="yes"/>
      <point x="489" y="414" type="line"/>
      <point x="497" y="453" smooth="yes"/>
      <point x="509" y="467" smooth="yes"/>
      <point x="555" y="467" type="curve" smooth="yes"/>
      <point x="698" y="467" type="line"/>
      <point x="753" y="622" type="line"/>
      <point x="716" y="629"/>
      <point x="665" y="635"/>
      <point x="623" y="638" type="curve"/>
      <point x="639" y="718" type="line"/>
    </contour>
    <contour>
      <point x="266" y="388" type="line"/>
      <point x="267" y="401"/>
      <point x="268" y="411"/>
      <point x="270" y="421" type="curve"/>
      <point x="270" y="425"/>
      <point x="271" y="429"/>
      <point x="272" y="433" type="curve"/>
      <point x="-159" y="433" type="line"/>
    </contour>
    <contour>
      <point x="303" y="529" type="line"/>
      <point x="-130" y="529" type="line"/>
      <point x="285" y="485" type="line"/>
    </contour>
    <contour>
      <point x="266" y="337" type="curve"/>
      <point x="-149" y="337" type="line"/>
      <point x="274" y="292" type="line"/>
      <point x="269" y="306"/>
      <point x="267" y="320"/>
    </contour>
    <contour>
      <point x="396" y="196" type="line"/>
      <point x="352" y="205"/>
      <point x="327" y="220"/>
      <point x="305" y="241" type="curve"/>
      <point x="-126" y="241" type="line"/>
    </contour>
    <contour>
      <point x="391" y="625" type="curve" name="hr01"/>
      <point x="-44" y="625" type="line"/>
      <point x="342" y="584" type="line"/>
      <point x="355" y="600"/>
      <point x="374" y="614"/>
    </contour>
    <contour>
      <point x="-148" y="145" type="line"/>
      <point x="211" y="101" type="line"/>
      <point x="226" y="145" type="line"/>
    </contour>
    <contour>
      <point x="-166" y="48" type="line"/>
      <point x="178" y="4" type="line"/>
      <point x="193" y="48" type="line"/>
    </contour>
  </outline>
</glyph>
<glyph name="percent" format="1">
  <advance width="971"/>
  <unicode hex="0025"/>
  <outline>
    <contour>
      <point x="670" y="665" type="line"/>
      <point x="619" y="665" type="line" smooth="yes"/>
      <point x="591" y="665"/>
      <point x="585" y="656"/>
      <point x="576" y="640" type="curve"/>
      <point x="307" y="-40" type="line"/>
      <point x="358" y="-40" type="line" smooth="yes"/>
      <point x="386" y="-40"/>
      <point x="392" y="-31"/>
      <point x="401" y="-15" type="curve"/>
    </contour>
    <contour>
      <point x="573" y="194" type="curve" smooth="yes"/>
      <point x="567" y="160" smooth="yes"/>
      <point x="563" y="130" smooth="yes"/>
      <point x="563" y="105" type="curve" smooth="yes"/>
      <point x="563" y="29" smooth="yes"/>
      <point x="596" y="-9" smooth="yes"/>
      <point x="701" y="-9" type="curve" smooth="yes"/>
      <point x="842" y="-9" smooth="yes"/>
      <point x="876" y="60" smooth="yes"/>
      <point x="900" y="194" type="curve" smooth="yes"/>
      <point x="906" y="229" smooth="yes"/>
      <point x="910" y="259" smooth="yes"/>
      <point x="910" y="285" type="curve" smooth="yes"/>
      <point x="910" y="360" smooth="yes"/>
      <point x="877" y="398" smooth="yes"/>
      <point x="773" y="398" type="curve" smooth="yes"/>
      <point x="633" y="398" smooth="yes"/>
      <point x="597" y="329" smooth="yes"/>
    </contour>
    <contour>
      <point x="718" y="274" type="line" smooth="yes"/>
      <point x="722" y="295" smooth="yes"/>
      <point x="742" y="297" smooth="yes"/>
      <point x="767" y="297" type="curve" smooth="yes"/>
      <point x="787" y="297" type="line"/>
      <point x="755" y="116" type="line" smooth="yes"/>
      <point x="751" y="94" smooth="yes"/>
      <point x="730" y="92" smooth="yes"/>
      <point x="704" y="92" type="curve" smooth="yes"/>
      <point x="686" y="92" type="line"/>
    </contour>
    <contour>
      <point x="71" y="421" type="curve" smooth="yes"/>
      <point x="65" y="387" smooth="yes"/>
      <point x="61" y="357" smooth="yes"/>
      <point x="61" y="332" type="curve" smooth="yes"/>
      <point x="61" y="256" smooth="yes"/>
      <point x="94" y="218" smooth="yes"/>
      <point x="199" y="218" type="curve" smooth="yes" name="hr01"/>
      <point x="340" y="218" smooth="yes"/>
      <point x="374" y="287" smooth="yes"/>
      <point x="398" y="421" type="curve" smooth="yes"/>
      <point x="404" y="456" smooth="yes"/>
      <point x="408" y="486" smooth="yes"/>
      <point x="408" y="512" type="curve" smooth="yes"/>
      <point x="408" y="587" smooth="yes"/>
      <point x="375" y="625" smooth="yes"/>
      <point x="271" y="625" type="curve" smooth="yes"/>
      <point x="131" y="625" smooth="yes"/>
      <point x="95" y="556" smooth="yes"/>
    </contour>
    <contour>
      <point x="216" y="501" type="line" smooth="yes"/>
      <point x="220" y="522" smooth="yes"/>
      <point x="240" y="524" smooth="yes"/>
      <point x="265" y="524" type="curve" smooth="yes"/>
      <point x="285" y="524" type="line"/>
      <point x="253" y="343" type="line" smooth="yes"/>
      <point x="249" y="321" smooth="yes"/>
      <point x="228" y="319" smooth="yes"/>
      <point x="202" y="319" type="curve" smooth="yes"/>
      <point x="184" y="319" type="line"/>
    </contour>
  </outline>
</glyph>
<glyph name="ampersand" format="1">
  <advance width="832"/>
  <unicode hex="0026"/>
  <outline>
    <contour>
      <point x="261" y="433" type="line"/>
      <point x="-171" y="433" type="line"/>
      <point x="252" y="388" type="line"/>
    </contour>
    <contour>
      <point x="191" y="241" type="line"/>
      <point x="-241" y="241" type="line"/>
      <point x="180" y="196" type="line"/>
      <point x="182" y="210" smooth="yes"/>
      <point x="186" y="223" smooth="yes"/>
      <point x="190" y="237" type="curve" smooth="yes"/>
    </contour>
    <contour>
      <point x="173" y="145" type="line"/>
      <point x="-250" y="145" type="line"/>
      <point x="173" y="100" type="line"/>
    </contour>
    <contour>
      <point x="-136" y="529" type="line"/>
      <point x="277" y="485" type="line"/>
      <point x="282" y="501"/>
      <point x="288" y="515"/>
      <point x="295" y="529" type="curve"/>
    </contour>
    <contour>
      <point x="246" y="337" type="curve"/>
      <point x="-186" y="337" type="line"/>
      <point x="215" y="294" type="line"/>
      <point x="223" y="309"/>
      <point x="234" y="324"/>
    </contour>
    <contour>
      <point x="183" y="48" type="curve" name="hr01"/>
      <point x="-215" y="48" type="line"/>
      <point x="208" y="3" type="line"/>
      <point x="198" y="15"/>
      <point x="189" y="30"/>
    </contour>
    <contour>
      <point x="376" y="625" type="curve"/>
      <point x="-54" y="625" type="line"/>
      <point x="329" y="584" type="line"/>
      <point x="344" y="601"/>
      <point x="359" y="614"/>
    </contour>
    <contour>
      <point x="531" y="-115" type="line"/>
      <point x="651" y="-100" type="line"/>
      <point x="711" y="242" type="line"/>
      <point x="777" y="242" type="line"/>
      <point x="823" y="382" type="line"/>
      <point x="475" y="382" type="line"/>
      <point x="481" y="420" type="line" smooth="yes"/>
      <point x="487" y="455" smooth="yes"/>
      <point x="507" y="462" smooth="yes"/>
      <point x="546" y="462" type="curve" smooth="yes"/>
      <point x="630" y="462" type="line"/>
      <point x="684" y="604" type="line"/>
      <point x="632" y="616" smooth="yes"/>
      <point x="577" y="625" smooth="yes"/>
      <point x="501" y="625" type="curve" smooth="yes"/>
      <point x="400" y="625"/>
      <point x="318" y="587"/>
      <point x="284" y="396" type="curve"/>
      <point x="360" y="367" type="line"/>
      <point x="360" y="363" type="line"/>
      <point x="237" y="345" smooth="yes"/>
      <point x="203" y="211" smooth="yes"/>
      <point x="203" y="119" type="curve" smooth="yes"/>
      <point x="203" y="18" smooth="yes"/>
      <point x="262" y="-15" smooth="yes"/>
      <point x="341" y="-15" type="curve" smooth="yes"/>
      <point x="399" y="-15"/>
      <point x="467" y="2"/>
      <point x="531" y="21" type="curve"/>
    </contour>
    <contour>
      <point x="461" y="143" type="curve" smooth="yes"/>
      <point x="428" y="143" smooth="yes"/>
      <point x="409" y="155" smooth="yes"/>
      <point x="409" y="180" type="curve" smooth="yes"/>
      <point x="409" y="195"/>
      <point x="415" y="224"/>
      <point x="420" y="242" type="curve"/>
      <point x="531" y="242" type="line"/>
      <point x="531" y="148" type="line"/>
      <point x="504" y="144" smooth="yes"/>
      <point x="482" y="143" smooth="yes"/>
    </contour>
  </outline>
</glyph>
<glyph name="parenleft" format="1">
  <advance width="558"/>
  <unicode hex="0028"/>
  <outline>
    <contour>
      <point x="222" y="292" type="line"/>
      <point x="224" y="301" smooth="yes"/>
      <point x="225" y="309" smooth="yes"/>
      <point x="226" y="317" type="curve" smooth="yes"/>
      <point x="227" y="323"/>
      <point x="228" y="330"/>
      <point x="230" y="337" type="curve"/>
      <point x="-202" y="337" type="line"/>
    </contour>
    <contour>
      <point x="255" y="433" type="line"/>
      <point x="-176" y="433" type="line"/>
      <point x="242" y="388" type="line"/>
    </contour>
    <contour>
      <point x="214" y="196" type="line"/>
      <point x="214" y="211"/>
      <point x="215" y="226"/>
      <point x="216" y="241" type="curve"/>
      <point x="-210" y="241" type="line"/>
    </contour>
    <contour>
      <point x="216" y="145" type="curve"/>
      <point x="-201" y="145" type="line"/>
      <point x="223" y="100" type="line"/>
      <point x="220" y="115"/>
      <point x="218" y="130"/>
    </contour>
    <contour>
      <point x="-132" y="529" type="line"/>
      <point x="276" y="485" type="line"/>
      <point x="283" y="500"/>
      <point x="290" y="514"/>
      <point x="299" y="529" type="curve"/>
    </contour>
    <contour>
      <point x="239" y="48" type="curve"/>
      <point x="-160" y="48" type="line"/>
      <point x="263" y="3" type="line"/>
      <point x="253" y="17"/>
      <point x="245" y="32"/>
    </contour>
    <contour>
      <point x="-56" y="625" type="line"/>
      <point x="336" y="583" type="line"/>
      <point x="347" y="598"/>
      <point x="361" y="612"/>
      <point x="375" y="625" type="curve"/>
    </contour>
    <contour>
      <point x="564" y="690" type="line"/>
      <point x="337" y="660" smooth="yes"/>
      <point x="277" y="428" smooth="yes"/>
      <point x="256" y="312" type="curve" smooth="yes"/>
      <point x="250" y="277" smooth="yes"/>
      <point x="244" y="233" smooth="yes"/>
      <point x="244" y="186" type="curve" smooth="yes"/>
      <point x="244" y="76"/>
      <point x="278" y="-45"/>
      <point x="431" y="-66" type="curve"/>
      <point x="466" y="81" type="line"/>
      <point x="444" y="92" smooth="yes"/>
      <point x="414" y="106" smooth="yes"/>
      <point x="414" y="192" type="curve" smooth="yes" name="hr01"/>
      <point x="414" y="222" smooth="yes"/>
      <point x="418" y="261" smooth="yes"/>
      <point x="427" y="312" type="curve" smooth="yes"/>
      <point x="460" y="501"/>
      <point x="512" y="528"/>
      <point x="548" y="543" type="curve"/>
    </contour>
  </outline>
</glyph>
<glyph name="parenright" format="1">
  <advance width="512"/>
  <unicode hex="0029"/>
  <outline>
    <contour>
      <point x="269" y="292" type="line"/>
      <point x="277" y="337" type="line"/>
      <point x="-155" y="337" type="line"/>
    </contour>
    <contour>
      <point x="144" y="3" type="line"/>
      <point x="149" y="48" type="line"/>
      <point x="-280" y="48" type="line"/>
    </contour>
    <contour>
      <point x="258" y="241" type="curve"/>
      <point x="-174" y="241" type="line"/>
      <point x="244" y="196" type="line"/>
      <point x="249" y="209"/>
      <point x="253" y="224"/>
    </contour>
    <contour>
      <point x="-176" y="625" type="line"/>
      <point x="244" y="580" type="line"/>
      <point x="255" y="625" type="line"/>
    </contour>
    <contour>
      <point x="285" y="420" type="curve" smooth="yes"/>
      <point x="285" y="424"/>
      <point x="285" y="429"/>
      <point x="284" y="433" type="curve"/>
      <point x="-140" y="433" type="line"/>
      <point x="283" y="388" type="line"/>
      <point x="284" y="400" smooth="yes"/>
      <point x="285" y="410" smooth="yes"/>
    </contour>
    <contour>
      <point x="219" y="145" type="curve"/>
      <point x="-212" y="145" type="line"/>
      <point x="178" y="103" type="line"/>
      <point x="191" y="111"/>
      <point x="205" y="123"/>
    </contour>
    <contour>
      <point x="269" y="484" type="line"/>
      <point x="261" y="495"/>
      <point x="245" y="511"/>
      <point x="228" y="516" type="curve"/>
      <point x="231" y="529" type="line"/>
      <point x="-155" y="529" type="line"/>
    </contour>
    <contour>
      <point x="263" y="533" type="line"/>
      <point x="286" y="522" smooth="yes"/>
      <point x="315" y="504" smooth="yes"/>
      <point x="315" y="420" type="curve" smooth="yes"/>
      <point x="315" y="390" smooth="yes"/>
      <point x="311" y="352" smooth="yes"/>
      <point x="302" y="302" type="curve" smooth="yes"/>
      <point x="268" y="107"/>
      <point x="218" y="86"/>
      <point x="182" y="71" type="curve"/>
      <point x="166" y="-76" type="line"/>
      <point x="393" y="-46" smooth="yes"/>
      <point x="453" y="186" smooth="yes"/>
      <point x="473" y="302" type="curve" smooth="yes"/>
      <point x="479" y="337" smooth="yes"/>
      <point x="486" y="382" smooth="yes"/>
      <point x="486" y="429" type="curve" smooth="yes" name="hr01"/>
      <point x="486" y="539"/>
      <point x="451" y="659"/>
      <point x="299" y="680" type="curve"/>
    </contour>
  </outline>
</glyph>
<glyph name="asterisk" format="1">
  <advance width="648"/>
  <unicode hex="002A"/>
  <outline>
    <contour>
      <point x="129" y="485" type="line" name="hr00"/>
      <point x="150" y="529" type="line"/>
      <point x="-180" y="529" type="line"/>
    </contour>
    <contour>
      <point x="162" y="337" type="line"/>
      <point x="-169" y="337" type="line"/>
      <point x="135" y="294" type="line"/>
      <point x="137" y="305" smooth="yes"/>
      <point x="145" y="314" smooth="yes"/>
      <point x="153" y="325" type="curve" smooth="yes"/>
    </contour>
    <contour>
      <point x="207" y="196" type="line"/>
      <point x="159" y="238"/>
      <point x="158" y="239"/>
      <point x="157" y="241" type="curve"/>
      <point x="-114" y="241" type="line"/>
    </contour>
    <contour>
      <point x="148" y="394" type="line" smooth="yes"/>
      <point x="128" y="401"/>
      <point x="117" y="412"/>
      <point x="115" y="433" type="curve"/>
      <point x="-157" y="433" type="line"/>
      <point x="162" y="388" type="line"/>
    </contour>
    <contour>
      <point x="469" y="580" type="line"/>
      <point x="479" y="640" smooth="yes"/>
      <point x="479" y="642" smooth="yes"/>
      <point x="479" y="644" type="curve" smooth="yes"/>
      <point x="479" y="659" smooth="yes"/>
      <point x="468" y="665" smooth="yes"/>
      <point x="449" y="665" type="curve" smooth="yes"/>
      <point x="377" y="665" type="line" smooth="yes"/>
      <point x="346" y="665" smooth="yes"/>
      <point x="338" y="653" smooth="yes"/>
      <point x="336" y="638" type="curve" smooth="yes"/>
      <point x="326" y="580" type="line"/>
      <point x="338" y="492" type="line"/>
      <point x="278" y="547" type="line"/>
      <point x="227" y="565" type="line" smooth="yes"/>
      <point x="223" y="566" smooth="yes"/>
      <point x="220" y="567" smooth="yes"/>
      <point x="217" y="567" type="curve" smooth="yes"/>
      <point x="203" y="567" smooth="yes"/>
      <point x="195" y="555" smooth="yes"/>
      <point x="187" y="538" type="curve" smooth="yes"/>
      <point x="153" y="466" type="line" smooth="yes"/>
      <point x="148" y="456" smooth="yes"/>
      <point x="145" y="448" smooth="yes"/>
      <point x="145" y="440" type="curve" smooth="yes"/>
      <point x="145" y="430" smooth="yes"/>
      <point x="150" y="425" smooth="yes"/>
      <point x="159" y="422" type="curve" smooth="yes"/>
      <point x="208" y="404" type="line"/>
      <point x="294" y="404" type="line"/>
      <point x="215" y="351" type="line"/>
      <point x="174" y="304" type="line" smooth="yes"/>
      <point x="168" y="298" smooth="yes"/>
      <point x="165" y="292" smooth="yes"/>
      <point x="165" y="286" type="curve" smooth="yes"/>
      <point x="165" y="278" smooth="yes"/>
      <point x="169" y="269" smooth="yes"/>
      <point x="180" y="260" type="curve" smooth="yes"/>
      <point x="231" y="216" type="line" smooth="yes"/>
      <point x="240" y="208" smooth="yes"/>
      <point x="248" y="205" smooth="yes"/>
      <point x="255" y="205" type="curve" smooth="yes"/>
      <point x="262" y="205" smooth="yes"/>
      <point x="269" y="209" smooth="yes"/>
      <point x="275" y="216" type="curve" smooth="yes"/>
      <point x="315" y="262" type="line"/>
      <point x="354" y="345" type="line"/>
      <point x="361" y="263" type="line"/>
      <point x="392" y="215" type="line" smooth="yes"/>
      <point x="397" y="207" smooth="yes"/>
      <point x="402" y="204" smooth="yes"/>
      <point x="410" y="204" type="curve" smooth="yes"/>
      <point x="417" y="204" smooth="yes"/>
      <point x="426" y="208" smooth="yes"/>
      <point x="437" y="216" type="curve" smooth="yes"/>
      <point x="501" y="260" type="line" smooth="yes"/>
      <point x="519" y="272" smooth="yes"/>
      <point x="525" y="282" smooth="yes"/>
      <point x="525" y="292" type="curve" smooth="yes"/>
      <point x="525" y="296" smooth="yes"/>
      <point x="525" y="300" smooth="yes"/>
      <point x="523" y="304" type="curve" smooth="yes"/>
      <point x="499" y="351" type="line"/>
      <point x="435" y="406" type="line"/>
      <point x="525" y="406" type="line"/>
      <point x="582" y="422" type="line" smooth="yes"/>
      <point x="598" y="426" smooth="yes"/>
      <point x="603" y="440" smooth="yes"/>
      <point x="603" y="453" type="curve" smooth="yes"/>
      <point x="603" y="458" smooth="yes"/>
      <point x="603" y="462" smooth="yes"/>
      <point x="602" y="467" type="curve" smooth="yes"/>
      <point x="592" y="538" type="line" smooth="yes"/>
      <point x="589" y="555" smooth="yes"/>
      <point x="582" y="565" smooth="yes"/>
      <point x="569" y="565" type="curve" smooth="yes"/>
      <point x="567" y="565" smooth="yes"/>
      <point x="564" y="565" smooth="yes"/>
      <point x="561" y="564" type="curve" smooth="yes"/>
      <point x="507" y="548" type="line"/>
      <point x="425" y="491" type="line"/>
    </contour>
  </outline>
</glyph>
<glyph name="plus" format="1">
  <advance width="600"/>
  <unicode hex="002B"/>
  <outline>
    <contour>
      <point x="71" y="240" type="line" name="hr00"/>
      <point x="219" y="240" type="line"/>
      <point x="191" y="84" type="line"/>
      <point x="327" y="84" type="line"/>
      <point x="355" y="240" type="line"/>
      <point x="504" y="240" type="line"/>
      <point x="529" y="384" type="line"/>
      <point x="380" y="384" type="line"/>
      <point x="408" y="539" type="line"/>
      <point x="272" y="539" type="line"/>
      <point x="244" y="384" type="line"/>
      <point x="96" y="384" type="line"/>
    </contour>
  </outline>
</glyph>
<glyph name="comma" format="1">
  <advance width="325"/>
  <unicode hex="002C"/>
  <outline>
    <contour>
      <point x="93" y="99" type="curve" smooth="yes" name="hr00"/>
      <point x="91" y="89" smooth="yes"/>
      <point x="90" y="80" smooth="yes"/>
      <point x="90" y="72" type="curve" smooth="yes"/>
      <point x="90" y="44"/>
      <point x="102" y="28"/>
      <point x="136" y="22" type="curve"/>
      <point x="80" y="-122" type="line"/>
      <point x="160" y="-151" type="line"/>
      <point x="248" y="-15" type="line" smooth="yes"/>
      <point x="281" y="36" smooth="yes"/>
      <point x="304" y="84" smooth="yes"/>
      <point x="304" y="141" type="curve" smooth="yes"/>
      <point x="304" y="187" smooth="yes"/>
      <point x="282" y="206" smooth="yes"/>
      <point x="216" y="206" type="curve" smooth="yes"/>
      <point x="131" y="206" smooth="yes"/>
      <point x="108" y="175" smooth="yes"/>
    </contour>
    <contour>
      <point x="-154" y="48" type="line"/>
      <point x="97" y="-1" type="line"/>
      <point x="75" y="8"/>
      <point x="64" y="32"/>
      <point x="59" y="48" type="curve"/>
    </contour>
    <contour>
      <point x="72" y="145" type="curve"/>
      <point x="-159" y="145" type="line"/>
      <point x="63" y="100" type="line"/>
      <point x="65" y="118"/>
      <point x="68" y="132"/>
    </contour>
  </outline>
</glyph>
<glyph name="hyphen" format="1">
  <advance width="350"/>
  <unicode hex="002D"/>
  <outline>
    <contour>
      <point x="324" y="196" type="line" name="hr00"/>
      <point x="332" y="241" type="line"/>
      <point x="0" y="241" type="line"/>
    </contour>
    <contour>
      <point x="341" y="292" type="line"/>
      <point x="349" y="337" type="line"/>
      <point x="17" y="337" type="line"/>
    </contour>
  </outline>
</glyph>
<glyph name="period" format="1">
  <advance width="325"/>
  <unicode hex="002E"/>
  <outline>
    <contour>
      <point x="72" y="145" type="curve"/>
      <point x="-159" y="145" type="line"/>
      <point x="63" y="100" type="line"/>
      <point x="65" y="118" smooth="yes"/>
      <point x="68" y="132" smooth="yes"/>
    </contour>
    <contour>
      <point x="70" y="3" type="line"/>
      <point x="63" y="15"/>
      <point x="60" y="30"/>
      <point x="59" y="48" type="curve"/>
      <point x="-154" y="48" type="line"/>
    </contour>
    <contour>
      <point x="93" y="99" type="curve" smooth="yes"/>
      <point x="90" y="83" smooth="yes"/>
      <point x="89" y="69" smooth="yes"/>
      <point x="89" y="57" type="curve" smooth="yes"/>
      <point x="89" y="12" smooth="yes"/>
      <point x="111" y="-6" smooth="yes"/>
      <point x="178" y="-6" type="curve" smooth="yes"/>
      <point x="262" y="-6" smooth="yes"/>
      <point x="287" y="23" smooth="yes"/>
      <point x="300" y="99" type="curve" smooth="yes"/>
      <point x="303" y="115" smooth="yes"/>
      <point x="304" y="129" smooth="yes"/>
      <point x="304" y="141" type="curve" smooth="yes"/>
      <point x="304" y="187" smooth="yes"/>
      <point x="282" y="206" smooth="yes"/>
      <point x="216" y="206" type="curve" smooth="yes" name="hr01"/>
      <point x="131" y="206" smooth="yes"/>
      <point x="106" y="175" smooth="yes"/>
    </contour>
  </outline>
</glyph>
<glyph name="slash" format="1">
  <advance width="651"/>
  <unicode hex="002F"/>
  <outline>
    <contour>
      <point x="651" y="665" type="line" name="hr00"/>
      <point x="580" y="665" type="line" smooth="yes"/>
      <point x="552" y="665" smooth="yes"/>
      <point x="546" y="656" smooth="yes"/>
      <point x="537" y="640" type="curve" smooth="yes"/>
      <point x="148" y="-40" type="line"/>
      <point x="219" y="-40" type="line" smooth="yes"/>
      <point x="247" y="-40" smooth="yes"/>
      <point x="253" y="-31" smooth="yes"/>
      <point x="262" y="-15" type="curve" smooth="yes"/>
    </contour>
    <contour>
      <point x="141" y="3" type="line"/>
      <point x="165" y="48" type="line"/>
      <point x="-150" y="48" type="line"/>
    </contour>
    <contour>
      <point x="251" y="196" type="line"/>
      <point x="275" y="241" type="line"/>
      <point x="-40" y="241" type="line"/>
    </contour>
    <contour>
      <point x="306" y="292" type="line"/>
      <point x="330" y="337" type="line"/>
      <point x="15" y="337" type="line"/>
    </contour>
    <contour>
      <point x="361" y="388" type="line"/>
      <point x="385" y="433" type="line"/>
      <point x="70" y="433" type="line"/>
    </contour>
    <contour>
      <point x="416" y="484" type="line"/>
      <point x="439" y="529" type="line"/>
      <point x="125" y="529" type="line"/>
    </contour>
    <contour>
      <point x="196" y="100" type="line"/>
      <point x="220" y="145" type="line"/>
      <point x="-95" y="145" type="line"/>
    </contour>
    <contour>
      <point x="470" y="580" type="line"/>
      <point x="493" y="625" type="line"/>
      <point x="179" y="625" type="line"/>
    </contour>
  </outline>
</glyph>
<glyph name="zero" format="1">
  <advance width="773"/>
  <unicode hex="0030"/>
  <outline>
    <contour>
      <point x="184" y="292" type="line"/>
      <point x="192" y="337" type="line"/>
      <point x="-240" y="337" type="line"/>
    </contour>
    <contour>
      <point x="174" y="196" type="line"/>
      <point x="175" y="212"/>
      <point x="176" y="226"/>
      <point x="178" y="241" type="curve"/>
      <point x="-250" y="241" type="line"/>
    </contour>
    <contour>
      <point x="215" y="433" type="line"/>
      <point x="-217" y="433" type="line"/>
      <point x="203" y="388" type="line"/>
    </contour>
    <contour>
      <point x="174" y="145" type="curve"/>
      <point x="-243" y="145" type="line"/>
      <point x="180" y="100" type="line"/>
      <point x="177" y="114"/>
      <point x="175" y="129"/>
    </contour>
    <contour>
      <point x="252" y="529" type="curve"/>
      <point x="-178" y="529" type="line"/>
      <point x="232" y="485" type="line"/>
      <point x="238" y="501"/>
      <point x="245" y="515"/>
    </contour>
    <contour>
      <point x="339" y="625" type="curve"/>
      <point x="-91" y="625" type="line"/>
      <point x="291" y="584" type="line"/>
      <point x="305" y="600"/>
      <point x="321" y="613"/>
    </contour>
    <contour>
      <point x="234" y="3" type="line"/>
      <point x="219" y="15"/>
      <point x="207" y="30"/>
      <point x="198" y="48" type="curve" name="hr01"/>
      <point x="-190" y="48" type="line"/>
    </contour>
    <contour>
      <point x="219" y="312" type="curve" smooth="yes"/>
      <point x="209" y="259" smooth="yes"/>
      <point x="204" y="212" smooth="yes"/>
      <point x="204" y="171" type="curve" smooth="yes"/>
      <point x="204" y="48" smooth="yes"/>
      <point x="257" y="-15" smooth="yes"/>
      <point x="416" y="-15" type="curve" smooth="yes"/>
      <point x="627" y="-15" smooth="yes"/>
      <point x="689" y="96" smooth="yes"/>
      <point x="728" y="312" type="curve" smooth="yes"/>
      <point x="737" y="365" smooth="yes"/>
      <point x="743" y="412" smooth="yes"/>
      <point x="743" y="453" type="curve" smooth="yes"/>
      <point x="743" y="577" smooth="yes"/>
      <point x="690" y="640" smooth="yes"/>
      <point x="531" y="640" type="curve" smooth="yes"/>
      <point x="320" y="640" smooth="yes"/>
      <point x="257" y="529" smooth="yes"/>
    </contour>
    <contour>
      <point x="435" y="426" type="line" smooth="yes"/>
      <point x="444" y="475" smooth="yes"/>
      <point x="464" y="479" smooth="yes"/>
      <point x="516" y="479" type="curve" smooth="yes"/>
      <point x="561" y="479" type="line"/>
      <point x="512" y="199" type="line" smooth="yes"/>
      <point x="503" y="150" smooth="yes"/>
      <point x="476" y="146" smooth="yes"/>
      <point x="425" y="146" type="curve" smooth="yes"/>
      <point x="385" y="146" type="line"/>
    </contour>
  </outline>
</glyph>
<glyph name="one" format="1">
  <advance width="709"/>
  <unicode hex="0031"/>
  <outline>
    <contour>
      <point x="504" y="0" type="line" name="hr00"/>
      <point x="613" y="625" type="line"/>
      <point x="463" y="625" type="line"/>
      <point x="236" y="573" type="line"/>
      <point x="211" y="425" type="line"/>
      <point x="378" y="425" type="line"/>
      <point x="304" y="0" type="line"/>
    </contour>
    <contour>
      <point x="273" y="3" type="line"/>
      <point x="281" y="48" type="line"/>
      <point x="-151" y="48" type="line"/>
    </contour>
    <contour>
      <point x="307" y="196" type="line"/>
      <point x="315" y="241" type="line"/>
      <point x="-117" y="241" type="line"/>
    </contour>
    <contour>
      <point x="324" y="292" type="line"/>
      <point x="332" y="337" type="line"/>
      <point x="-100" y="337" type="line"/>
    </contour>
    <contour>
      <point x="174" y="388" type="line"/>
      <point x="182" y="433" type="line"/>
      <point x="-250" y="433" type="line"/>
    </contour>
    <contour>
      <point x="190" y="484" type="line"/>
      <point x="197" y="529" type="line"/>
      <point x="-234" y="529" type="line"/>
    </contour>
    <contour>
      <point x="290" y="100" type="line"/>
      <point x="298" y="145" type="line"/>
      <point x="-134" y="145" type="line"/>
    </contour>
    <contour>
      <point x="207" y="589" type="line"/>
      <point x="209" y="598" type="line"/>
      <point x="327" y="625" type="line"/>
      <point x="-105" y="625" type="line"/>
    </contour>
  </outline>
</glyph>
<glyph name="two" format="1">
  <advance width="808"/>
  <unicode hex="0032"/>
  <outline>
    <contour>
      <point x="322" y="475" type="line"/>
      <point x="579" y="475" type="line"/>
      <point x="570" y="416" type="line"/>
      <point x="377" y="328" smooth="yes"/>
      <point x="257" y="300" smooth="yes"/>
      <point x="226" y="125" type="curve" smooth="yes"/>
      <point x="204" y="0" type="line"/>
      <point x="692" y="0" type="line"/>
      <point x="720" y="160" type="line"/>
      <point x="452" y="160" type="line"/>
      <point x="457" y="188" type="line"/>
      <point x="644" y="252" smooth="yes"/>
      <point x="784" y="296" smooth="yes"/>
      <point x="784" y="500" type="curve" smooth="yes"/>
      <point x="784" y="627" smooth="yes"/>
      <point x="689" y="640" smooth="yes"/>
      <point x="568" y="640" type="curve" smooth="yes"/>
      <point x="489" y="640"/>
      <point x="398" y="625"/>
      <point x="322" y="602" type="curve"/>
    </contour>
    <contour>
      <point x="174" y="3" type="line"/>
      <point x="182" y="48" type="line"/>
      <point x="-250" y="48" type="line"/>
    </contour>
    <contour>
      <point x="191" y="100" type="line"/>
      <point x="199" y="145" type="line"/>
      <point x="-233" y="145" type="line"/>
    </contour>
    <contour>
      <point x="292" y="484" type="line"/>
      <point x="292" y="529" type="line"/>
      <point x="-132" y="529" type="line"/>
    </contour>
    <contour>
      <point x="293" y="580" type="line"/>
      <point x="293" y="625" type="line" name="hr01"/>
      <point x="-130" y="625" type="line"/>
    </contour>
    <contour>
      <point x="235" y="241" type="line"/>
      <point x="-197" y="241" type="line"/>
      <point x="214" y="197" type="line"/>
      <point x="220" y="213"/>
      <point x="227" y="227"/>
      <point x="235" y="240" type="curve"/>
    </contour>
    <contour>
      <point x="333" y="337" type="curve"/>
      <point x="-97" y="337" type="line"/>
      <point x="280" y="297" type="line"/>
      <point x="296" y="311"/>
      <point x="314" y="325"/>
    </contour>
    <contour>
      <point x="537" y="433" type="line"/>
      <point x="99" y="433" type="line"/>
      <point x="449" y="396" type="line"/>
    </contour>
  </outline>
</glyph>
<glyph name="three" format="1">
  <advance width="795"/>
  <unicode hex="0033"/>
  <outline>
    <contour>
      <point x="344" y="292" type="line"/>
      <point x="352" y="337" type="line"/>
      <point x="-79" y="337" type="line"/>
    </contour>
    <contour>
      <point x="214" y="145" type="line"/>
      <point x="-218" y="145" type="line"/>
      <point x="200" y="100" type="line"/>
    </contour>
    <contour>
      <point x="182" y="48" type="line"/>
      <point x="-250" y="48" type="line"/>
      <point x="168" y="3" type="line"/>
    </contour>
    <contour>
      <point x="287" y="484" type="line"/>
      <point x="287" y="529" type="line"/>
      <point x="-137" y="529" type="line"/>
    </contour>
    <contour>
      <point x="328" y="196" type="line"/>
      <point x="336" y="241" type="line"/>
      <point x="-96" y="241" type="line"/>
    </contour>
    <contour>
      <point x="288" y="580" type="line"/>
      <point x="288" y="625" type="line"/>
      <point x="-135" y="625" type="line"/>
    </contour>
    <contour>
      <point x="-63" y="433" type="line"/>
      <point x="360" y="388" type="line"/>
      <point x="369" y="433" type="line"/>
    </contour>
    <contour>
      <point x="559" y="405" type="line"/>
      <point x="391" y="385" type="line"/>
      <point x="366" y="240" type="line"/>
      <point x="527" y="223" type="line"/>
      <point x="516" y="159" type="line"/>
      <point x="485" y="155" smooth="yes"/>
      <point x="455" y="153" smooth="yes"/>
      <point x="425" y="153" type="curve" smooth="yes"/>
      <point x="363" y="153"/>
      <point x="314" y="161"/>
      <point x="258" y="176" type="curve"/>
      <point x="202" y="11" type="line"/>
      <point x="272" y="-7" smooth="yes"/>
      <point x="338" y="-15" smooth="yes"/>
      <point x="417" y="-15" type="curve" smooth="yes"/>
      <point x="585" y="-15" smooth="yes"/>
      <point x="727" y="33" smooth="yes"/>
      <point x="727" y="219" type="curve" smooth="yes"/>
      <point x="727" y="270"/>
      <point x="705" y="308"/>
      <point x="656" y="332" type="curve"/>
      <point x="657" y="337" type="line"/>
      <point x="720" y="369" smooth="yes"/>
      <point x="765" y="431" smooth="yes"/>
      <point x="765" y="522" type="curve" smooth="yes"/>
      <point x="765" y="627" smooth="yes"/>
      <point x="671" y="640" smooth="yes"/>
      <point x="548" y="640" type="curve" smooth="yes" name="hr01"/>
      <point x="469" y="640"/>
      <point x="395" y="626"/>
      <point x="318" y="602" type="curve"/>
      <point x="318" y="475" type="line"/>
      <point x="570" y="475" type="line"/>
    </contour>
  </outline>
</glyph>
<glyph name="four" format="1">
  <advance width="812"/>
  <unicode hex="0034"/>
  <outline>
    <contour>
      <point x="451" y="3" type="line" name="hr00"/>
      <point x="459" y="48" type="line"/>
      <point x="27" y="48" type="line"/>
    </contour>
    <contour>
      <point x="174" y="100" type="line"/>
      <point x="182" y="145" type="line"/>
      <point x="-250" y="145" type="line"/>
    </contour>
    <contour>
      <point x="-230" y="241" type="line"/>
      <point x="191" y="196" type="line"/>
      <point x="197" y="232" type="line"/>
      <point x="202" y="241" type="line"/>
    </contour>
    <contour>
      <point x="230" y="293" type="line"/>
      <point x="254" y="337" type="line"/>
      <point x="-177" y="337" type="line"/>
    </contour>
    <contour>
      <point x="387" y="581" type="line"/>
      <point x="410" y="625" type="line"/>
      <point x="-20" y="625" type="line"/>
    </contour>
    <contour>
      <point x="282" y="390" type="line"/>
      <point x="306" y="433" type="line"/>
      <point x="-124" y="433" type="line"/>
    </contour>
    <contour>
      <point x="335" y="486" type="line"/>
      <point x="358" y="529" type="line"/>
      <point x="-71" y="529" type="line"/>
    </contour>
    <contour>
      <point x="481" y="0" type="line"/>
      <point x="671" y="0" type="line"/>
      <point x="688" y="100" type="line"/>
      <point x="750" y="100" type="line"/>
      <point x="780" y="272" type="line"/>
      <point x="718" y="272" type="line"/>
      <point x="781" y="625" type="line"/>
      <point x="444" y="625" type="line"/>
      <point x="227" y="225" type="line"/>
      <point x="205" y="100" type="line"/>
      <point x="498" y="100" type="line"/>
    </contour>
    <contour>
      <point x="554" y="475" type="line"/>
      <point x="564" y="475" type="line"/>
      <point x="528" y="272" type="line"/>
      <point x="434" y="272" type="line"/>
    </contour>
  </outline>
</glyph>
<glyph name="five" format="1">
  <advance width="799"/>
  <unicode hex="0035"/>
  <outline>
    <contour>
      <point x="-161" y="433" type="line" name="hr00"/>
      <point x="261" y="388" type="line"/>
      <point x="271" y="433" type="line"/>
    </contour>
    <contour>
      <point x="291" y="529" type="line"/>
      <point x="-140" y="529" type="line"/>
      <point x="282" y="484" type="line"/>
    </contour>
    <contour>
      <point x="302" y="580" type="line"/>
      <point x="311" y="625" type="line"/>
      <point x="-119" y="625" type="line"/>
    </contour>
    <contour>
      <point x="-250" y="48" type="line"/>
      <point x="168" y="3" type="line"/>
      <point x="182" y="48" type="line"/>
    </contour>
    <contour>
      <point x="199" y="101" type="line"/>
      <point x="214" y="145" type="line"/>
      <point x="-217" y="145" type="line"/>
    </contour>
    <contour>
      <point x="256" y="292" type="line"/>
      <point x="254" y="303" smooth="yes"/>
      <point x="253" y="314" smooth="yes"/>
      <point x="253" y="326" type="curve" smooth="yes"/>
      <point x="253" y="337" type="line"/>
      <point x="-168" y="337" type="line"/>
    </contour>
    <contour>
      <point x="283" y="241" type="curve"/>
      <point x="-20" y="241" type="line"/>
      <point x="385" y="198" type="line"/>
      <point x="338" y="207"/>
      <point x="305" y="220"/>
    </contour>
    <contour>
      <point x="201" y="11" type="line"/>
      <point x="271" y="-7" smooth="yes"/>
      <point x="347" y="-15" smooth="yes"/>
      <point x="426" y="-15" type="curve" smooth="yes"/>
      <point x="570" y="-15" smooth="yes"/>
      <point x="742" y="15" smooth="yes"/>
      <point x="742" y="257" type="curve" smooth="yes"/>
      <point x="742" y="335" smooth="yes"/>
      <point x="695" y="380" smooth="yes"/>
      <point x="551" y="399" type="curve" smooth="yes"/>
      <point x="496" y="406" type="line"/>
      <point x="507" y="467" type="line"/>
      <point x="729" y="453" type="line"/>
      <point x="774" y="625" type="line"/>
      <point x="342" y="625" type="line"/>
      <point x="287" y="365" type="line" smooth="yes"/>
      <point x="284" y="350" smooth="yes"/>
      <point x="283" y="338" smooth="yes"/>
      <point x="283" y="326" type="curve" smooth="yes"/>
      <point x="283" y="254" smooth="yes"/>
      <point x="333" y="232" smooth="yes"/>
      <point x="463" y="217" type="curve" smooth="yes"/>
      <point x="532" y="209" type="line"/>
      <point x="524" y="159" type="line"/>
      <point x="494" y="155" smooth="yes"/>
      <point x="463" y="153" smooth="yes"/>
      <point x="434" y="153" type="curve" smooth="yes"/>
      <point x="372" y="153"/>
      <point x="313" y="161"/>
      <point x="257" y="176" type="curve"/>
    </contour>
  </outline>
</glyph>
<glyph name="six" format="1">
  <advance width="769"/>
  <unicode hex="0036"/>
  <outline>
    <contour>
      <point x="183" y="292" type="line" smooth="yes"/>
      <point x="189" y="324"/>
      <point x="190" y="330"/>
      <point x="192" y="337" type="curve"/>
      <point x="-240" y="337" type="line"/>
    </contour>
    <contour>
      <point x="174" y="196" type="line"/>
      <point x="174" y="210"/>
      <point x="176" y="225"/>
      <point x="177" y="241" type="curve"/>
      <point x="-250" y="241" type="line"/>
    </contour>
    <contour>
      <point x="217" y="433" type="curve"/>
      <point x="-215" y="433" type="line"/>
      <point x="204" y="388" type="line"/>
      <point x="208" y="404"/>
      <point x="212" y="419"/>
    </contour>
    <contour>
      <point x="181" y="100" type="line"/>
      <point x="178" y="115"/>
      <point x="176" y="129"/>
      <point x="175" y="145" type="curve"/>
      <point x="-243" y="145" type="line"/>
    </contour>
    <contour>
      <point x="261" y="529" type="curve"/>
      <point x="-169" y="529" type="line"/>
      <point x="238" y="486" type="line"/>
      <point x="245" y="501"/>
      <point x="253" y="515"/>
    </contour>
    <contour>
      <point x="361" y="625" type="curve"/>
      <point x="-68" y="625" type="line"/>
      <point x="307" y="585" type="line"/>
      <point x="323" y="600"/>
      <point x="341" y="613"/>
    </contour>
    <contour>
      <point x="200" y="48" type="curve" name="hr01"/>
      <point x="-170" y="48" type="line"/>
      <point x="233" y="5" type="line"/>
      <point x="219" y="17"/>
      <point x="209" y="31"/>
    </contour>
    <contour>
      <point x="493" y="178" type="line" smooth="yes"/>
      <point x="486" y="139" smooth="yes"/>
      <point x="467" y="136" smooth="yes"/>
      <point x="429" y="136" type="curve" smooth="yes"/>
      <point x="390" y="136" type="line"/>
      <point x="404" y="215" type="line" smooth="yes"/>
      <point x="411" y="254" smooth="yes"/>
      <point x="431" y="257" smooth="yes"/>
      <point x="469" y="257" type="curve" smooth="yes"/>
      <point x="507" y="257" type="line"/>
    </contour>
    <contour>
      <point x="707" y="259" type="curve" smooth="yes"/>
      <point x="707" y="389" smooth="yes"/>
      <point x="608" y="405" smooth="yes"/>
      <point x="486" y="405" type="curve" smooth="yes"/>
      <point x="438" y="405" type="line"/>
      <point x="451" y="475" type="line"/>
      <point x="703" y="475" type="line"/>
      <point x="753" y="614" type="line"/>
      <point x="717" y="626" smooth="yes"/>
      <point x="622" y="640" smooth="yes"/>
      <point x="574" y="640" type="curve" smooth="yes"/>
      <point x="327" y="640" smooth="yes"/>
      <point x="256" y="529" smooth="yes"/>
      <point x="218" y="312" type="curve" smooth="yes"/>
      <point x="209" y="261" smooth="yes"/>
      <point x="204" y="216" smooth="yes"/>
      <point x="204" y="177" type="curve" smooth="yes"/>
      <point x="204" y="50" smooth="yes"/>
      <point x="259" y="-15" smooth="yes"/>
      <point x="412" y="-15" type="curve" smooth="yes"/>
      <point x="602" y="-15" smooth="yes"/>
      <point x="707" y="74" smooth="yes"/>
    </contour>
  </outline>
</glyph>
<glyph name="seven" format="1">
  <advance width="702"/>
  <unicode hex="0037"/>
  <outline>
    <contour>
      <point x="174" y="388" type="line" name="hr00"/>
      <point x="181" y="433" type="line"/>
      <point x="-250" y="433" type="line"/>
    </contour>
    <contour>
      <point x="186" y="484" type="line"/>
      <point x="191" y="529" type="line"/>
      <point x="-238" y="529" type="line"/>
    </contour>
    <contour>
      <point x="196" y="580" type="line"/>
      <point x="201" y="625" type="line"/>
      <point x="-226" y="625" type="line"/>
    </contour>
    <contour>
      <point x="185" y="48" type="line"/>
      <point x="-247" y="48" type="line"/>
      <point x="161" y="4" type="line"/>
    </contour>
    <contour>
      <point x="-86" y="337" type="line"/>
      <point x="322" y="293" type="line"/>
      <point x="346" y="337" type="line"/>
    </contour>
    <contour>
      <point x="-193" y="145" type="line"/>
      <point x="215" y="101" type="line"/>
      <point x="239" y="145" type="line"/>
    </contour>
    <contour>
      <point x="268" y="198" type="line"/>
      <point x="292" y="241" type="line"/>
      <point x="-139" y="241" type="line"/>
    </contour>
    <contour>
      <point x="679" y="500" type="line"/>
      <point x="701" y="625" type="line"/>
      <point x="231" y="625" type="line"/>
      <point x="213" y="448" type="line"/>
      <point x="442" y="448" type="line"/>
      <point x="193" y="0" type="line"/>
      <point x="408" y="0" type="line"/>
    </contour>
  </outline>
</glyph>
<glyph name="eight" format="1">
  <advance width="781"/>
  <unicode hex="0038"/>
  <outline>
    <contour>
      <point x="198" y="238" type="curve"/>
      <point x="199" y="241" type="line"/>
      <point x="-233" y="241" type="line"/>
      <point x="181" y="197" type="line"/>
      <point x="185" y="211"/>
      <point x="191" y="225"/>
    </contour>
    <contour>
      <point x="244" y="388" type="line"/>
      <point x="242" y="399" smooth="yes"/>
      <point x="242" y="410" smooth="yes"/>
      <point x="242" y="422" type="curve" smooth="yes"/>
      <point x="242" y="433" type="line"/>
      <point x="-180" y="433" type="line"/>
    </contour>
    <contour>
      <point x="263" y="529" type="curve"/>
      <point x="-168" y="529" type="line"/>
      <point x="248" y="485" type="line"/>
      <point x="252" y="501"/>
      <point x="257" y="515"/>
    </contour>
    <contour>
      <point x="171" y="131" type="curve" smooth="yes"/>
      <point x="171" y="135"/>
      <point x="171" y="140"/>
      <point x="172" y="145" type="curve"/>
      <point x="-250" y="145" type="line"/>
      <point x="174" y="100" type="line"/>
      <point x="172" y="110" smooth="yes"/>
      <point x="171" y="120" smooth="yes"/>
    </contour>
    <contour>
      <point x="271" y="318" type="curve"/>
      <point x="267" y="324"/>
      <point x="263" y="330"/>
      <point x="260" y="337" type="curve"/>
      <point x="-157" y="337" type="line"/>
      <point x="241" y="294" type="line"/>
      <point x="250" y="303"/>
      <point x="260" y="311"/>
    </contour>
    <contour>
      <point x="351" y="625" type="curve"/>
      <point x="-79" y="625" type="line"/>
      <point x="300" y="584" type="line"/>
      <point x="315" y="600"/>
      <point x="332" y="614"/>
    </contour>
    <contour>
      <point x="190" y="48" type="curve" name="hr01"/>
      <point x="-195" y="48" type="line"/>
      <point x="228" y="3" type="line"/>
      <point x="212" y="15"/>
      <point x="199" y="30"/>
    </contour>
    <contour>
      <point x="539" y="640" type="curve" smooth="yes"/>
      <point x="415" y="640" smooth="yes"/>
      <point x="272" y="589" smooth="yes"/>
      <point x="272" y="422" type="curve" smooth="yes"/>
      <point x="272" y="376"/>
      <point x="287" y="338"/>
      <point x="314" y="315" type="curve"/>
      <point x="313" y="308" type="line"/>
      <point x="246" y="277" smooth="yes"/>
      <point x="201" y="207" smooth="yes"/>
      <point x="201" y="131" type="curve" smooth="yes"/>
      <point x="201" y="20" smooth="yes"/>
      <point x="298" y="-15" smooth="yes"/>
      <point x="424" y="-15" type="curve" smooth="yes"/>
      <point x="580" y="-15" smooth="yes"/>
      <point x="711" y="44" smooth="yes"/>
      <point x="711" y="196" type="curve" smooth="yes"/>
      <point x="711" y="245"/>
      <point x="687" y="287"/>
      <point x="649" y="308" type="curve"/>
      <point x="650" y="315" type="line"/>
      <point x="702" y="350" smooth="yes"/>
      <point x="743" y="420" smooth="yes"/>
      <point x="743" y="498" type="curve" smooth="yes"/>
      <point x="743" y="605" smooth="yes"/>
      <point x="647" y="640" smooth="yes"/>
    </contour>
    <contour>
      <point x="509" y="201" type="line"/>
      <point x="505" y="178" type="line" smooth="yes"/>
      <point x="498" y="139" smooth="yes"/>
      <point x="479" y="136" smooth="yes"/>
      <point x="441" y="136" type="curve" smooth="yes"/>
      <point x="402" y="136" type="line"/>
      <point x="418" y="223" type="line" smooth="yes"/>
      <point x="420" y="235" smooth="yes"/>
      <point x="425" y="240" smooth="yes"/>
      <point x="432" y="240" type="curve" smooth="yes"/>
      <point x="438" y="240" smooth="yes"/>
      <point x="443" y="238" smooth="yes"/>
      <point x="450" y="234" type="curve" smooth="yes"/>
    </contour>
    <contour>
      <point x="453" y="423" type="line"/>
      <point x="456" y="442" type="line" smooth="yes"/>
      <point x="462" y="481" smooth="yes"/>
      <point x="484" y="484" smooth="yes"/>
      <point x="521" y="484" type="curve" smooth="yes"/>
      <point x="559" y="484" type="line"/>
      <point x="545" y="403" type="line" smooth="yes"/>
      <point x="543" y="393" smooth="yes"/>
      <point x="534" y="385" smooth="yes"/>
      <point x="522" y="385" type="curve" smooth="yes"/>
      <point x="519" y="385" smooth="yes"/>
      <point x="515" y="386" smooth="yes"/>
      <point x="509" y="389" type="curve" smooth="yes"/>
    </contour>
  </outline>
</glyph>
<glyph name="nine" format="1">
  <advance width="787"/>
  <unicode hex="0039"/>
  <outline>
    <contour>
      <point x="219" y="388" type="line"/>
      <point x="220" y="406"/>
      <point x="221" y="419"/>
      <point x="223" y="433" type="curve"/>
      <point x="-205" y="433" type="line"/>
    </contour>
    <contour>
      <point x="199" y="101" type="line"/>
      <point x="215" y="145" type="line"/>
      <point x="-216" y="145" type="line"/>
    </contour>
    <contour>
      <point x="166" y="4" type="line"/>
      <point x="181" y="48" type="line"/>
      <point x="-250" y="48" type="line"/>
    </contour>
    <contour>
      <point x="252" y="526" type="curve"/>
      <point x="253" y="529" type="line"/>
      <point x="-178" y="529" type="line"/>
      <point x="235" y="485" type="line"/>
      <point x="240" y="499"/>
      <point x="246" y="513"/>
    </contour>
    <contour>
      <point x="346" y="624" type="curve"/>
      <point x="346" y="625" type="line"/>
      <point x="-85" y="625" type="line"/>
      <point x="294" y="584" type="line"/>
      <point x="309" y="600"/>
      <point x="326" y="613"/>
    </contour>
    <contour>
      <point x="220" y="337" type="curve" name="hr01"/>
      <point x="-136" y="337" type="line"/>
      <point x="228" y="298" type="line"/>
      <point x="224" y="310"/>
      <point x="222" y="323"/>
    </contour>
    <contour>
      <point x="329" y="209" type="line"/>
      <point x="304" y="215"/>
      <point x="286" y="225"/>
      <point x="267" y="241" type="curve"/>
      <point x="10" y="241" type="line"/>
      <point x="328" y="204" type="line"/>
    </contour>
    <contour>
      <point x="464" y="447" type="line" smooth="yes"/>
      <point x="470" y="486" smooth="yes"/>
      <point x="490" y="489" smooth="yes"/>
      <point x="528" y="489" type="curve" smooth="yes"/>
      <point x="567" y="489" type="line"/>
      <point x="554" y="418" type="line" smooth="yes"/>
      <point x="547" y="379" smooth="yes"/>
      <point x="528" y="376" smooth="yes"/>
      <point x="490" y="376" type="curve" smooth="yes" name="hr02"/>
      <point x="452" y="376" type="line"/>
    </contour>
    <contour>
      <point x="521" y="228" type="line"/>
      <point x="509" y="159" type="line"/>
      <point x="478" y="155" smooth="yes"/>
      <point x="448" y="153" smooth="yes"/>
      <point x="418" y="153" type="curve" smooth="yes"/>
      <point x="371" y="153"/>
      <point x="313" y="161"/>
      <point x="257" y="176" type="curve"/>
      <point x="200" y="11" type="line"/>
      <point x="270" y="-7" smooth="yes"/>
      <point x="351" y="-15" smooth="yes"/>
      <point x="430" y="-15" type="curve" smooth="yes"/>
      <point x="630" y="-15" smooth="yes"/>
      <point x="701" y="96" smooth="yes"/>
      <point x="740" y="313" type="curve" smooth="yes"/>
      <point x="749" y="363" smooth="yes"/>
      <point x="754" y="407" smooth="yes"/>
      <point x="754" y="446" type="curve" smooth="yes"/>
      <point x="754" y="574" smooth="yes"/>
      <point x="699" y="640" smooth="yes"/>
      <point x="545" y="640" type="curve" smooth="yes"/>
      <point x="358" y="640" smooth="yes"/>
      <point x="249" y="551" smooth="yes"/>
      <point x="249" y="367" type="curve" smooth="yes"/>
      <point x="249" y="238" smooth="yes"/>
      <point x="351" y="228" smooth="yes"/>
      <point x="473" y="228" type="curve" smooth="yes"/>
    </contour>
  </outline>
</glyph>
<glyph name="colon" format="1">
  <advance width="325"/>
  <unicode hex="003A"/>
  <outline>
    <contour>
      <point x="72" y="145" type="curve" name="hr01"/>
      <point x="-159" y="145" type="line"/>
      <point x="63" y="100" type="line"/>
      <point x="65" y="118" smooth="yes"/>
      <point x="68" y="132" smooth="yes"/>
    </contour>
    <contour>
      <point x="70" y="3" type="line"/>
      <point x="63" y="15"/>
      <point x="60" y="30"/>
      <point x="59" y="48" type="curve"/>
      <point x="-154" y="48" type="line"/>
    </contour>
    <contour>
      <point x="93" y="99" type="curve" smooth="yes"/>
      <point x="90" y="83" smooth="yes"/>
      <point x="89" y="69" smooth="yes"/>
      <point x="89" y="57" type="curve" smooth="yes"/>
      <point x="89" y="12" smooth="yes"/>
      <point x="111" y="-6" smooth="yes"/>
      <point x="178" y="-6" type="curve" smooth="yes"/>
      <point x="262" y="-6" smooth="yes"/>
      <point x="287" y="23" smooth="yes"/>
      <point x="300" y="99" type="curve" smooth="yes"/>
      <point x="303" y="115" smooth="yes"/>
      <point x="304" y="129" smooth="yes"/>
      <point x="304" y="141" type="curve" smooth="yes"/>
      <point x="304" y="187" smooth="yes"/>
      <point x="282" y="206" smooth="yes"/>
      <point x="216" y="206" type="curve" smooth="yes" name="hr02"/>
      <point x="131" y="206" smooth="yes"/>
      <point x="106" y="175" smooth="yes"/>
    </contour>
    <contour>
      <point x="125" y="434" type="curve" name="hr03"/>
      <point x="-106" y="434" type="line"/>
      <point x="116" y="389" type="line"/>
      <point x="118" y="407" smooth="yes"/>
      <point x="121" y="421" smooth="yes"/>
    </contour>
    <contour>
      <point x="123" y="292" type="line"/>
      <point x="116" y="304"/>
      <point x="113" y="319"/>
      <point x="112" y="337" type="curve"/>
      <point x="-101" y="337" type="line"/>
    </contour>
    <contour>
      <point x="146" y="388" type="curve" smooth="yes"/>
      <point x="143" y="372" smooth="yes"/>
      <point x="142" y="358" smooth="yes"/>
      <point x="142" y="346" type="curve" smooth="yes"/>
      <point x="142" y="301" smooth="yes"/>
      <point x="164" y="283" smooth="yes"/>
      <point x="231" y="283" type="curve" smooth="yes"/>
      <point x="315" y="283" smooth="yes"/>
      <point x="340" y="312" smooth="yes"/>
      <point x="353" y="388" type="curve" smooth="yes"/>
      <point x="356" y="404" smooth="yes"/>
      <point x="357" y="418" smooth="yes"/>
      <point x="357" y="430" type="curve" smooth="yes"/>
      <point x="357" y="476" smooth="yes"/>
      <point x="335" y="495" smooth="yes"/>
      <point x="269" y="495" type="curve" smooth="yes" name="hr04"/>
      <point x="184" y="495" smooth="yes"/>
      <point x="159" y="464" smooth="yes"/>
    </contour>
  </outline>
</glyph>
<glyph name="semicolon" format="1">
  <advance width="325"/>
  <unicode hex="003B"/>
  <outline>
    <contour>
      <point x="93" y="99" type="curve" smooth="yes" name="hr01"/>
      <point x="91" y="89" smooth="yes"/>
      <point x="90" y="80" smooth="yes"/>
      <point x="90" y="72" type="curve" smooth="yes"/>
      <point x="90" y="44"/>
      <point x="102" y="28"/>
      <point x="136" y="22" type="curve"/>
      <point x="80" y="-122" type="line"/>
      <point x="160" y="-151" type="line"/>
      <point x="248" y="-15" type="line" smooth="yes"/>
      <point x="281" y="36" smooth="yes"/>
      <point x="304" y="84" smooth="yes"/>
      <point x="304" y="141" type="curve" smooth="yes"/>
      <point x="304" y="187" smooth="yes"/>
      <point x="282" y="206" smooth="yes"/>
      <point x="216" y="206" type="curve" smooth="yes"/>
      <point x="131" y="206" smooth="yes"/>
      <point x="108" y="175" smooth="yes"/>
    </contour>
    <contour>
      <point x="-154" y="48" type="line"/>
      <point x="97" y="-1" type="line"/>
      <point x="75" y="8"/>
      <point x="64" y="32"/>
      <point x="59" y="48" type="curve"/>
    </contour>
    <contour>
      <point x="72" y="145" type="curve"/>
      <point x="-159" y="145" type="line"/>
      <point x="63" y="100" type="line"/>
      <point x="65" y="118"/>
      <point x="68" y="132"/>
    </contour>
    <contour>
      <point x="125" y="434" type="curve" name="hr02"/>
      <point x="-106" y="434" type="line"/>
      <point x="116" y="389" type="line"/>
      <point x="118" y="407" smooth="yes"/>
      <point x="121" y="421" smooth="yes"/>
    </contour>
    <contour>
      <point x="123" y="292" type="line"/>
      <point x="116" y="304"/>
      <point x="113" y="319"/>
      <point x="112" y="337" type="curve"/>
      <point x="-101" y="337" type="line"/>
    </contour>
    <contour>
      <point x="146" y="388" type="curve" smooth="yes"/>
      <point x="143" y="372" smooth="yes"/>
      <point x="142" y="358" smooth="yes"/>
      <point x="142" y="346" type="curve" smooth="yes"/>
      <point x="142" y="301" smooth="yes"/>
      <point x="164" y="283" smooth="yes"/>
      <point x="231" y="283" type="curve" smooth="yes"/>
      <point x="315" y="283" smooth="yes"/>
      <point x="340" y="312" smooth="yes"/>
      <point x="353" y="388" type="curve" smooth="yes"/>
      <point x="356" y="404" smooth="yes"/>
      <point x="357" y="418" smooth="yes"/>
      <point x="357" y="430" type="curve" smooth="yes"/>
      <point x="357" y="476" smooth="yes"/>
      <point x="335" y="495" smooth="yes"/>
      <point x="269" y="495" type="curve" smooth="yes" name="hr03"/>
      <point x="184" y="495" smooth="yes"/>
      <point x="159" y="464" smooth="yes"/>
    </contour>
  </outline>
</glyph>
<glyph name="less" format="1">
  <advance width="600"/>
  <unicode hex="003C"/>
  <outline>
    <contour>
      <point x="497" y="557" type="line" name="hr00"/>
      <point x="128" y="403" type="line"/>
      <point x="96" y="221" type="line"/>
      <point x="400" y="67" type="line"/>
      <point x="488" y="201" type="line"/>
      <point x="249" y="308" type="line"/>
      <point x="250" y="315" type="line"/>
      <point x="537" y="423" type="line"/>
    </contour>
  </outline>
</glyph>
<glyph name="equal" format="1">
  <advance width="600"/>
  <unicode hex="003D"/>
  <outline>
    <contour>
      <point x="50" y="121" type="line" name="hr00"/>
      <point x="483" y="121" type="line"/>
      <point x="508" y="265" type="line"/>
      <point x="75" y="265" type="line"/>
    </contour>
    <contour>
      <point x="92" y="359" type="line"/>
      <point x="525" y="359" type="line"/>
      <point x="550" y="503" type="line"/>
      <point x="117" y="503" type="line"/>
    </contour>
  </outline>
</glyph>
<glyph name="greater" format="1">
  <advance width="600"/>
  <unicode hex="003E"/>
  <outline>
    <contour>
      <point x="110" y="67" type="line" name="hr00"/>
      <point x="479" y="221" type="line"/>
      <point x="511" y="403" type="line"/>
      <point x="207" y="557" type="line"/>
      <point x="119" y="423" type="line"/>
      <point x="358" y="316" type="line"/>
      <point x="357" y="309" type="line"/>
      <point x="70" y="201" type="line"/>
    </contour>
  </outline>
</glyph>
<glyph name="question" format="1">
  <advance width="610"/>
  <unicode hex="003F"/>
  <outline>
    <contour>
      <point x="223" y="292" type="line" name="hr00"/>
      <point x="224" y="296" type="line"/>
      <point x="228" y="337" type="line"/>
      <point x="-151" y="337" type="line"/>
    </contour>
    <contour>
      <point x="213" y="196" type="line"/>
      <point x="218" y="241" type="line"/>
      <point x="-161" y="241" type="line"/>
    </contour>
    <contour>
      <point x="200" y="484" type="line"/>
      <point x="201" y="529" type="line"/>
      <point x="-173" y="529" type="line"/>
    </contour>
    <contour>
      <point x="166" y="44" type="curve"/>
      <point x="166" y="48" type="line"/>
      <point x="-200" y="48" type="line"/>
      <point x="174" y="3" type="line"/>
      <point x="168" y="14"/>
      <point x="166" y="28"/>
    </contour>
    <contour>
      <point x="200" y="145" type="curve"/>
      <point x="-181" y="145" type="line"/>
      <point x="174" y="102" type="line"/>
      <point x="179" y="119"/>
      <point x="188" y="134"/>
    </contour>
    <contour>
      <point x="292" y="433" type="curve"/>
      <point x="-90" y="433" type="line"/>
      <point x="237" y="393" type="line"/>
      <point x="244" y="408"/>
      <point x="260" y="420"/>
    </contour>
    <contour>
      <point x="442" y="302" type="line"/>
      <point x="586" y="347" smooth="yes"/>
      <point x="640" y="411" smooth="yes"/>
      <point x="640" y="523" type="curve" smooth="yes"/>
      <point x="640" y="629" smooth="yes"/>
      <point x="545" y="640" smooth="yes"/>
      <point x="435" y="640" type="curve" smooth="yes"/>
      <point x="369" y="640"/>
      <point x="298" y="629"/>
      <point x="232" y="612" type="curve"/>
      <point x="230" y="469" type="line"/>
      <point x="256" y="478" smooth="yes"/>
      <point x="340" y="489" smooth="yes"/>
      <point x="404" y="489" type="curve" smooth="yes"/>
      <point x="419" y="489"/>
      <point x="434" y="488"/>
      <point x="446" y="487" type="curve"/>
      <point x="440" y="453" type="line"/>
      <point x="332" y="416" type="line" smooth="yes"/>
      <point x="274" y="396" smooth="yes"/>
      <point x="263" y="386" smooth="yes"/>
      <point x="261" y="363" type="curve" smooth="yes"/>
      <point x="241" y="175" type="line"/>
      <point x="403" y="175" type="line"/>
    </contour>
    <contour>
      <point x="196" y="44" type="curve" smooth="yes"/>
      <point x="196" y="8" smooth="yes"/>
      <point x="219" y="-7" smooth="yes"/>
      <point x="291" y="-7" type="curve" smooth="yes"/>
      <point x="385" y="-7" smooth="yes"/>
      <point x="414" y="22" smooth="yes"/>
      <point x="414" y="96" type="curve" smooth="yes"/>
      <point x="414" y="132" smooth="yes"/>
      <point x="391" y="149" smooth="yes"/>
      <point x="319" y="149" type="curve" smooth="yes"/>
      <point x="239" y="149" smooth="yes"/>
      <point x="196" y="121" smooth="yes"/>
    </contour>
  </outline>
</glyph>
<glyph name="at" format="1">
  <advance width="1068"/>
  <unicode hex="0040"/>
  <outline>
    <contour>
      <point x="693" y="277" type="line" smooth="yes"/>
      <point x="699" y="316" smooth="yes"/>
      <point x="729" y="319" smooth="yes"/>
      <point x="767" y="319" type="curve" smooth="yes"/>
      <point x="797" y="319" type="line"/>
      <point x="786" y="257" type="line"/>
      <point x="777" y="224" smooth="yes"/>
      <point x="751" y="221" smooth="yes"/>
      <point x="715" y="221" type="curve" smooth="yes"/>
      <point x="684" y="221" type="line"/>
    </contour>
    <contour>
      <point x="240" y="266" type="line" smooth="yes"/>
      <point x="235" y="234" smooth="yes"/>
      <point x="231" y="204" smooth="yes"/>
      <point x="231" y="178" type="curve" smooth="yes"/>
      <point x="231" y="-19" smooth="yes"/>
      <point x="380" y="-75" smooth="yes"/>
      <point x="576" y="-75" type="curve" smooth="yes"/>
      <point x="642" y="-75"/>
      <point x="703" y="-68"/>
      <point x="772" y="-54" type="curve"/>
      <point x="789" y="40" type="line"/>
      <point x="610" y="40" type="line" smooth="yes"/>
      <point x="516" y="40" smooth="yes"/>
      <point x="425" y="45" smooth="yes"/>
      <point x="425" y="145" type="curve" smooth="yes" name="hr01"/>
      <point x="425" y="157" smooth="yes"/>
      <point x="426" y="169" smooth="yes"/>
      <point x="429" y="183" type="curve" smooth="yes"/>
      <point x="464" y="380" type="line" smooth="yes"/>
      <point x="488" y="516" smooth="yes"/>
      <point x="591" y="523" smooth="yes"/>
      <point x="695" y="523" type="curve" smooth="yes"/>
      <point x="744" y="523"/>
      <point x="803" y="519"/>
      <point x="831" y="513" type="curve"/>
      <point x="818" y="440" type="line"/>
      <point x="780" y="440" type="line" smooth="yes"/>
      <point x="620" y="440" smooth="yes"/>
      <point x="508" y="371" smooth="yes"/>
      <point x="508" y="198" type="curve" smooth="yes"/>
      <point x="508" y="105" smooth="yes"/>
      <point x="568" y="81" smooth="yes"/>
      <point x="629" y="81" type="curve" smooth="yes" name="hr02"/>
      <point x="700" y="81"/>
      <point x="763" y="106"/>
      <point x="809" y="153" type="curve"/>
      <point x="852" y="90" type="line"/>
      <point x="947" y="90" type="line"/>
      <point x="1018" y="497" type="line" smooth="yes"/>
      <point x="1020" y="510" smooth="yes"/>
      <point x="1022" y="523" smooth="yes"/>
      <point x="1022" y="535" type="curve" smooth="yes"/>
      <point x="1022" y="641" smooth="yes"/>
      <point x="925" y="690" smooth="yes"/>
      <point x="711" y="690" type="curve" smooth="yes"/>
      <point x="491" y="690" smooth="yes"/>
      <point x="299" y="618" smooth="yes"/>
      <point x="254" y="349" type="curve" smooth="yes"/>
    </contour>
    <contour>
      <point x="213" y="292" type="line"/>
      <point x="221" y="337" type="line"/>
      <point x="-211" y="337" type="line"/>
    </contour>
    <contour>
      <point x="-188" y="433" type="line"/>
      <point x="231" y="388" type="line"/>
      <point x="234" y="404"/>
      <point x="238" y="418"/>
      <point x="243" y="433" type="curve"/>
    </contour>
    <contour>
      <point x="205" y="241" type="curve"/>
      <point x="-220" y="241" type="line"/>
      <point x="201" y="196" type="line"/>
      <point x="202" y="211"/>
      <point x="203" y="226"/>
    </contour>
    <contour>
      <point x="285" y="529" type="curve"/>
      <point x="-138" y="529" type="line"/>
      <point x="262" y="485" type="line"/>
      <point x="269" y="501"/>
      <point x="277" y="515"/>
    </contour>
    <contour>
      <point x="202" y="145" type="curve" name="hr03"/>
      <point x="-210" y="145" type="line"/>
      <point x="209" y="100" type="line"/>
      <point x="206" y="114"/>
      <point x="203" y="129"/>
    </contour>
    <contour>
      <point x="226" y="48" type="curve" name="hr04"/>
      <point x="-158" y="48" type="line"/>
      <point x="253" y="5" type="line"/>
      <point x="243" y="18"/>
      <point x="234" y="32"/>
    </contour>
  </outline>
</glyph>
<glyph name="B" format="1">
  <advance width="774"/>
  <unicode hex="0042"/>
  <outline>
    <contour>
      <point x="204" y="0" type="line"/>
      <point x="546" y="0" type="line" smooth="yes"/>
      <point x="671" y="0" smooth="yes"/>
      <point x="733" y="99" smooth="yes"/>
      <point x="733" y="212" type="curve" smooth="yes"/>
      <point x="733" y="273"/>
      <point x="708" y="319"/>
      <point x="643" y="331" type="curve"/>
      <point x="644" y="337" type="line"/>
      <point x="703" y="352" smooth="yes"/>
      <point x="759" y="416" smooth="yes"/>
      <point x="759" y="523" type="curve" smooth="yes" name="hr01"/>
      <point x="759" y="592" smooth="yes"/>
      <point x="719" y="625" smooth="yes"/>
      <point x="622" y="625" type="curve" smooth="yes"/>
      <point x="314" y="625" type="line"/>
    </contour>
    <contour>
      <point x="512" y="249" type="line" smooth="yes"/>
      <point x="536" y="249" smooth="yes"/>
      <point x="544" y="236" smooth="yes"/>
      <point x="544" y="217" type="curve" smooth="yes" name="hr02"/>
      <point x="544" y="180" smooth="yes"/>
      <point x="529" y="147" smooth="yes"/>
      <point x="493" y="147" type="curve" smooth="yes"/>
      <point x="419" y="147" type="line"/>
      <point x="437" y="249" type="line"/>
    </contour>
    <contour>
      <point x="540" y="488" type="line" smooth="yes"/>
      <point x="561" y="488" smooth="yes"/>
      <point x="568" y="477" smooth="yes"/>
      <point x="568" y="460" type="curve" smooth="yes" name="hr03"/>
      <point x="568" y="427" smooth="yes"/>
      <point x="556" y="395" smooth="yes"/>
      <point x="522" y="395" type="curve" smooth="yes"/>
      <point x="463" y="395" type="line"/>
      <point x="480" y="488" type="line"/>
    </contour>
    <contour>
      <point x="174" y="3" type="line"/>
      <point x="182" y="48" type="line"/>
      <point x="-250" y="48" type="line"/>
    </contour>
    <contour>
      <point x="208" y="196" type="line"/>
      <point x="216" y="241" type="line"/>
      <point x="-216" y="241" type="line"/>
    </contour>
    <contour>
      <point x="225" y="292" type="line"/>
      <point x="233" y="337" type="line"/>
      <point x="-199" y="337" type="line"/>
    </contour>
    <contour>
      <point x="242" y="388" type="line"/>
      <point x="250" y="433" type="line"/>
      <point x="-182" y="433" type="line"/>
    </contour>
    <contour>
      <point x="259" y="484" type="line"/>
      <point x="266" y="529" type="line"/>
      <point x="-165" y="529" type="line"/>
    </contour>
    <contour>
      <point x="191" y="100" type="line"/>
      <point x="199" y="145" type="line"/>
      <point x="-233" y="145" type="line"/>
    </contour>
    <contour>
      <point x="275" y="580" type="line"/>
      <point x="283" y="625" type="line"/>
      <point x="-148" y="625" type="line"/>
    </contour>
  </outline>
</glyph>
<glyph name="F" format="1">
  <advance width="666"/>
  <unicode hex="0046"/>
  <outline>
    <contour>
      <point x="596" y="232" type="line" name="hr00"/>
      <point x="623" y="381" type="line"/>
      <point x="461" y="381" type="line"/>
      <point x="475" y="465" type="line"/>
      <point x="651" y="465" type="line"/>
      <point x="704" y="625" type="line"/>
      <point x="314" y="625" type="line"/>
      <point x="204" y="0" type="line"/>
      <point x="394" y="0" type="line"/>
      <point x="434" y="232" type="line"/>
    </contour>
    <contour>
      <point x="174" y="3" type="line"/>
      <point x="182" y="48" type="line"/>
      <point x="-250" y="48" type="line"/>
    </contour>
    <contour>
      <point x="208" y="196" type="line"/>
      <point x="216" y="241" type="line"/>
      <point x="-216" y="241" type="line"/>
    </contour>
    <contour>
      <point x="225" y="292" type="line"/>
      <point x="233" y="337" type="line"/>
      <point x="-199" y="337" type="line"/>
    </contour>
    <contour>
      <point x="242" y="388" type="line"/>
      <point x="250" y="433" type="line"/>
      <point x="-182" y="433" type="line"/>
    </contour>
    <contour>
      <point x="259" y="484" type="line"/>
      <point x="266" y="529" type="line"/>
      <point x="-165" y="529" type="line"/>
    </contour>
    <contour>
      <point x="191" y="100" type="line"/>
      <point x="199" y="145" type="line"/>
      <point x="-233" y="145" type="line"/>
    </contour>
    <contour>
      <point x="275" y="580" type="line"/>
      <point x="283" y="625" type="line"/>
      <point x="-148" y="625" type="line"/>
    </contour>
  </outline>
</glyph>
<glyph name="G" format="1">
  <advance width="767"/>
  <unicode hex="0047"/>
  <outline>
    <contour>
      <point x="529" y="184" type="line" smooth="yes"/>
      <point x="522" y="145" smooth="yes"/>
      <point x="495" y="142" smooth="yes"/>
      <point x="457" y="142" type="curve" smooth="yes"/>
      <point x="394" y="142" type="line"/>
      <point x="443" y="425" type="line" smooth="yes"/>
      <point x="450" y="467" smooth="yes"/>
      <point x="487" y="475" smooth="yes"/>
      <point x="562" y="475" type="curve" smooth="yes"/>
      <point x="596" y="475"/>
      <point x="654" y="470"/>
      <point x="702" y="461" type="curve"/>
      <point x="757" y="614" type="line"/>
      <point x="721" y="627" smooth="yes"/>
      <point x="627" y="640" smooth="yes"/>
      <point x="578" y="640" type="curve" smooth="yes"/>
      <point x="332" y="640" smooth="yes"/>
      <point x="258" y="529" smooth="yes"/>
      <point x="220" y="312" type="curve" smooth="yes"/>
      <point x="212" y="264" smooth="yes"/>
      <point x="206" y="222" smooth="yes"/>
      <point x="206" y="185" type="curve" smooth="yes"/>
      <point x="206" y="53" smooth="yes"/>
      <point x="268" y="-15" smooth="yes"/>
      <point x="441" y="-15" type="curve" smooth="yes"/>
      <point x="508" y="-15"/>
      <point x="599" y="-1"/>
      <point x="683" y="30" type="curve"/>
      <point x="742" y="364" type="line"/>
      <point x="513" y="364" type="line"/>
      <point x="486" y="211" type="line"/>
      <point x="534" y="211" type="line"/>
    </contour>
    <contour>
      <point x="192" y="317" type="curve"/>
      <point x="195" y="337" type="line"/>
      <point x="-205" y="337" type="line"/>
      <point x="188" y="295" type="line"/>
      <point x="189" y="302"/>
      <point x="190" y="309"/>
    </contour>
    <contour>
      <point x="181" y="241" type="curve"/>
      <point x="-216" y="241" type="line"/>
      <point x="178" y="199" type="line"/>
      <point x="178" y="212"/>
      <point x="179" y="226"/>
    </contour>
    <contour>
      <point x="219" y="433" type="line"/>
      <point x="-181" y="433" type="line"/>
      <point x="207" y="392" type="line"/>
    </contour>
    <contour>
      <point x="179" y="145" type="curve"/>
      <point x="-203" y="145" type="line"/>
      <point x="186" y="103" type="line"/>
      <point x="183" y="116"/>
      <point x="181" y="130"/>
    </contour>
    <contour>
      <point x="260" y="529" type="curve"/>
      <point x="-134" y="529" type="line"/>
      <point x="240" y="489" type="line"/>
      <point x="246" y="503"/>
      <point x="253" y="516"/>
    </contour>
    <contour>
      <point x="209" y="48" type="curve" name="hr01"/>
      <point x="-107" y="48" type="line"/>
      <point x="239" y="11" type="line"/>
      <point x="227" y="21"/>
      <point x="217" y="34"/>
    </contour>
    <contour>
      <point x="355" y="625" type="curve"/>
      <point x="4" y="625" type="line"/>
      <point x="310" y="592" type="line"/>
      <point x="324" y="605"/>
      <point x="339" y="615"/>
    </contour>
  </outline>
</glyph>
<glyph name="H" format="1">
  <advance width="846"/>
  <unicode hex="0048"/>
  <outline>
    <contour>
      <point x="537" y="0" type="line" name="hr00"/>
      <point x="727" y="0" type="line"/>
      <point x="837" y="625" type="line"/>
      <point x="647" y="625" type="line"/>
      <point x="608" y="404" type="line"/>
      <point x="465" y="404" type="line"/>
      <point x="504" y="625" type="line"/>
      <point x="314" y="625" type="line"/>
      <point x="204" y="0" type="line"/>
      <point x="394" y="0" type="line"/>
      <point x="432" y="221" type="line"/>
      <point x="575" y="221" type="line"/>
    </contour>
    <contour>
      <point x="174" y="3" type="line"/>
      <point x="182" y="48" type="line"/>
      <point x="-250" y="48" type="line"/>
    </contour>
    <contour>
      <point x="208" y="196" type="line"/>
      <point x="216" y="241" type="line"/>
      <point x="-216" y="241" type="line"/>
    </contour>
    <contour>
      <point x="225" y="292" type="line"/>
      <point x="233" y="337" type="line"/>
      <point x="-199" y="337" type="line"/>
    </contour>
    <contour>
      <point x="242" y="388" type="line"/>
      <point x="250" y="433" type="line"/>
      <point x="-182" y="433" type="line"/>
    </contour>
    <contour>
      <point x="259" y="484" type="line"/>
      <point x="266" y="529" type="line"/>
      <point x="-165" y="529" type="line"/>
    </contour>
    <contour>
      <point x="191" y="100" type="line"/>
      <point x="199" y="145" type="line"/>
      <point x="-233" y="145" type="line"/>
    </contour>
    <contour>
      <point x="275" y="580" type="line"/>
      <point x="283" y="625" type="line"/>
      <point x="-148" y="625" type="line"/>
    </contour>
  </outline>
</glyph>
<glyph name="J" format="1">
  <advance width="566"/>
  <unicode hex="004A"/>
  <outline>
    <contour>
      <point x="206" y="160" type="line" name="hr00"/>
      <point x="177" y="0" type="line"/>
      <point x="325" y="0" type="line" smooth="yes"/>
      <point x="420" y="0" smooth="yes"/>
      <point x="482" y="57" smooth="yes"/>
      <point x="501" y="165" type="curve" smooth="yes"/>
      <point x="582" y="625" type="line"/>
      <point x="314" y="625" type="line"/>
      <point x="285" y="465" type="line"/>
      <point x="363" y="465" type="line"/>
      <point x="315" y="190" type="line" smooth="yes"/>
      <point x="310" y="162" smooth="yes"/>
      <point x="290" y="160" smooth="yes"/>
      <point x="265" y="160" type="curve" smooth="yes"/>
    </contour>
    <contour>
      <point x="147" y="3" type="line"/>
      <point x="155" y="48" type="line"/>
      <point x="-277" y="48" type="line"/>
    </contour>
    <contour>
      <point x="285" y="196" type="line"/>
      <point x="293" y="241" type="line"/>
      <point x="-139" y="241" type="line"/>
    </contour>
    <contour>
      <point x="302" y="292" type="line"/>
      <point x="310" y="337" type="line"/>
      <point x="-122" y="337" type="line"/>
    </contour>
    <contour>
      <point x="319" y="388" type="line"/>
      <point x="327" y="433" type="line"/>
      <point x="-105" y="433" type="line"/>
    </contour>
    <contour>
      <point x="257" y="484" type="line"/>
      <point x="264" y="529" type="line"/>
      <point x="-167" y="529" type="line"/>
    </contour>
    <contour>
      <point x="164" y="100" type="line"/>
      <point x="172" y="145" type="line"/>
      <point x="-260" y="145" type="line"/>
    </contour>
    <contour>
      <point x="275" y="580" type="line"/>
      <point x="283" y="625" type="line"/>
      <point x="-148" y="625" type="line"/>
    </contour>
  </outline>
</glyph>
<glyph name="K" format="1">
  <advance width="771"/>
  <unicode hex="004B"/>
  <outline>
    <contour>
      <point x="441" y="272" type="line" name="hr00"/>
      <point x="449" y="272" type="line"/>
      <point x="449" y="266" smooth="yes"/>
      <point x="448" y="260" smooth="yes"/>
      <point x="448" y="253" type="curve" smooth="yes"/>
      <point x="448" y="242" smooth="yes"/>
      <point x="449" y="231" smooth="yes"/>
      <point x="451" y="224" type="curve" smooth="yes"/>
      <point x="506" y="0" type="line"/>
      <point x="711" y="0" type="line"/>
      <point x="620" y="318" type="line"/>
      <point x="816" y="625" type="line"/>
      <point x="611" y="625" type="line"/>
      <point x="485" y="418" type="line" smooth="yes"/>
      <point x="478" y="407"/>
      <point x="471" y="386"/>
      <point x="467" y="370" type="curve"/>
      <point x="459" y="370" type="line"/>
      <point x="504" y="625" type="line"/>
      <point x="314" y="625" type="line"/>
      <point x="204" y="0" type="line"/>
      <point x="394" y="0" type="line"/>
    </contour>
    <contour>
      <point x="174" y="3" type="line"/>
      <point x="182" y="48" type="line"/>
      <point x="-250" y="48" type="line"/>
    </contour>
    <contour>
      <point x="208" y="196" type="line"/>
      <point x="216" y="241" type="line"/>
      <point x="-216" y="241" type="line"/>
    </contour>
    <contour>
      <point x="225" y="292" type="line"/>
      <point x="233" y="337" type="line"/>
      <point x="-199" y="337" type="line"/>
    </contour>
    <contour>
      <point x="242" y="388" type="line"/>
      <point x="250" y="433" type="line"/>
      <point x="-182" y="433" type="line"/>
    </contour>
    <contour>
      <point x="259" y="484" type="line"/>
      <point x="266" y="529" type="line"/>
      <point x="-165" y="529" type="line"/>
    </contour>
    <contour>
      <point x="191" y="100" type="line"/>
      <point x="199" y="145" type="line"/>
      <point x="-233" y="145" type="line"/>
    </contour>
    <contour>
      <point x="275" y="580" type="line"/>
      <point x="283" y="625" type="line"/>
      <point x="-148" y="625" type="line"/>
    </contour>
  </outline>
</glyph>
<glyph name="M" format="1">
  <advance width="1023"/>
  <unicode hex="004D"/>
  <outline>
    <contour>
      <point x="172" y="3" type="line" name="hr00"/>
      <point x="182" y="48" type="line"/>
      <point x="-250" y="48" type="line"/>
    </contour>
    <contour>
      <point x="194" y="100" type="line"/>
      <point x="205" y="145" type="line"/>
      <point x="-227" y="145" type="line"/>
    </contour>
    <contour>
      <point x="217" y="196" type="line"/>
      <point x="227" y="241" type="line"/>
      <point x="-204" y="241" type="line"/>
    </contour>
    <contour>
      <point x="239" y="292" type="line"/>
      <point x="250" y="337" type="line"/>
      <point x="-181" y="337" type="line"/>
    </contour>
    <contour>
      <point x="262" y="388" type="line"/>
      <point x="272" y="433" type="line"/>
      <point x="-158" y="433" type="line"/>
    </contour>
    <contour>
      <point x="284" y="484" type="line"/>
      <point x="295" y="529" type="line"/>
      <point x="-135" y="529" type="line"/>
    </contour>
    <contour>
      <point x="307" y="580" type="line"/>
      <point x="317" y="625" type="line"/>
      <point x="-112" y="625" type="line"/>
    </contour>
    <contour>
      <point x="400" y="0" type="line"/>
      <point x="465" y="303" type="line"/>
      <point x="470" y="303" type="line"/>
      <point x="491" y="0" type="line"/>
      <point x="636" y="0" type="line"/>
      <point x="761" y="303" type="line"/>
      <point x="768" y="303" type="line"/>
      <point x="726" y="0" type="line"/>
      <point x="925" y="0" type="line"/>
      <point x="999" y="625" type="line"/>
      <point x="751" y="625" type="line"/>
      <point x="621" y="307" type="line"/>
      <point x="614" y="307" type="line"/>
      <point x="596" y="625" type="line"/>
      <point x="348" y="625" type="line"/>
      <point x="202" y="0" type="line"/>
    </contour>
  </outline>
</glyph>
<glyph name="N" format="1">
  <advance width="851"/>
  <unicode hex="004E"/>
  <outline>
    <contour>
      <point x="553" y="0" type="line" name="hr00"/>
      <point x="732" y="0" type="line"/>
      <point x="842" y="625" type="line"/>
      <point x="652" y="625" type="line"/>
      <point x="604" y="355" type="line"/>
      <point x="596" y="355" type="line"/>
      <point x="597" y="363" smooth="yes"/>
      <point x="598" y="374" smooth="yes"/>
      <point x="598" y="383" type="curve" smooth="yes"/>
      <point x="598" y="391" smooth="yes"/>
      <point x="597" y="398" smooth="yes"/>
      <point x="595" y="403" type="curve" smooth="yes"/>
      <point x="493" y="625" type="line"/>
      <point x="314" y="625" type="line"/>
      <point x="204" y="0" type="line"/>
      <point x="394" y="0" type="line"/>
      <point x="441" y="270" type="line"/>
      <point x="449" y="270" type="line"/>
      <point x="448" y="262" smooth="yes"/>
      <point x="447" y="252" smooth="yes"/>
      <point x="447" y="244" type="curve" smooth="yes"/>
      <point x="447" y="235" smooth="yes"/>
      <point x="448" y="227" smooth="yes"/>
      <point x="451" y="222" type="curve" smooth="yes"/>
    </contour>
    <contour>
      <point x="174" y="3" type="line"/>
      <point x="182" y="48" type="line"/>
      <point x="-250" y="48" type="line"/>
    </contour>
    <contour>
      <point x="208" y="196" type="line"/>
      <point x="216" y="241" type="line"/>
      <point x="-216" y="241" type="line"/>
    </contour>
    <contour>
      <point x="225" y="292" type="line"/>
      <point x="233" y="337" type="line"/>
      <point x="-199" y="337" type="line"/>
    </contour>
    <contour>
      <point x="242" y="388" type="line"/>
      <point x="250" y="433" type="line"/>
      <point x="-182" y="433" type="line"/>
    </contour>
    <contour>
      <point x="259" y="484" type="line"/>
      <point x="266" y="529" type="line"/>
      <point x="-165" y="529" type="line"/>
    </contour>
    <contour>
      <point x="191" y="100" type="line"/>
      <point x="199" y="145" type="line"/>
      <point x="-233" y="145" type="line"/>
    </contour>
    <contour>
      <point x="275" y="580" type="line"/>
      <point x="283" y="625" type="line"/>
      <point x="-148" y="625" type="line"/>
    </contour>
  </outline>
</glyph>
<glyph name="O" format="1">
  <advance width="815"/>
  <unicode hex="004F"/>
  <outline>
    <contour>
      <point x="442" y="416" type="line" smooth="yes"/>
      <point x="451" y="465" smooth="yes"/>
      <point x="480" y="469" smooth="yes"/>
      <point x="524" y="469" type="curve" smooth="yes"/>
      <point x="604" y="469" type="line"/>
      <point x="558" y="209" type="line" smooth="yes"/>
      <point x="549" y="160" smooth="yes"/>
      <point x="519" y="156" smooth="yes"/>
      <point x="475" y="156" type="curve" smooth="yes"/>
      <point x="396" y="156" type="line"/>
    </contour>
    <contour>
      <point x="557" y="640" type="curve" smooth="yes"/>
      <point x="337" y="640" smooth="yes"/>
      <point x="258" y="529" smooth="yes"/>
      <point x="220" y="312" type="curve" smooth="yes"/>
      <point x="212" y="265" smooth="yes"/>
      <point x="207" y="224" smooth="yes"/>
      <point x="207" y="187" type="curve" smooth="yes"/>
      <point x="207" y="53" smooth="yes"/>
      <point x="269" y="-15" smooth="yes"/>
      <point x="442" y="-15" type="curve" smooth="yes"/>
      <point x="534" y="-15" smooth="yes"/>
      <point x="604" y="1" smooth="yes"/>
      <point x="657" y="48" type="curve" smooth="yes"/>
      <point x="761" y="140" smooth="yes"/>
      <point x="792" y="328" smooth="yes"/>
      <point x="792" y="438" type="curve" smooth="yes"/>
      <point x="792" y="572" smooth="yes"/>
      <point x="730" y="640" smooth="yes"/>
    </contour>
    <contour>
      <point x="192" y="317" type="curve"/>
      <point x="195" y="337" type="line"/>
      <point x="-205" y="337" type="line"/>
      <point x="188" y="295" type="line"/>
      <point x="189" y="302"/>
      <point x="190" y="309"/>
    </contour>
    <contour>
      <point x="181" y="241" type="curve"/>
      <point x="-216" y="241" type="line"/>
      <point x="178" y="199" type="line"/>
      <point x="178" y="212"/>
      <point x="179" y="226"/>
    </contour>
    <contour>
      <point x="219" y="433" type="line"/>
      <point x="-181" y="433" type="line"/>
      <point x="207" y="392" type="line"/>
    </contour>
    <contour>
      <point x="179" y="145" type="curve" name="hr01"/>
      <point x="-203" y="145" type="line"/>
      <point x="186" y="103" type="line"/>
      <point x="183" y="116"/>
      <point x="181" y="130"/>
    </contour>
    <contour>
      <point x="260" y="529" type="curve"/>
      <point x="-134" y="529" type="line"/>
      <point x="240" y="489" type="line"/>
      <point x="246" y="503"/>
      <point x="253" y="516"/>
    </contour>
    <contour>
      <point x="209" y="48" type="curve" name="hr02"/>
      <point x="-107" y="48" type="line"/>
      <point x="239" y="11" type="line"/>
      <point x="227" y="21"/>
      <point x="217" y="34"/>
    </contour>
    <contour>
      <point x="355" y="625" type="curve"/>
      <point x="4" y="625" type="line"/>
      <point x="310" y="592" type="line"/>
      <point x="324" y="605"/>
      <point x="339" y="615"/>
    </contour>
  </outline>
</glyph>
<glyph name="P" format="1">
  <advance width="769"/>
  <unicode hex="0050"/>
  <outline>
    <contour>
      <point x="544" y="151" type="line" smooth="yes" name="hr00"/>
      <point x="747" y="151" smooth="yes"/>
      <point x="784" y="376" smooth="yes"/>
      <point x="784" y="467" type="curve" smooth="yes"/>
      <point x="784" y="557" smooth="yes"/>
      <point x="743" y="625" smooth="yes"/>
      <point x="614" y="625" type="curve" smooth="yes"/>
      <point x="314" y="625" type="line"/>
      <point x="204" y="0" type="line"/>
      <point x="394" y="0" type="line"/>
      <point x="420" y="151" type="line"/>
    </contour>
    <contour>
      <point x="475" y="465" type="line"/>
      <point x="519" y="465" type="line" smooth="yes"/>
      <point x="553" y="465" smooth="yes"/>
      <point x="579" y="462" smooth="yes"/>
      <point x="579" y="434" type="curve" smooth="yes"/>
      <point x="579" y="431" smooth="yes"/>
      <point x="579" y="427" smooth="yes"/>
      <point x="566" y="353" type="curve" smooth="yes"/>
      <point x="559" y="314" smooth="yes"/>
      <point x="530" y="311" smooth="yes"/>
      <point x="492" y="311" type="curve" smooth="yes"/>
      <point x="448" y="311" type="line"/>
    </contour>
    <contour>
      <point x="174" y="3" type="line"/>
      <point x="182" y="48" type="line"/>
      <point x="-250" y="48" type="line"/>
    </contour>
    <contour>
      <point x="208" y="196" type="line"/>
      <point x="216" y="241" type="line"/>
      <point x="-216" y="241" type="line"/>
    </contour>
    <contour>
      <point x="241" y="388" type="line"/>
      <point x="249" y="433" type="line"/>
      <point x="-182" y="433" type="line"/>
    </contour>
    <contour>
      <point x="258" y="484" type="line"/>
      <point x="266" y="529" type="line"/>
      <point x="-165" y="529" type="line"/>
    </contour>
    <contour>
      <point x="191" y="100" type="line"/>
      <point x="199" y="145" type="line"/>
      <point x="-233" y="145" type="line"/>
    </contour>
    <contour>
      <point x="275" y="580" type="line"/>
      <point x="283" y="625" type="line"/>
      <point x="-148" y="625" type="line"/>
    </contour>
    <contour>
      <point x="224" y="292" type="line"/>
      <point x="232" y="337" type="line"/>
      <point x="-199" y="337" type="line"/>
    </contour>
  </outline>
</glyph>
<glyph name="Q" format="1">
  <advance width="815"/>
  <unicode hex="0051"/>
  <outline>
    <contour>
      <point x="207" y="187" type="curve" smooth="yes"/>
      <point x="207" y="75"/>
      <point x="261" y="0"/>
      <point x="431" y="0" type="curve"/>
      <point x="516" y="23" type="line"/>
      <point x="509" y="-15" type="line"/>
      <point x="685" y="-50" type="line"/>
      <point x="755" y="65" type="line"/>
      <point x="693" y="107" type="line"/>
      <point x="745" y="169" smooth="yes"/>
      <point x="792" y="303" smooth="yes"/>
      <point x="792" y="434" type="curve" smooth="yes"/>
      <point x="792" y="570" smooth="yes"/>
      <point x="729" y="640" smooth="yes"/>
      <point x="557" y="640" type="curve" smooth="yes"/>
      <point x="337" y="640" smooth="yes"/>
      <point x="258" y="529" smooth="yes"/>
      <point x="220" y="312" type="curve" smooth="yes"/>
      <point x="212" y="265" smooth="yes"/>
      <point x="207" y="224" smooth="yes"/>
    </contour>
    <contour>
      <point x="396" y="156" type="line"/>
      <point x="442" y="416" type="line" smooth="yes"/>
      <point x="451" y="465" smooth="yes"/>
      <point x="480" y="469" smooth="yes"/>
      <point x="524" y="469" type="curve" smooth="yes"/>
      <point x="604" y="469" type="line"/>
      <point x="558" y="209" type="line" smooth="yes"/>
      <point x="549" y="160" smooth="yes"/>
      <point x="519" y="156" smooth="yes"/>
      <point x="475" y="156" type="curve" smooth="yes"/>
    </contour>
    <contour>
      <point x="195" y="337" type="line"/>
      <point x="-205" y="337" type="line"/>
      <point x="188" y="295" type="line"/>
    </contour>
    <contour>
      <point x="181" y="241" type="curve"/>
      <point x="-216" y="241" type="line"/>
      <point x="178" y="199" type="line"/>
      <point x="178" y="212"/>
      <point x="179" y="226"/>
    </contour>
    <contour>
      <point x="219" y="433" type="line"/>
      <point x="-181" y="433" type="line"/>
      <point x="207" y="392" type="line"/>
    </contour>
    <contour>
      <point x="179" y="145" type="curve"/>
      <point x="-203" y="145" type="line"/>
      <point x="187" y="103" type="line"/>
      <point x="184" y="116"/>
      <point x="181" y="130"/>
    </contour>
    <contour>
      <point x="260" y="529" type="curve"/>
      <point x="-134" y="529" type="line"/>
      <point x="240" y="489" type="line"/>
      <point x="246" y="503"/>
      <point x="253" y="516"/>
    </contour>
    <contour>
      <point x="215" y="48" type="curve"/>
      <point x="-107" y="48" type="line"/>
      <point x="255" y="11" type="line"/>
      <point x="243" y="21"/>
      <point x="225" y="37"/>
    </contour>
    <contour>
      <point x="355" y="625" type="curve" name="hr01"/>
      <point x="4" y="625" type="line"/>
      <point x="310" y="592" type="line"/>
      <point x="324" y="605"/>
      <point x="339" y="615"/>
    </contour>
  </outline>
</glyph>
<glyph name="R" format="1">
  <advance width="795"/>
  <unicode hex="0052"/>
  <outline>
    <contour>
      <point x="722" y="0" type="line" name="hr00"/>
      <point x="656" y="208" type="line"/>
      <point x="761" y="260" smooth="yes"/>
      <point x="785" y="400" smooth="yes"/>
      <point x="785" y="472" type="curve" smooth="yes"/>
      <point x="785" y="560" smooth="yes"/>
      <point x="744" y="625" smooth="yes"/>
      <point x="614" y="625" type="curve" smooth="yes"/>
      <point x="314" y="625" type="line"/>
      <point x="204" y="0" type="line"/>
      <point x="394" y="0" type="line"/>
      <point x="426" y="186" type="line"/>
      <point x="467" y="186" type="line"/>
      <point x="513" y="0" type="line"/>
    </contour>
    <contour>
      <point x="475" y="465" type="line"/>
      <point x="513" y="465" type="line" smooth="yes"/>
      <point x="552" y="465" smooth="yes"/>
      <point x="579" y="463" smooth="yes"/>
      <point x="579" y="434" type="curve" smooth="yes"/>
      <point x="579" y="432" smooth="yes"/>
      <point x="577" y="415" smooth="yes"/>
      <point x="571" y="382" type="curve" smooth="yes"/>
      <point x="564" y="343" smooth="yes"/>
      <point x="535" y="340" smooth="yes"/>
      <point x="497" y="340" type="curve" smooth="yes"/>
      <point x="453" y="340" type="line"/>
    </contour>
    <contour>
      <point x="174" y="3" type="line"/>
      <point x="182" y="48" type="line"/>
      <point x="-250" y="48" type="line"/>
    </contour>
    <contour>
      <point x="208" y="196" type="line"/>
      <point x="216" y="241" type="line"/>
      <point x="-216" y="241" type="line"/>
    </contour>
    <contour>
      <point x="241" y="388" type="line"/>
      <point x="249" y="433" type="line"/>
      <point x="-182" y="433" type="line"/>
    </contour>
    <contour>
      <point x="258" y="484" type="line"/>
      <point x="266" y="529" type="line"/>
      <point x="-165" y="529" type="line"/>
    </contour>
    <contour>
      <point x="191" y="100" type="line"/>
      <point x="199" y="145" type="line"/>
      <point x="-233" y="145" type="line"/>
    </contour>
    <contour>
      <point x="275" y="580" type="line"/>
      <point x="283" y="625" type="line"/>
      <point x="-148" y="625" type="line"/>
    </contour>
    <contour>
      <point x="224" y="292" type="line"/>
      <point x="232" y="337" type="line"/>
      <point x="-199" y="337" type="line"/>
    </contour>
  </outline>
</glyph>
<glyph name="V" format="1">
  <advance width="793"/>
  <unicode hex="0056"/>
  <outline>
    <contour>
      <point x="-146" y="48" type="line"/>
      <point x="278" y="3" type="line"/>
      <point x="275" y="48" type="line"/>
    </contour>
    <contour>
      <point x="-152" y="145" type="line"/>
      <point x="272" y="100" type="line"/>
      <point x="269" y="145" type="line"/>
    </contour>
    <contour>
      <point x="-175" y="529" type="line"/>
      <point x="249" y="484" type="line"/>
      <point x="246" y="529" type="line"/>
    </contour>
    <contour>
      <point x="-169" y="433" type="line"/>
      <point x="254" y="388" type="line"/>
      <point x="252" y="433" type="line"/>
    </contour>
    <contour>
      <point x="-180" y="625" type="line"/>
      <point x="243" y="580" type="line"/>
      <point x="241" y="625" type="line"/>
    </contour>
    <contour>
      <point x="-163" y="337" type="line"/>
      <point x="260" y="292" type="line"/>
      <point x="257" y="337" type="line"/>
    </contour>
    <contour>
      <point x="-157" y="241" type="line"/>
      <point x="266" y="196" type="line"/>
      <point x="263" y="241" type="line"/>
    </contour>
    <contour>
      <point x="642" y="625" type="line"/>
      <point x="491" y="228" type="line"/>
      <point x="482" y="228" type="line" name="hr01"/>
      <point x="482" y="625" type="line"/>
      <point x="271" y="625" type="line"/>
      <point x="308" y="0" type="line"/>
      <point x="586" y="0" type="line"/>
      <point x="843" y="625" type="line"/>
    </contour>
  </outline>
</glyph>
<glyph name="W" format="1">
  <advance width="993"/>
  <unicode hex="0057"/>
  <outline>
    <contour>
      <point x="223" y="580" type="line" name="hr00"/>
      <point x="223" y="625" type="line"/>
      <point x="-170" y="625" type="line"/>
    </contour>
    <contour>
      <point x="223" y="484" type="line"/>
      <point x="223" y="529" type="line"/>
      <point x="-170" y="529" type="line"/>
    </contour>
    <contour>
      <point x="223" y="388" type="line"/>
      <point x="223" y="433" type="line"/>
      <point x="-170" y="433" type="line"/>
    </contour>
    <contour>
      <point x="223" y="292" type="line"/>
      <point x="223" y="337" type="line"/>
      <point x="-170" y="337" type="line"/>
    </contour>
    <contour>
      <point x="223" y="196" type="line"/>
      <point x="223" y="241" type="line"/>
      <point x="-170" y="241" type="line"/>
    </contour>
    <contour>
      <point x="223" y="100" type="line"/>
      <point x="223" y="145" type="line"/>
      <point x="-170" y="145" type="line"/>
    </contour>
    <contour>
      <point x="223" y="3" type="line"/>
      <point x="223" y="48" type="line"/>
      <point x="-170" y="48" type="line"/>
    </contour>
    <contour>
      <point x="834" y="625" type="line"/>
      <point x="727" y="276" type="line"/>
      <point x="721" y="276" type="line"/>
      <point x="721" y="625" type="line"/>
      <point x="570" y="625" type="line"/>
      <point x="440" y="276" type="line"/>
      <point x="434" y="276" type="line"/>
      <point x="452" y="625" type="line"/>
      <point x="253" y="625" type="line"/>
      <point x="253" y="0" type="line"/>
      <point x="484" y="0" type="line"/>
      <point x="567" y="230" type="line"/>
      <point x="578" y="230" type="line"/>
      <point x="578" y="0" type="line"/>
      <point x="830" y="0" type="line"/>
      <point x="1033" y="625" type="line"/>
    </contour>
  </outline>
</glyph>
<glyph name="X" format="1">
  <advance width="772"/>
  <unicode hex="0058"/>
  <outline>
    <contour>
      <point x="284" y="293" type="line" name="hr00"/>
      <point x="302" y="324" type="line"/>
      <point x="299" y="337" type="line"/>
      <point x="-127" y="337" type="line"/>
    </contour>
    <contour>
      <point x="-289" y="48" type="line"/>
      <point x="118" y="5" type="line"/>
      <point x="143" y="48" type="line"/>
    </contour>
    <contour>
      <point x="286" y="388" type="line"/>
      <point x="275" y="433" type="line"/>
      <point x="-137" y="433" type="line"/>
    </contour>
    <contour>
      <point x="229" y="198" type="line"/>
      <point x="254" y="241" type="line"/>
      <point x="-177" y="241" type="line"/>
    </contour>
    <contour>
      <point x="263" y="484" type="line"/>
      <point x="259" y="499"/>
      <point x="255" y="514"/>
      <point x="252" y="529" type="curve"/>
      <point x="-160" y="529" type="line"/>
    </contour>
    <contour>
      <point x="240" y="580" type="line"/>
      <point x="236" y="595"/>
      <point x="232" y="610"/>
      <point x="229" y="625" type="curve"/>
      <point x="-183" y="625" type="line"/>
    </contour>
    <contour>
      <point x="174" y="102" type="line"/>
      <point x="199" y="145" type="line"/>
      <point x="-232" y="145" type="line"/>
    </contour>
    <contour>
      <point x="476" y="625" type="line"/>
      <point x="260" y="625" type="line"/>
      <point x="334" y="317" type="line"/>
      <point x="150" y="0" type="line"/>
      <point x="351" y="0" type="line"/>
      <point x="453" y="180" type="line"/>
      <point x="461" y="180" type="line"/>
      <point x="501" y="0" type="line"/>
      <point x="712" y="0" type="line"/>
      <point x="636" y="323" type="line"/>
      <point x="822" y="625" type="line"/>
      <point x="616" y="625" type="line"/>
      <point x="521" y="458" type="line"/>
      <point x="511" y="458" type="line"/>
    </contour>
  </outline>
</glyph>
<glyph name="Y" format="1">
  <advance width="654"/>
  <unicode hex="0059"/>
  <outline>
    <contour>
      <point x="233" y="3" type="line" name="hr00"/>
      <point x="241" y="48" type="line"/>
      <point x="-190" y="48" type="line"/>
    </contour>
    <contour>
      <point x="250" y="100" type="line"/>
      <point x="257" y="145" type="line"/>
      <point x="-173" y="145" type="line"/>
    </contour>
    <contour>
      <point x="257" y="196" type="line"/>
      <point x="248" y="241" type="line"/>
      <point x="-167" y="241" type="line"/>
    </contour>
    <contour>
      <point x="238" y="292" type="line"/>
      <point x="229" y="337" type="line"/>
      <point x="-186" y="337" type="line"/>
    </contour>
    <contour>
      <point x="191" y="529" type="line"/>
      <point x="-223" y="529" type="line"/>
      <point x="200" y="484" type="line"/>
    </contour>
    <contour>
      <point x="210" y="433" type="line"/>
      <point x="-204" y="433" type="line"/>
      <point x="219" y="388" type="line"/>
    </contour>
    <contour>
      <point x="182" y="580" type="line"/>
      <point x="173" y="625" type="line"/>
      <point x="-241" y="625" type="line"/>
    </contour>
    <contour>
      <point x="413" y="625" type="line"/>
      <point x="203" y="625" type="line"/>
      <point x="293" y="170" type="line"/>
      <point x="264" y="0" type="line"/>
      <point x="454" y="0" type="line"/>
      <point x="483" y="170" type="line"/>
      <point x="735" y="625" type="line"/>
      <point x="525" y="625" type="line"/>
      <point x="433" y="405" type="line"/>
      <point x="426" y="405" type="line"/>
    </contour>
  </outline>
</glyph>
<glyph name="Z" format="1">
  <advance width="748"/>
  <unicode hex="005A"/>
  <outline>
    <contour>
      <point x="119" y="3" type="line"/>
      <point x="127" y="48" type="line"/>
      <point x="-563" y="48" type="line"/>
    </contour>
    <contour>
      <point x="136" y="100" type="line"/>
      <point x="144" y="145" type="line"/>
      <point x="-288" y="145" type="line"/>
    </contour>
    <contour>
      <point x="243" y="484" type="line"/>
      <point x="246" y="529" type="line"/>
      <point x="-181" y="529" type="line"/>
    </contour>
    <contour>
      <point x="250" y="580" type="line"/>
      <point x="253" y="625" type="line"/>
      <point x="-173" y="625" type="line"/>
    </contour>
    <contour>
      <point x="-109" y="337" type="line"/>
      <point x="285" y="295" type="line"/>
      <point x="323" y="337" type="line"/>
    </contour>
    <contour>
      <point x="-196" y="241" type="line" name="hr01"/>
      <point x="198" y="199" type="line"/>
      <point x="236" y="241" type="line"/>
    </contour>
    <contour>
      <point x="-23" y="433" type="line"/>
      <point x="371" y="391" type="line"/>
      <point x="409" y="433" type="line"/>
    </contour>
    <contour>
      <point x="662" y="0" type="line" name="hr02"/>
      <point x="690" y="160" type="line"/>
      <point x="448" y="160" type="line"/>
      <point x="447" y="166" type="line"/>
      <point x="746" y="500" type="line"/>
      <point x="768" y="625" type="line"/>
      <point x="283" y="625" type="line"/>
      <point x="272" y="465" type="line"/>
      <point x="471" y="465" type="line"/>
      <point x="473" y="459" type="line"/>
      <point x="172" y="125" type="line"/>
      <point x="150" y="0" type="line"/>
    </contour>
  </outline>
</glyph>
<glyph name="bracketleft" format="1">
  <advance width="557"/>
  <unicode hex="005B"/>
  <outline>
    <contour>
      <point x="209" y="29" type="line" smooth="yes"/>
      <point x="208" y="22" smooth="yes"/>
      <point x="207" y="16" smooth="yes"/>
      <point x="207" y="10" type="curve" smooth="yes"/>
      <point x="207" y="-72"/>
      <point x="313" y="-76"/>
      <point x="429" y="-76" type="curve"/>
      <point x="464" y="71" type="line"/>
      <point x="386" y="78" type="line"/>
      <point x="465" y="526" type="line"/>
      <point x="542" y="533"/>
      <point x="544" y="533"/>
      <point x="545" y="533" type="curve"/>
      <point x="562" y="680" type="line"/>
      <point x="437" y="680" smooth="yes"/>
      <point x="324" y="675" smooth="yes"/>
      <point x="306" y="575" type="curve" smooth="yes"/>
    </contour>
    <contour>
      <point x="177" y="3" type="line"/>
      <point x="177" y="18"/>
      <point x="178" y="33"/>
      <point x="182" y="48" type="curve"/>
      <point x="-250" y="48" type="line"/>
    </contour>
    <contour>
      <point x="208" y="196" type="line"/>
      <point x="216" y="241" type="line"/>
      <point x="-216" y="241" type="line"/>
    </contour>
    <contour>
      <point x="225" y="292" type="line"/>
      <point x="233" y="337" type="line"/>
      <point x="-199" y="337" type="line"/>
    </contour>
    <contour>
      <point x="242" y="388" type="line"/>
      <point x="250" y="433" type="line"/>
      <point x="-182" y="433" type="line"/>
    </contour>
    <contour>
      <point x="259" y="484" type="line"/>
      <point x="266" y="529" type="line"/>
      <point x="-165" y="529" type="line"/>
    </contour>
    <contour>
      <point x="191" y="100" type="line"/>
      <point x="199" y="145" type="line" name="hr01"/>
      <point x="-233" y="145" type="line"/>
    </contour>
    <contour>
      <point x="275" y="580" type="line"/>
      <point x="277" y="595"/>
      <point x="282" y="613"/>
      <point x="295" y="625" type="curve"/>
      <point x="-148" y="625" type="line"/>
    </contour>
  </outline>
</glyph>
<glyph name="backslash" format="1">
  <advance width="503"/>
  <unicode hex="005C"/>
  <outline>
    <contour>
      <point x="389" y="-15" type="line" smooth="yes" name="hr00"/>
      <point x="398" y="-31" smooth="yes"/>
      <point x="404" y="-40" smooth="yes"/>
      <point x="432" y="-40" type="curve" smooth="yes"/>
      <point x="503" y="-40" type="line"/>
      <point x="114" y="640" type="line" smooth="yes"/>
      <point x="105" y="656" smooth="yes"/>
      <point x="99" y="665" smooth="yes"/>
      <point x="71" y="665" type="curve" smooth="yes"/>
      <point x="0" y="665" type="line"/>
    </contour>
  </outline>
</glyph>
<glyph name="bracketright" format="1">
  <advance width="532"/>
  <unicode hex="005D"/>
  <outline>
    <contour>
      <point x="513" y="575" type="line" smooth="yes" name="hr00"/>
      <point x="514" y="582" smooth="yes"/>
      <point x="515" y="588" smooth="yes"/>
      <point x="515" y="594" type="curve" smooth="yes"/>
      <point x="515" y="676"/>
      <point x="409" y="680"/>
      <point x="293" y="680" type="curve"/>
      <point x="258" y="533" type="line"/>
      <point x="259" y="533"/>
      <point x="261" y="533"/>
      <point x="336" y="526" type="curve"/>
      <point x="257" y="78" type="line"/>
      <point x="177" y="71" type="line"/>
      <point x="160" y="-76" type="line"/>
      <point x="284" y="-76" smooth="yes"/>
      <point x="398" y="-71" smooth="yes"/>
      <point x="416" y="29" type="curve" smooth="yes"/>
    </contour>
    <contour>
      <point x="139" y="3" type="line"/>
      <point x="144" y="48" type="line"/>
      <point x="-210" y="48" type="line"/>
    </contour>
    <contour>
      <point x="247" y="196" type="line"/>
      <point x="255" y="241" type="line"/>
      <point x="-176" y="241" type="line"/>
    </contour>
    <contour>
      <point x="264" y="292" type="line"/>
      <point x="272" y="337" type="line"/>
      <point x="-159" y="337" type="line"/>
    </contour>
    <contour>
      <point x="280" y="388" type="line"/>
      <point x="288" y="433" type="line"/>
      <point x="-142" y="433" type="line"/>
    </contour>
    <contour>
      <point x="217" y="484" type="line"/>
      <point x="227" y="529" type="line"/>
      <point x="-125" y="529" type="line"/>
    </contour>
    <contour>
      <point x="230" y="100" type="line"/>
      <point x="238" y="145" type="line"/>
      <point x="-193" y="145" type="line"/>
    </contour>
    <contour>
      <point x="239" y="580" type="line"/>
      <point x="249" y="625" type="line"/>
      <point x="-108" y="625" type="line"/>
    </contour>
  </outline>
</glyph>
<glyph name="asciicircum" format="1">
  <advance width="600"/>
  <unicode hex="005E"/>
  <outline>
    <contour>
      <point x="528" y="262" type="line" name="hr00"/>
      <point x="438" y="587" type="line"/>
      <point x="265" y="587" type="line"/>
      <point x="62" y="262" type="line"/>
      <point x="181" y="218" type="line"/>
      <point x="323" y="442" type="line"/>
      <point x="329" y="442" type="line"/>
      <point x="392" y="218" type="line"/>
    </contour>
  </outline>
</glyph>
<glyph name="underscore" format="1">
  <advance width="406"/>
  <unicode hex="005F"/>
  <outline>
    <contour>
      <point x="-103" y="-135" type="line" name="hr00"/>
      <point x="-94" y="-81" type="line"/>
      <point x="-410" y="-81" type="line"/>
    </contour>
    <contour>
      <point x="-70" y="-135" type="line"/>
      <point x="282" y="-135" type="line" smooth="yes"/>
      <point x="320" y="-135" smooth="yes"/>
      <point x="347" y="-132" smooth="yes"/>
      <point x="354" y="-93" type="curve" smooth="yes"/>
      <point x="373" y="15" type="line"/>
      <point x="21" y="15" type="line" smooth="yes"/>
      <point x="-17" y="15" smooth="yes"/>
      <point x="-44" y="12" smooth="yes"/>
      <point x="-51" y="-27" type="curve" smooth="yes"/>
    </contour>
  </outline>
</glyph>
<glyph name="grave" format="1">
  <advance width="279"/>
  <unicode hex="0060"/>
  <outline>
    <contour>
      <point x="238" y="569" type="line" name="hr00"/>
      <point x="279" y="626" type="line"/>
      <point x="90" y="765" type="line" smooth="yes"/>
      <point x="87" y="767" smooth="yes"/>
      <point x="83" y="769" smooth="yes"/>
      <point x="79" y="769" type="curve" smooth="yes"/>
      <point x="72" y="769" smooth="yes"/>
      <point x="66" y="764" smooth="yes"/>
      <point x="61" y="758" type="curve" smooth="yes"/>
      <point x="-2" y="684" type="line" smooth="yes"/>
      <point x="-7" y="678" smooth="yes"/>
      <point x="-11" y="671" smooth="yes"/>
      <point x="-11" y="665" type="curve" smooth="yes"/>
      <point x="-11" y="662" smooth="yes"/>
      <point x="-10" y="658" smooth="yes"/>
      <point x="-7" y="655" type="curve" smooth="yes"/>
      <point x="38" y="616" type="line" smooth="yes"/>
      <point x="45" y="610" smooth="yes"/>
      <point x="49" y="607" smooth="yes"/>
      <point x="64" y="604" type="curve" smooth="yes"/>
    </contour>
    <contour>
      <point x="-37" y="684" type="line"/>
      <point x="-30" y="700"/>
      <point x="-18" y="710"/>
      <point x="-8" y="723" type="curve"/>
      <point x="-432" y="723" type="line"/>
    </contour>
    <contour>
      <point x="6" y="603" type="line"/>
      <point x="-21" y="626"/>
      <point x="-29" y="633"/>
      <point x="-35" y="642" type="curve"/>
      <point x="-402" y="642" type="line"/>
    </contour>
  </outline>
</glyph>
<glyph name="a" format="1">
  <advance width="758"/>
  <unicode hex="0061"/>
  <outline>
    <contour>
      <point x="526" y="0" type="line"/>
      <point x="701" y="0" type="line"/>
      <point x="662" y="529" type="line"/>
      <point x="414" y="529" type="line"/>
      <point x="192" y="0" type="line"/>
      <point x="365" y="0" type="line"/>
      <point x="396" y="81" type="line" name="hr01"/>
      <point x="522" y="81" type="line"/>
    </contour>
    <contour>
      <point x="508" y="376" type="line"/>
      <point x="522" y="376" type="line"/>
      <point x="522" y="224" type="line" name="hr03"/>
      <point x="449" y="224" type="line"/>
    </contour>
    <contour>
      <point x="160" y="4" type="line"/>
      <point x="179" y="48" type="line"/>
      <point x="-250" y="48" type="line"/>
    </contour>
    <contour>
      <point x="201" y="101" type="line"/>
      <point x="220" y="145" type="line" name="hr04"/>
      <point x="-209" y="145" type="line"/>
    </contour>
    <contour>
      <point x="242" y="197" type="line"/>
      <point x="260" y="241" type="line"/>
      <point x="-168" y="241" type="line"/>
    </contour>
    <contour>
      <point x="282" y="293" type="line"/>
      <point x="301" y="337" type="line"/>
      <point x="-127" y="337" type="line"/>
    </contour>
    <contour>
      <point x="323" y="389" type="line"/>
      <point x="341" y="433" type="line"/>
      <point x="-86" y="433" type="line"/>
    </contour>
    <contour>
      <point x="363" y="486" type="line"/>
      <point x="381" y="529" type="line"/>
      <point x="-45" y="529" type="line"/>
    </contour>
  </outline>
</glyph>
<glyph name="b" format="1">
  <advance width="714"/>
  <unicode hex="0062"/>
  <outline>
    <contour>
      <point x="204" y="0" type="line"/>
      <point x="470" y="0" type="line" smooth="yes"/>
      <point x="602" y="0" smooth="yes"/>
      <point x="661" y="73" smooth="yes"/>
      <point x="661" y="186" type="curve" smooth="yes"/>
      <point x="661" y="228"/>
      <point x="642" y="262"/>
      <point x="595" y="277" type="curve"/>
      <point x="596" y="283" type="line"/>
      <point x="641" y="304" smooth="yes"/>
      <point x="680" y="363" smooth="yes"/>
      <point x="680" y="435" type="curve" smooth="yes" name="hr01"/>
      <point x="680" y="492" smooth="yes"/>
      <point x="648" y="529" smooth="yes"/>
      <point x="566" y="529" type="curve" smooth="yes"/>
      <point x="296" y="529" type="line"/>
    </contour>
    <contour>
      <point x="470" y="205" type="line" smooth="yes"/>
      <point x="487" y="205" smooth="yes"/>
      <point x="492" y="196" smooth="yes"/>
      <point x="492" y="182" type="curve" smooth="yes" name="hr02"/>
      <point x="492" y="156" smooth="yes"/>
      <point x="484" y="131" smooth="yes"/>
      <point x="457" y="131" type="curve" smooth="yes"/>
      <point x="395" y="131" type="line"/>
      <point x="408" y="205" type="line"/>
    </contour>
    <contour>
      <point x="496" y="402" type="line" smooth="yes"/>
      <point x="512" y="402" smooth="yes"/>
      <point x="516" y="394" smooth="yes"/>
      <point x="516" y="382" type="curve" smooth="yes" name="hr03"/>
      <point x="516" y="360" smooth="yes"/>
      <point x="508" y="338" smooth="yes"/>
      <point x="486" y="338" type="curve" smooth="yes"/>
      <point x="431" y="338" type="line"/>
      <point x="442" y="402" type="line"/>
    </contour>
    <contour>
      <point x="172" y="3" type="line"/>
      <point x="180" y="48" type="line"/>
      <point x="-252" y="48" type="line"/>
    </contour>
    <contour>
      <point x="206" y="196" type="line"/>
      <point x="214" y="241" type="line"/>
      <point x="-218" y="241" type="line"/>
    </contour>
    <contour>
      <point x="223" y="292" type="line"/>
      <point x="231" y="337" type="line"/>
      <point x="-201" y="337" type="line"/>
    </contour>
    <contour>
      <point x="240" y="388" type="line"/>
      <point x="248" y="433" type="line"/>
      <point x="-184" y="433" type="line"/>
    </contour>
    <contour>
      <point x="257" y="484" type="line"/>
      <point x="264" y="529" type="line"/>
      <point x="-167" y="529" type="line"/>
    </contour>
    <contour>
      <point x="189" y="100" type="line"/>
      <point x="197" y="145" type="line"/>
      <point x="-235" y="145" type="line"/>
    </contour>
  </outline>
</glyph>
<glyph name="c" format="1">
  <advance width="620"/>
  <unicode hex="0063"/>
  <outline>
    <contour>
      <point x="555" y="161" type="line"/>
      <point x="517" y="147" smooth="yes"/>
      <point x="468" y="139" smooth="yes"/>
      <point x="426" y="139" type="curve" smooth="yes"/>
      <point x="409" y="139"/>
      <point x="392" y="139"/>
      <point x="371" y="144" type="curve"/>
      <point x="410" y="358" type="line" smooth="yes"/>
      <point x="415" y="386" smooth="yes"/>
      <point x="437" y="392" smooth="yes"/>
      <point x="484" y="392" type="curve" smooth="yes"/>
      <point x="504" y="392"/>
      <point x="543" y="388"/>
      <point x="579" y="378" type="curve"/>
      <point x="630" y="517" type="line"/>
      <point x="604" y="533" smooth="yes"/>
      <point x="535" y="539" smooth="yes"/>
      <point x="497" y="539" type="curve" smooth="yes"/>
      <point x="309" y="539" smooth="yes"/>
      <point x="246" y="447" smooth="yes"/>
      <point x="214" y="264" type="curve" smooth="yes"/>
      <point x="207" y="224" smooth="yes"/>
      <point x="202" y="187" smooth="yes"/>
      <point x="202" y="156" type="curve" smooth="yes"/>
      <point x="202" y="44" smooth="yes"/>
      <point x="253" y="-12" smooth="yes"/>
      <point x="400" y="-12" type="curve" smooth="yes"/>
      <point x="455" y="-12"/>
      <point x="497" y="-7"/>
      <point x="539" y="11" type="curve"/>
    </contour>
    <contour>
      <point x="179" y="241" type="curve"/>
      <point x="-220" y="241" type="line"/>
      <point x="174" y="199" type="line"/>
      <point x="175" y="212"/>
      <point x="177" y="226"/>
    </contour>
    <contour>
      <point x="198" y="337" type="line"/>
      <point x="-202" y="337" type="line"/>
      <point x="189" y="295" type="line"/>
    </contour>
    <contour>
      <point x="173" y="145" type="curve"/>
      <point x="-216" y="145" type="line"/>
      <point x="177" y="103" type="line"/>
      <point x="175" y="116"/>
      <point x="173" y="130"/>
    </contour>
    <contour>
      <point x="233" y="433" type="curve"/>
      <point x="-162" y="433" type="line"/>
      <point x="216" y="393" type="line"/>
      <point x="221" y="407"/>
      <point x="227" y="420"/>
    </contour>
    <contour>
      <point x="194" y="48" type="curve" name="hr01"/>
      <point x="-129" y="48" type="line"/>
      <point x="220" y="11" type="line"/>
      <point x="209" y="21"/>
      <point x="201" y="34"/>
    </contour>
    <contour>
      <point x="320" y="529" type="curve"/>
      <point x="-28" y="529" type="line"/>
      <point x="279" y="496" type="line"/>
      <point x="291" y="509"/>
      <point x="305" y="520"/>
    </contour>
  </outline>
</glyph>
<glyph name="d" format="1">
  <advance width="775"/>
  <unicode hex="0064"/>
  <outline>
    <contour>
      <point x="204" y="0" type="line" name="hr00"/>
      <point x="428" y="0" type="line" smooth="yes"/>
      <point x="616" y="0" smooth="yes"/>
      <point x="681" y="81" smooth="yes"/>
      <point x="713" y="264" type="curve" smooth="yes"/>
      <point x="720" y="302" smooth="yes"/>
      <point x="724" y="336" smooth="yes"/>
      <point x="724" y="365" type="curve" smooth="yes"/>
      <point x="724" y="478" smooth="yes"/>
      <point x="669" y="529" smooth="yes"/>
      <point x="521" y="529" type="curve" smooth="yes"/>
      <point x="296" y="529" type="line"/>
    </contour>
    <contour>
      <point x="497" y="383" type="line" smooth="yes"/>
      <point x="528" y="383" smooth="yes"/>
      <point x="549" y="380" smooth="yes"/>
      <point x="549" y="357" type="curve" smooth="yes"/>
      <point x="549" y="354" smooth="yes"/>
      <point x="549" y="350" smooth="yes"/>
      <point x="548" y="346" type="curve" smooth="yes"/>
      <point x="519" y="181" type="line" smooth="yes"/>
      <point x="513" y="147" smooth="yes"/>
      <point x="489" y="143" smooth="yes"/>
      <point x="455" y="143" type="curve" smooth="yes"/>
      <point x="397" y="143" type="line"/>
      <point x="439" y="383" type="line"/>
    </contour>
    <contour>
      <point x="171" y="3" type="line"/>
      <point x="179" y="48" type="line"/>
      <point x="-253" y="48" type="line"/>
    </contour>
    <contour>
      <point x="205" y="196" type="line"/>
      <point x="213" y="241" type="line"/>
      <point x="-219" y="241" type="line"/>
    </contour>
    <contour>
      <point x="222" y="292" type="line"/>
      <point x="230" y="337" type="line"/>
      <point x="-202" y="337" type="line"/>
    </contour>
    <contour>
      <point x="239" y="388" type="line"/>
      <point x="247" y="433" type="line"/>
      <point x="-185" y="433" type="line"/>
    </contour>
    <contour>
      <point x="256" y="484" type="line"/>
      <point x="263" y="529" type="line"/>
      <point x="-168" y="529" type="line"/>
    </contour>
    <contour>
      <point x="188" y="100" type="line"/>
      <point x="196" y="145" type="line"/>
      <point x="-236" y="145" type="line"/>
    </contour>
  </outline>
</glyph>
<glyph name="e" format="1">
  <advance width="656"/>
  <unicode hex="0065"/>
  <outline>
    <contour>
      <point x="559" y="215" type="line" name="hr00"/>
      <point x="576" y="311" type="line"/>
      <point x="426" y="311" type="line"/>
      <point x="438" y="379" type="line"/>
      <point x="601" y="379" type="line"/>
      <point x="648" y="529" type="line"/>
      <point x="296" y="529" type="line"/>
      <point x="204" y="0" type="line"/>
      <point x="557" y="0" type="line"/>
      <point x="583" y="147" type="line"/>
      <point x="398" y="147" type="line"/>
      <point x="410" y="215" type="line"/>
    </contour>
    <contour>
      <point x="171" y="3" type="line"/>
      <point x="179" y="48" type="line"/>
      <point x="-253" y="48" type="line"/>
    </contour>
    <contour>
      <point x="205" y="196" type="line"/>
      <point x="213" y="241" type="line"/>
      <point x="-219" y="241" type="line"/>
    </contour>
    <contour>
      <point x="222" y="292" type="line"/>
      <point x="230" y="337" type="line"/>
      <point x="-202" y="337" type="line"/>
    </contour>
    <contour>
      <point x="239" y="388" type="line"/>
      <point x="247" y="433" type="line"/>
      <point x="-185" y="433" type="line"/>
    </contour>
    <contour>
      <point x="256" y="484" type="line"/>
      <point x="263" y="529" type="line"/>
      <point x="-168" y="529" type="line"/>
    </contour>
    <contour>
      <point x="188" y="100" type="line"/>
      <point x="196" y="145" type="line"/>
      <point x="-236" y="145" type="line"/>
    </contour>
  </outline>
</glyph>
<glyph name="f" format="1">
  <advance width="591"/>
  <unicode hex="0066"/>
  <outline>
    <contour>
      <point x="538" y="192" type="line" name="hr00"/>
      <point x="558" y="311" type="line"/>
      <point x="426" y="311" type="line"/>
      <point x="438" y="379" type="line"/>
      <point x="583" y="379" type="line"/>
      <point x="629" y="529" type="line"/>
      <point x="296" y="529" type="line"/>
      <point x="204" y="0" type="line"/>
      <point x="372" y="0" type="line"/>
      <point x="406" y="192" type="line"/>
    </contour>
    <contour>
      <point x="172" y="3" type="line"/>
      <point x="180" y="48" type="line"/>
      <point x="-252" y="48" type="line"/>
    </contour>
    <contour>
      <point x="206" y="196" type="line"/>
      <point x="214" y="241" type="line"/>
      <point x="-218" y="241" type="line"/>
    </contour>
    <contour>
      <point x="223" y="292" type="line"/>
      <point x="231" y="337" type="line"/>
      <point x="-201" y="337" type="line"/>
    </contour>
    <contour>
      <point x="240" y="388" type="line"/>
      <point x="248" y="433" type="line"/>
      <point x="-184" y="433" type="line"/>
    </contour>
    <contour>
      <point x="257" y="484" type="line"/>
      <point x="264" y="529" type="line"/>
      <point x="-167" y="529" type="line"/>
    </contour>
    <contour>
      <point x="189" y="100" type="line"/>
      <point x="197" y="145" type="line"/>
      <point x="-235" y="145" type="line"/>
    </contour>
  </outline>
</glyph>
<glyph name="g" format="1">
  <advance width="696"/>
  <unicode hex="0067"/>
  <outline>
    <contour>
      <point x="467" y="158" type="line" smooth="yes"/>
      <point x="462" y="131" smooth="yes"/>
      <point x="440" y="128" smooth="yes"/>
      <point x="412" y="128" type="curve" smooth="yes"/>
      <point x="366" y="128" type="line"/>
      <point x="408" y="358" type="line" smooth="yes"/>
      <point x="413" y="386" smooth="yes"/>
      <point x="442" y="392" smooth="yes"/>
      <point x="499" y="392" type="curve" smooth="yes"/>
      <point x="525" y="392"/>
      <point x="573" y="388"/>
      <point x="618" y="378" type="curve"/>
      <point x="669" y="517" type="line"/>
      <point x="637" y="533" smooth="yes"/>
      <point x="556" y="539" smooth="yes"/>
      <point x="513" y="539" type="curve" smooth="yes"/>
      <point x="307" y="539" smooth="yes"/>
      <point x="244" y="447" smooth="yes"/>
      <point x="212" y="264" type="curve" smooth="yes"/>
      <point x="205" y="224" smooth="yes"/>
      <point x="201" y="188" smooth="yes"/>
      <point x="201" y="158" type="curve" smooth="yes"/>
      <point x="201" y="45" smooth="yes"/>
      <point x="252" y="-12" smooth="yes"/>
      <point x="398" y="-12" type="curve" smooth="yes"/>
      <point x="454" y="-12"/>
      <point x="531" y="-1"/>
      <point x="605" y="28" type="curve"/>
      <point x="655" y="311" type="line"/>
      <point x="453" y="311" type="line"/>
      <point x="433" y="197" type="line"/>
      <point x="474" y="197" type="line"/>
    </contour>
    <contour>
      <point x="177" y="241" type="curve"/>
      <point x="-222" y="241" type="line"/>
      <point x="172" y="199" type="line"/>
      <point x="173" y="212"/>
      <point x="175" y="226"/>
    </contour>
    <contour>
      <point x="196" y="337" type="line"/>
      <point x="-204" y="337" type="line"/>
      <point x="187" y="295" type="line"/>
    </contour>
    <contour>
      <point x="171" y="145" type="curve" name="hr01"/>
      <point x="-218" y="145" type="line"/>
      <point x="175" y="103" type="line"/>
      <point x="173" y="116"/>
      <point x="171" y="130"/>
    </contour>
    <contour>
      <point x="231" y="433" type="curve"/>
      <point x="-164" y="433" type="line"/>
      <point x="214" y="393" type="line"/>
      <point x="219" y="407"/>
      <point x="225" y="420"/>
    </contour>
    <contour>
      <point x="192" y="48" type="curve" name="hr02"/>
      <point x="-131" y="48" type="line"/>
      <point x="218" y="11" type="line"/>
      <point x="207" y="21"/>
      <point x="199" y="34"/>
    </contour>
    <contour>
      <point x="318" y="529" type="curve"/>
      <point x="-30" y="529" type="line"/>
      <point x="277" y="496" type="line"/>
      <point x="289" y="509"/>
      <point x="303" y="520"/>
    </contour>
  </outline>
</glyph>
<glyph name="h" format="1">
  <advance width="772"/>
  <unicode hex="0068"/>
  <outline>
    <contour>
      <point x="485" y="0" type="line" name="hr00"/>
      <point x="653" y="0" type="line"/>
      <point x="746" y="529" type="line"/>
      <point x="577" y="529" type="line"/>
      <point x="545" y="346" type="line"/>
      <point x="432" y="346" type="line"/>
      <point x="465" y="529" type="line"/>
      <point x="296" y="529" type="line"/>
      <point x="204" y="0" type="line"/>
      <point x="372" y="0" type="line"/>
      <point x="404" y="183" type="line"/>
      <point x="516" y="183" type="line"/>
    </contour>
    <contour>
      <point x="171" y="3" type="line"/>
      <point x="179" y="48" type="line"/>
      <point x="-253" y="48" type="line"/>
    </contour>
    <contour>
      <point x="205" y="196" type="line"/>
      <point x="213" y="241" type="line"/>
      <point x="-219" y="241" type="line"/>
    </contour>
    <contour>
      <point x="222" y="292" type="line"/>
      <point x="230" y="337" type="line"/>
      <point x="-202" y="337" type="line"/>
    </contour>
    <contour>
      <point x="239" y="388" type="line"/>
      <point x="247" y="433" type="line"/>
      <point x="-185" y="433" type="line"/>
    </contour>
    <contour>
      <point x="256" y="484" type="line"/>
      <point x="263" y="529" type="line"/>
      <point x="-168" y="529" type="line"/>
    </contour>
    <contour>
      <point x="188" y="100" type="line"/>
      <point x="196" y="145" type="line"/>
      <point x="-236" y="145" type="line"/>
    </contour>
  </outline>
</glyph>
<glyph name="k" format="1">
  <advance width="697"/>
  <unicode hex="006B"/>
  <outline>
    <contour>
      <point x="455" y="0" type="line" name="hr00"/>
      <point x="638" y="0" type="line"/>
      <point x="559" y="270" type="line"/>
      <point x="727" y="529" type="line"/>
      <point x="544" y="529" type="line"/>
      <point x="441" y="367" type="line"/>
      <point x="436" y="367" type="line"/>
      <point x="465" y="529" type="line"/>
      <point x="296" y="529" type="line"/>
      <point x="204" y="0" type="line"/>
      <point x="372" y="0" type="line"/>
      <point x="402" y="173" type="line"/>
      <point x="408" y="173" type="line"/>
    </contour>
    <contour>
      <point x="171" y="3" type="line"/>
      <point x="179" y="48" type="line"/>
      <point x="-253" y="48" type="line"/>
    </contour>
    <contour>
      <point x="205" y="196" type="line"/>
      <point x="213" y="241" type="line"/>
      <point x="-219" y="241" type="line"/>
    </contour>
    <contour>
      <point x="222" y="292" type="line"/>
      <point x="230" y="337" type="line"/>
      <point x="-202" y="337" type="line"/>
    </contour>
    <contour>
      <point x="239" y="388" type="line"/>
      <point x="247" y="433" type="line"/>
      <point x="-185" y="433" type="line"/>
    </contour>
    <contour>
      <point x="256" y="484" type="line"/>
      <point x="263" y="529" type="line"/>
      <point x="-168" y="529" type="line"/>
    </contour>
    <contour>
      <point x="188" y="100" type="line"/>
      <point x="196" y="145" type="line"/>
      <point x="-236" y="145" type="line"/>
    </contour>
  </outline>
</glyph>
<glyph name="m" format="1">
  <advance width="901"/>
  <unicode hex="006D"/>
  <outline>
    <contour>
      <point x="575" y="0" type="line" name="hr00"/>
      <point x="665" y="215" type="line"/>
      <point x="670" y="215" type="line"/>
      <point x="643" y="0" type="line"/>
      <point x="815" y="0" type="line"/>
      <point x="879" y="529" type="line"/>
      <point x="662" y="529" type="line"/>
      <point x="561" y="281" type="line"/>
      <point x="557" y="281" type="line"/>
      <point x="542" y="529" type="line"/>
      <point x="325" y="529" type="line"/>
      <point x="204" y="0" type="line"/>
      <point x="375" y="0" type="line"/>
      <point x="423" y="215" type="line"/>
      <point x="428" y="215" type="line"/>
      <point x="443" y="0" type="line"/>
    </contour>
    <contour>
      <point x="171" y="3" type="line"/>
      <point x="181" y="48" type="line"/>
      <point x="-253" y="48" type="line"/>
    </contour>
    <contour>
      <point x="193" y="100" type="line"/>
      <point x="204" y="145" type="line"/>
      <point x="-230" y="145" type="line"/>
    </contour>
    <contour>
      <point x="216" y="196" type="line"/>
      <point x="226" y="241" type="line"/>
      <point x="-207" y="241" type="line"/>
    </contour>
    <contour>
      <point x="236" y="292" type="line"/>
      <point x="247" y="337" type="line"/>
      <point x="-184" y="337" type="line"/>
    </contour>
    <contour>
      <point x="259" y="388" type="line"/>
      <point x="269" y="433" type="line"/>
      <point x="-161" y="433" type="line"/>
    </contour>
    <contour>
      <point x="281" y="484" type="line"/>
      <point x="292" y="529" type="line"/>
      <point x="-138" y="529" type="line"/>
    </contour>
  </outline>
</glyph>
<glyph name="n" format="1">
  <advance width="769"/>
  <unicode hex="006E"/>
  <outline>
    <contour>
      <point x="514" y="0" type="line" name="hr00"/>
      <point x="650" y="0" type="line"/>
      <point x="743" y="529" type="line"/>
      <point x="576" y="529" type="line"/>
      <point x="542" y="332" type="line"/>
      <point x="536" y="332" type="line"/>
      <point x="432" y="529" type="line"/>
      <point x="296" y="529" type="line"/>
      <point x="204" y="0" type="line"/>
      <point x="372" y="0" type="line"/>
      <point x="407" y="198" type="line"/>
      <point x="411" y="198" type="line"/>
    </contour>
    <contour>
      <point x="171" y="3" type="line"/>
      <point x="179" y="48" type="line"/>
      <point x="-253" y="48" type="line"/>
    </contour>
    <contour>
      <point x="205" y="196" type="line"/>
      <point x="213" y="241" type="line"/>
      <point x="-219" y="241" type="line"/>
    </contour>
    <contour>
      <point x="222" y="292" type="line"/>
      <point x="230" y="337" type="line"/>
      <point x="-202" y="337" type="line"/>
    </contour>
    <contour>
      <point x="239" y="388" type="line"/>
      <point x="247" y="433" type="line"/>
      <point x="-185" y="433" type="line"/>
    </contour>
    <contour>
      <point x="256" y="484" type="line"/>
      <point x="263" y="529" type="line"/>
      <point x="-168" y="529" type="line"/>
    </contour>
    <contour>
      <point x="188" y="100" type="line"/>
      <point x="196" y="145" type="line"/>
      <point x="-236" y="145" type="line"/>
    </contour>
  </outline>
</glyph>
<glyph name="q" format="1">
  <advance width="733"/>
  <unicode hex="0071"/>
  <outline>
    <contour>
      <point x="612" y="95" type="line" name="hr00"/>
      <point x="643" y="131" smooth="yes"/>
      <point x="696" y="216" smooth="yes"/>
      <point x="696" y="368" type="curve" smooth="yes"/>
      <point x="696" y="482" smooth="yes"/>
      <point x="643" y="539" smooth="yes"/>
      <point x="496" y="539" type="curve" smooth="yes"/>
      <point x="312" y="539" smooth="yes"/>
      <point x="245" y="447" smooth="yes"/>
      <point x="213" y="264" type="curve" smooth="yes"/>
      <point x="206" y="223" smooth="yes"/>
      <point x="202" y="186" smooth="yes"/>
      <point x="202" y="155" type="curve" smooth="yes"/>
      <point x="202" y="48"/>
      <point x="249" y="1"/>
      <point x="371" y="1" type="curve"/>
      <point x="446" y="26" type="line"/>
      <point x="440" y="-10" type="line"/>
      <point x="596" y="-42" type="line"/>
      <point x="656" y="63" type="line"/>
    </contour>
    <contour>
      <point x="406" y="350" type="line" smooth="yes"/>
      <point x="411" y="383" smooth="yes"/>
      <point x="436" y="387" smooth="yes"/>
      <point x="468" y="387" type="curve" smooth="yes"/>
      <point x="529" y="387" type="line"/>
      <point x="491" y="178" type="line" smooth="yes"/>
      <point x="484" y="143" smooth="yes"/>
      <point x="462" y="140" smooth="yes"/>
      <point x="428" y="140" type="curve" smooth="yes"/>
      <point x="369" y="140" type="line"/>
    </contour>
    <contour>
      <point x="178" y="241" type="curve"/>
      <point x="-221" y="241" type="line"/>
      <point x="173" y="199" type="line"/>
      <point x="174" y="212"/>
      <point x="176" y="226"/>
    </contour>
    <contour>
      <point x="197" y="337" type="line"/>
      <point x="-203" y="337" type="line"/>
      <point x="188" y="295" type="line"/>
    </contour>
    <contour>
      <point x="172" y="145" type="curve"/>
      <point x="-217" y="145" type="line"/>
      <point x="176" y="103" type="line"/>
      <point x="174" y="116"/>
      <point x="172" y="130"/>
    </contour>
    <contour>
      <point x="232" y="433" type="curve"/>
      <point x="-163" y="433" type="line"/>
      <point x="215" y="393" type="line"/>
      <point x="220" y="407"/>
      <point x="226" y="420"/>
    </contour>
    <contour>
      <point x="193" y="48" type="curve"/>
      <point x="-130" y="48" type="line"/>
      <point x="219" y="11" type="line"/>
      <point x="208" y="21"/>
      <point x="200" y="34"/>
    </contour>
    <contour>
      <point x="319" y="529" type="curve"/>
      <point x="-29" y="529" type="line"/>
      <point x="278" y="496" type="line"/>
      <point x="290" y="509"/>
      <point x="304" y="520"/>
    </contour>
  </outline>
</glyph>
<glyph name="r" format="1">
  <advance width="721"/>
  <unicode hex="0072"/>
  <outline>
    <contour>
      <point x="648" y="0" type="line" name="hr00"/>
      <point x="591" y="176" type="line"/>
      <point x="676" y="224" smooth="yes"/>
      <point x="696" y="336" smooth="yes"/>
      <point x="696" y="397" type="curve" smooth="yes"/>
      <point x="696" y="473" smooth="yes"/>
      <point x="661" y="529" smooth="yes"/>
      <point x="550" y="529" type="curve" smooth="yes"/>
      <point x="296" y="529" type="line"/>
      <point x="204" y="0" type="line"/>
      <point x="372" y="0" type="line"/>
      <point x="399" y="154" type="line"/>
      <point x="423" y="154" type="line"/>
      <point x="461" y="0" type="line"/>
    </contour>
    <contour>
      <point x="439" y="383" type="line"/>
      <point x="461" y="383" type="line" smooth="yes"/>
      <point x="493" y="383" smooth="yes"/>
      <point x="514" y="381" smooth="yes"/>
      <point x="514" y="362" type="curve" smooth="yes"/>
      <point x="514" y="361" smooth="yes"/>
      <point x="513" y="358" smooth="yes"/>
      <point x="513" y="356" type="curve" smooth="yes"/>
      <point x="507" y="321" type="line" smooth="yes"/>
      <point x="502" y="295" smooth="yes"/>
      <point x="481" y="291" smooth="yes"/>
      <point x="455" y="291" type="curve" smooth="yes"/>
      <point x="423" y="291" type="line"/>
    </contour>
    <contour>
      <point x="171" y="3" type="line"/>
      <point x="179" y="48" type="line"/>
      <point x="-253" y="48" type="line"/>
    </contour>
    <contour>
      <point x="205" y="196" type="line"/>
      <point x="213" y="241" type="line"/>
      <point x="-219" y="241" type="line"/>
    </contour>
    <contour>
      <point x="222" y="292" type="line"/>
      <point x="230" y="337" type="line"/>
      <point x="-202" y="337" type="line"/>
    </contour>
    <contour>
      <point x="239" y="388" type="line"/>
      <point x="247" y="433" type="line"/>
      <point x="-185" y="433" type="line"/>
    </contour>
    <contour>
      <point x="256" y="484" type="line"/>
      <point x="263" y="529" type="line"/>
      <point x="-168" y="529" type="line"/>
    </contour>
    <contour>
      <point x="188" y="100" type="line"/>
      <point x="196" y="145" type="line"/>
      <point x="-236" y="145" type="line"/>
    </contour>
  </outline>
</glyph>
<glyph name="s" format="1">
  <advance width="718"/>
  <unicode hex="0073"/>
  <outline>
    <contour>
      <point x="-238" y="48" type="line"/>
      <point x="180" y="3" type="line"/>
      <point x="194" y="48" type="line"/>
    </contour>
    <contour>
      <point x="270" y="433" type="curve"/>
      <point x="-161" y="433" type="line"/>
      <point x="257" y="388" type="line"/>
      <point x="261" y="404"/>
      <point x="265" y="419"/>
    </contour>
    <contour>
      <point x="245" y="292" type="line"/>
      <point x="245" y="300" type="line" smooth="yes"/>
      <point x="245" y="312"/>
      <point x="246" y="325"/>
      <point x="247" y="337" type="curve"/>
      <point x="-179" y="337" type="line"/>
    </contour>
    <contour>
      <point x="212" y="101" type="line"/>
      <point x="226" y="145" type="line"/>
      <point x="-205" y="145" type="line"/>
    </contour>
    <contour>
      <point x="339" y="529" type="curve"/>
      <point x="-92" y="529" type="line"/>
      <point x="298" y="487" type="line"/>
      <point x="309" y="504"/>
      <point x="323" y="517"/>
    </contour>
    <contour>
      <point x="254" y="241" type="curve"/>
      <point x="-140" y="241" type="line"/>
      <point x="283" y="196" type="line"/>
      <point x="270" y="208"/>
      <point x="260" y="223"/>
    </contour>
    <contour>
      <point x="701" y="518" type="line"/>
      <point x="645" y="532" smooth="yes"/>
      <point x="584" y="539" smooth="yes"/>
      <point x="522" y="539" type="curve" smooth="yes" name="hr01"/>
      <point x="364" y="539" smooth="yes"/>
      <point x="306" y="493" smooth="yes"/>
      <point x="280" y="350" type="curve" smooth="yes"/>
      <point x="277" y="332" smooth="yes"/>
      <point x="275" y="315" smooth="yes"/>
      <point x="275" y="300" type="curve" smooth="yes"/>
      <point x="275" y="230" smooth="yes"/>
      <point x="313" y="191" smooth="yes"/>
      <point x="424" y="179" type="curve" smooth="yes"/>
      <point x="487" y="172" type="line"/>
      <point x="482" y="140" type="line"/>
      <point x="458" y="137" smooth="yes"/>
      <point x="437" y="137" smooth="yes"/>
      <point x="413" y="137" type="curve" smooth="yes"/>
      <point x="365" y="137"/>
      <point x="316" y="144"/>
      <point x="263" y="159" type="curve"/>
      <point x="214" y="11" type="line"/>
      <point x="277" y="-6" smooth="yes"/>
      <point x="342" y="-12" smooth="yes"/>
      <point x="405" y="-12" type="curve" smooth="yes"/>
      <point x="520" y="-12" smooth="yes"/>
      <point x="636" y="-7" smooth="yes"/>
      <point x="668" y="178" type="curve" smooth="yes"/>
      <point x="670" y="191" smooth="yes"/>
      <point x="672" y="205" smooth="yes"/>
      <point x="672" y="217" type="curve" smooth="yes"/>
      <point x="672" y="287" smooth="yes"/>
      <point x="628" y="335" smooth="yes"/>
      <point x="511" y="350" type="curve" smooth="yes"/>
      <point x="461" y="356" type="line"/>
      <point x="466" y="385" type="line"/>
      <point x="489" y="388" smooth="yes"/>
      <point x="501" y="388" smooth="yes"/>
      <point x="526" y="388" type="curve" smooth="yes" name="hr02"/>
      <point x="571" y="388"/>
      <point x="606" y="383"/>
      <point x="653" y="372" type="curve"/>
    </contour>
  </outline>
</glyph>
<glyph name="t" format="1">
  <advance width="623"/>
  <unicode hex="0074"/>
  <outline>
    <contour>
      <point x="627" y="379" type="line" name="hr00"/>
      <point x="654" y="529" type="line"/>
      <point x="259" y="529" type="line"/>
      <point x="232" y="379" type="line"/>
      <point x="343" y="379" type="line"/>
      <point x="277" y="0" type="line"/>
      <point x="453" y="0" type="line"/>
      <point x="519" y="379" type="line"/>
    </contour>
    <contour>
      <point x="247" y="3" type="line"/>
      <point x="255" y="48" type="line"/>
      <point x="-177" y="48" type="line"/>
    </contour>
    <contour>
      <point x="281" y="196" type="line"/>
      <point x="289" y="241" type="line"/>
      <point x="-143" y="241" type="line"/>
    </contour>
    <contour>
      <point x="298" y="292" type="line"/>
      <point x="306" y="337" type="line"/>
      <point x="-126" y="337" type="line"/>
    </contour>
    <contour>
      <point x="202" y="388" type="line"/>
      <point x="210" y="433" type="line"/>
      <point x="-222" y="433" type="line"/>
    </contour>
    <contour>
      <point x="219" y="484" type="line"/>
      <point x="226" y="529" type="line"/>
      <point x="-205" y="529" type="line"/>
    </contour>
    <contour>
      <point x="264" y="100" type="line"/>
      <point x="272" y="145" type="line"/>
      <point x="-160" y="145" type="line"/>
    </contour>
  </outline>
</glyph>
<glyph name="u" format="1">
  <advance width="727"/>
  <unicode hex="0075"/>
  <outline>
    <contour>
      <point x="205" y="196" type="line"/>
      <point x="213" y="241" type="line"/>
      <point x="-219" y="241" type="line"/>
    </contour>
    <contour>
      <point x="222" y="292" type="line"/>
      <point x="230" y="337" type="line"/>
      <point x="-202" y="337" type="line"/>
    </contour>
    <contour>
      <point x="239" y="388" type="line"/>
      <point x="247" y="433" type="line"/>
      <point x="-185" y="433" type="line"/>
    </contour>
    <contour>
      <point x="256" y="484" type="line"/>
      <point x="263" y="529" type="line"/>
      <point x="-168" y="529" type="line"/>
    </contour>
    <contour>
      <point x="202" y="100" type="line"/>
      <point x="201" y="108" smooth="yes"/>
      <point x="201" y="116" smooth="yes"/>
      <point x="201" y="125" type="curve" smooth="yes"/>
      <point x="201" y="145" type="line"/>
      <point x="-222" y="145" type="line"/>
    </contour>
    <contour>
      <point x="240" y="3" type="line"/>
      <point x="227" y="15"/>
      <point x="218" y="30"/>
      <point x="211" y="48" type="curve" name="hr01"/>
      <point x="-184" y="48" type="line"/>
    </contour>
    <contour>
      <point x="463" y="529" type="line"/>
      <point x="295" y="529" type="line"/>
      <point x="242" y="231" type="line" smooth="yes"/>
      <point x="235" y="190" smooth="yes"/>
      <point x="231" y="155" smooth="yes"/>
      <point x="231" y="125" type="curve" smooth="yes"/>
      <point x="231" y="24" smooth="yes"/>
      <point x="279" y="-12" smooth="yes"/>
      <point x="416" y="-12" type="curve" smooth="yes"/>
      <point x="591" y="-12" smooth="yes"/>
      <point x="644" y="48" smooth="yes"/>
      <point x="676" y="231" type="curve" smooth="yes"/>
      <point x="728" y="529" type="line"/>
      <point x="560" y="529" type="line"/>
      <point x="497" y="178" type="line" smooth="yes"/>
      <point x="491" y="143" smooth="yes"/>
      <point x="478" y="140" smooth="yes"/>
      <point x="445" y="140" type="curve" smooth="yes"/>
      <point x="395" y="140" type="line"/>
    </contour>
  </outline>
</glyph>
<glyph name="v" format="1">
  <advance width="725"/>
  <unicode hex="0076"/>
  <outline>
    <contour>
      <point x="579" y="529" type="line"/>
      <point x="463" y="227" type="line"/>
      <point x="459" y="227" type="line" name="hr01"/>
      <point x="459" y="529" type="line"/>
      <point x="274" y="529" type="line"/>
      <point x="303" y="0" type="line"/>
      <point x="546" y="0" type="line"/>
      <point x="760" y="529" type="line"/>
    </contour>
    <contour>
      <point x="-151" y="48" type="line"/>
      <point x="270" y="3" type="line"/>
      <point x="267" y="48" type="line"/>
    </contour>
    <contour>
      <point x="-157" y="145" type="line"/>
      <point x="264" y="100" type="line"/>
      <point x="262" y="145" type="line"/>
    </contour>
    <contour>
      <point x="-180" y="529" type="line"/>
      <point x="244" y="484" type="line"/>
      <point x="241" y="529" type="line"/>
    </contour>
    <contour>
      <point x="-174" y="433" type="line"/>
      <point x="249" y="388" type="line"/>
      <point x="247" y="433" type="line"/>
    </contour>
    <contour>
      <point x="-168" y="337" type="line"/>
      <point x="254" y="292" type="line"/>
      <point x="251" y="337" type="line"/>
    </contour>
    <contour>
      <point x="-162" y="241" type="line"/>
      <point x="259" y="196" type="line"/>
      <point x="256" y="241" type="line"/>
    </contour>
  </outline>
</glyph>
<glyph name="w" format="1">
  <advance width="959"/>
  <unicode hex="0077"/>
  <outline>
    <contour>
      <point x="800" y="529" type="line"/>
      <point x="708" y="243" type="line"/>
      <point x="704" y="243" type="line"/>
      <point x="704" y="529" type="line"/>
      <point x="552" y="529" type="line"/>
      <point x="440" y="243" type="line"/>
      <point x="435" y="243" type="line"/>
      <point x="435" y="529" type="line"/>
      <point x="253" y="529" type="line"/>
      <point x="253" y="0" type="line"/>
      <point x="480" y="0" type="line"/>
      <point x="557" y="187" type="line"/>
      <point x="564" y="187" type="line"/>
      <point x="579" y="0" type="line"/>
      <point x="796" y="0" type="line"/>
      <point x="991" y="529" type="line"/>
    </contour>
    <contour>
      <point x="220" y="484" type="line" name="hr01"/>
      <point x="220" y="529" type="line"/>
      <point x="-173" y="529" type="line"/>
    </contour>
    <contour>
      <point x="220" y="388" type="line"/>
      <point x="220" y="433" type="line"/>
      <point x="-173" y="433" type="line"/>
    </contour>
    <contour>
      <point x="220" y="292" type="line"/>
      <point x="220" y="337" type="line"/>
      <point x="-173" y="337" type="line"/>
    </contour>
    <contour>
      <point x="220" y="196" type="line"/>
      <point x="220" y="241" type="line"/>
      <point x="-173" y="241" type="line"/>
    </contour>
    <contour>
      <point x="220" y="100" type="line"/>
      <point x="220" y="145" type="line"/>
      <point x="-173" y="145" type="line"/>
    </contour>
    <contour>
      <point x="220" y="3" type="line"/>
      <point x="220" y="48" type="line"/>
      <point x="-173" y="48" type="line"/>
    </contour>
  </outline>
</glyph>
<glyph name="x" format="1">
  <advance width="703"/>
  <unicode hex="0078"/>
  <outline>
    <contour>
      <point x="140" y="48" type="line" name="hr00"/>
      <point x="-292" y="48" type="line"/>
      <point x="112" y="5" type="line"/>
    </contour>
    <contour>
      <point x="267" y="241" type="line"/>
      <point x="-165" y="241" type="line"/>
      <point x="239" y="198" type="line"/>
    </contour>
    <contour>
      <point x="-228" y="145" type="line"/>
      <point x="176" y="102" type="line"/>
      <point x="204" y="145" type="line"/>
    </contour>
    <contour>
      <point x="221" y="484" type="line"/>
      <point x="207" y="529" type="line"/>
      <point x="-203" y="529" type="line"/>
    </contour>
    <contour>
      <point x="-143" y="337" type="line"/>
      <point x="280" y="292" type="line"/>
      <point x="266" y="337" type="line"/>
    </contour>
    <contour>
      <point x="-172" y="433" type="line"/>
      <point x="251" y="388" type="line"/>
      <point x="237" y="433" type="line"/>
    </contour>
    <contour>
      <point x="438" y="529" type="line"/>
      <point x="237" y="529" type="line"/>
      <point x="319" y="267" type="line"/>
      <point x="144" y="0" type="line"/>
      <point x="334" y="0" type="line"/>
      <point x="408" y="124" type="line"/>
      <point x="417" y="124" type="line"/>
      <point x="448" y="0" type="line"/>
      <point x="644" y="0" type="line"/>
      <point x="561" y="267" type="line"/>
      <point x="736" y="529" type="line"/>
      <point x="544" y="529" type="line"/>
      <point x="473" y="411" type="line"/>
      <point x="464" y="411" type="line"/>
    </contour>
  </outline>
</glyph>
<glyph name="y" format="1">
  <advance width="635"/>
  <unicode hex="0079"/>
  <outline>
    <contour>
      <point x="234" y="3" type="line" name="hr00"/>
      <point x="242" y="48" type="line"/>
      <point x="-190" y="48" type="line"/>
    </contour>
    <contour>
      <point x="251" y="100" type="line"/>
      <point x="259" y="145" type="line"/>
      <point x="-173" y="145" type="line"/>
    </contour>
    <contour>
      <point x="211" y="388" type="line"/>
      <point x="202" y="433" type="line"/>
      <point x="-213" y="433" type="line"/>
    </contour>
    <contour>
      <point x="191" y="484" type="line"/>
      <point x="182" y="529" type="line"/>
      <point x="-233" y="529" type="line"/>
    </contour>
    <contour>
      <point x="231" y="292" type="line"/>
      <point x="222" y="337" type="line"/>
      <point x="-193" y="337" type="line"/>
    </contour>
    <contour>
      <point x="251" y="196" type="line"/>
      <point x="241" y="241" type="line"/>
      <point x="-173" y="241" type="line"/>
    </contour>
    <contour>
      <point x="384" y="529" type="line"/>
      <point x="212" y="529" type="line"/>
      <point x="290" y="151" type="line"/>
      <point x="264" y="0" type="line"/>
      <point x="433" y="0" type="line"/>
      <point x="458" y="151" type="line"/>
      <point x="670" y="529" type="line"/>
      <point x="495" y="529" type="line"/>
      <point x="412" y="337" type="line"/>
      <point x="406" y="337" type="line"/>
    </contour>
  </outline>
</glyph>
<glyph name="z" format="1">
  <advance width="666"/>
  <unicode hex="007A"/>
  <outline>
    <contour>
      <point x="120" y="3" type="line" name="hr00"/>
      <point x="128" y="48" type="line"/>
      <point x="-304" y="48" type="line"/>
    </contour>
    <contour>
      <point x="223" y="388" type="line"/>
      <point x="226" y="433" type="line"/>
      <point x="-201" y="433" type="line"/>
    </contour>
    <contour>
      <point x="230" y="484" type="line"/>
      <point x="233" y="529" type="line"/>
      <point x="-194" y="529" type="line"/>
    </contour>
    <contour>
      <point x="159" y="145" type="line"/>
      <point x="-273" y="145" type="line"/>
      <point x="137" y="101" type="line"/>
      <point x="141" y="124" type="line"/>
    </contour>
    <contour>
      <point x="333" y="337" type="line"/>
      <point x="-99" y="337" type="line"/>
      <point x="296" y="295" type="line"/>
    </contour>
    <contour>
      <point x="-185" y="241" type="line"/>
      <point x="209" y="199" type="line"/>
      <point x="247" y="241" type="line"/>
    </contour>
    <contour>
      <point x="586" y="0" type="line"/>
      <point x="610" y="143" type="line"/>
      <point x="416" y="143" type="line"/>
      <point x="414" y="149" type="line"/>
      <point x="655" y="418" type="line"/>
      <point x="675" y="529" type="line"/>
      <point x="263" y="529" type="line"/>
      <point x="253" y="383" type="line"/>
      <point x="408" y="383" type="line"/>
      <point x="410" y="377" type="line"/>
      <point x="170" y="111" type="line"/>
      <point x="151" y="0" type="line"/>
    </contour>
  </outline>
</glyph>
<glyph name="braceleft" format="1">
  <advance width="557"/>
  <unicode hex="007B"/>
  <outline>
    <contour>
      <point x="386" y="78" type="line"/>
      <point x="415" y="175" type="line" smooth="yes"/>
      <point x="419" y="190" smooth="yes"/>
      <point x="422" y="204" smooth="yes"/>
      <point x="422" y="218" type="curve" smooth="yes"/>
      <point x="422" y="248"/>
      <point x="411" y="275"/>
      <point x="385" y="295" type="curve"/>
      <point x="387" y="307" type="line"/>
      <point x="418" y="324" smooth="yes"/>
      <point x="446" y="346" smooth="yes"/>
      <point x="453" y="409" type="curve" smooth="yes"/>
      <point x="465" y="526" type="line"/>
      <point x="542" y="533"/>
      <point x="544" y="533"/>
      <point x="545" y="533" type="curve"/>
      <point x="562" y="680" type="line"/>
      <point x="437" y="680" smooth="yes"/>
      <point x="316" y="676" smooth="yes"/>
      <point x="306" y="575" type="curve" smooth="yes"/>
      <point x="285" y="373" type="line"/>
      <point x="220" y="357" type="line"/>
      <point x="200" y="245" type="line"/>
      <point x="260" y="229" type="line"/>
      <point x="208" y="22" smooth="yes"/>
      <point x="207" y="16" smooth="yes"/>
      <point x="207" y="10" type="curve" smooth="yes"/>
      <point x="207" y="-72"/>
      <point x="313" y="-76"/>
      <point x="429" y="-76" type="curve"/>
      <point x="464" y="71" type="line"/>
    </contour>
    <contour>
      <point x="177" y="3" type="line"/>
      <point x="177" y="18"/>
      <point x="179" y="33"/>
      <point x="183" y="48" type="curve"/>
      <point x="-250" y="48" type="line"/>
    </contour>
    <contour>
      <point x="220" y="196" type="line"/>
      <point x="223" y="208" type="line"/>
      <point x="166" y="223" type="line"/>
      <point x="169" y="241" type="line"/>
      <point x="-216" y="241" type="line"/>
    </contour>
    <contour>
      <point x="178" y="292" type="line"/>
      <point x="186" y="337" type="line"/>
      <point x="-199" y="337" type="line"/>
    </contour>
    <contour>
      <point x="258" y="397" type="line"/>
      <point x="262" y="433" type="line"/>
      <point x="-182" y="433" type="line"/>
      <point x="232" y="391" type="line"/>
    </contour>
    <contour>
      <point x="267" y="484" type="line"/>
      <point x="271" y="529" type="line"/>
      <point x="-165" y="529" type="line"/>
    </contour>
    <contour>
      <point x="196" y="100" type="line"/>
      <point x="207" y="145" type="line" name="hr01"/>
      <point x="-233" y="145" type="line"/>
    </contour>
    <contour>
      <point x="276" y="580" type="line"/>
      <point x="278" y="595"/>
      <point x="284" y="615"/>
      <point x="292" y="625" type="curve"/>
      <point x="-148" y="625" type="line"/>
    </contour>
  </outline>
</glyph>
<glyph name="bar" format="1">
  <advance width="522"/>
  <unicode hex="007C"/>
  <outline>
    <contour>
      <point x="187" y="-79" type="line" name="hr00"/>
      <point x="301" y="-79" type="line"/>
      <point x="439" y="704" type="line"/>
      <point x="325" y="704" type="line"/>
    </contour>
    <contour>
      <point x="171" y="3" type="line"/>
      <point x="179" y="48" type="line"/>
      <point x="-253" y="48" type="line"/>
    </contour>
    <contour>
      <point x="205" y="196" type="line"/>
      <point x="213" y="241" type="line"/>
      <point x="-219" y="241" type="line"/>
    </contour>
    <contour>
      <point x="222" y="292" type="line"/>
      <point x="230" y="337" type="line"/>
      <point x="-202" y="337" type="line"/>
    </contour>
    <contour>
      <point x="239" y="388" type="line"/>
      <point x="247" y="433" type="line"/>
      <point x="-185" y="433" type="line"/>
    </contour>
    <contour>
      <point x="256" y="484" type="line"/>
      <point x="263" y="529" type="line"/>
      <point x="-168" y="529" type="line"/>
    </contour>
    <contour>
      <point x="188" y="100" type="line"/>
      <point x="196" y="145" type="line"/>
      <point x="-236" y="145" type="line"/>
    </contour>
    <contour>
      <point x="272" y="580" type="line"/>
      <point x="280" y="625" type="line"/>
      <point x="-151" y="625" type="line"/>
    </contour>
  </outline>
</glyph>
<glyph name="braceright" format="1">
  <advance width="533"/>
  <unicode hex="007D"/>
  <outline>
    <contour>
      <point x="336" y="526" type="line" name="hr00"/>
      <point x="307" y="429" type="line" smooth="yes"/>
      <point x="303" y="414" smooth="yes"/>
      <point x="300" y="400" smooth="yes"/>
      <point x="300" y="386" type="curve" smooth="yes"/>
      <point x="300" y="356"/>
      <point x="311" y="329"/>
      <point x="337" y="309" type="curve"/>
      <point x="335" y="297" type="line"/>
      <point x="304" y="280" smooth="yes"/>
      <point x="276" y="258" smooth="yes"/>
      <point x="269" y="195" type="curve" smooth="yes"/>
      <point x="257" y="78" type="line"/>
      <point x="177" y="71" type="line"/>
      <point x="160" y="-76" type="line"/>
      <point x="285" y="-76" smooth="yes"/>
      <point x="406" y="-72" smooth="yes"/>
      <point x="416" y="29" type="curve" smooth="yes"/>
      <point x="437" y="231" type="line"/>
      <point x="502" y="247" type="line"/>
      <point x="522" y="359" type="line"/>
      <point x="462" y="375" type="line"/>
      <point x="514" y="582" smooth="yes"/>
      <point x="515" y="588" smooth="yes"/>
      <point x="515" y="594" type="curve" smooth="yes"/>
      <point x="515" y="676"/>
      <point x="409" y="680"/>
      <point x="293" y="680" type="curve"/>
      <point x="258" y="533" type="line"/>
    </contour>
    <contour>
      <point x="139" y="3" type="line"/>
      <point x="144" y="48" type="line"/>
      <point x="-210" y="48" type="line"/>
    </contour>
    <contour>
      <point x="290" y="475" type="line"/>
      <point x="297" y="499" type="line"/>
      <point x="221" y="506" type="line"/>
      <point x="226" y="529" type="line"/>
      <point x="-125" y="529" type="line"/>
    </contour>
    <contour>
      <point x="239" y="580" type="line"/>
      <point x="249" y="625" type="line"/>
      <point x="-108" y="625" type="line"/>
    </contour>
    <contour>
      <point x="300" y="302" type="line"/>
      <point x="291" y="312"/>
      <point x="284" y="324"/>
      <point x="279" y="337" type="curve"/>
      <point x="-159" y="337" type="line"/>
      <point x="286" y="293" type="line"/>
    </contour>
    <contour>
      <point x="239" y="197" type="line"/>
      <point x="240" y="213"/>
      <point x="244" y="229"/>
      <point x="248" y="241" type="curve"/>
      <point x="-176" y="241" type="line"/>
    </contour>
    <contour>
      <point x="230" y="106" type="line"/>
      <point x="234" y="145" type="line"/>
      <point x="-193" y="145" type="line"/>
    </contour>
    <contour>
      <point x="270" y="388" type="line"/>
      <point x="270" y="403"/>
      <point x="273" y="418"/>
      <point x="277" y="433" type="curve"/>
      <point x="-142" y="433" type="line"/>
    </contour>
  </outline>
</glyph>
<glyph name="asciitilde" format="1">
  <advance width="600"/>
  <unicode hex="007E"/>
  <outline>
    <contour>
      <point x="383" y="203" type="curve" smooth="yes"/>
      <point x="455" y="203"/>
      <point x="525" y="255"/>
      <point x="578" y="330" type="curve"/>
      <point x="492" y="420" type="line"/>
      <point x="454" y="376" smooth="yes"/>
      <point x="422" y="354" smooth="yes"/>
      <point x="389" y="354" type="curve" smooth="yes"/>
      <point x="329" y="354" smooth="yes"/>
      <point x="285" y="423" smooth="yes"/>
      <point x="215" y="423" type="curve" smooth="yes" name="hr01"/>
      <point x="141" y="423"/>
      <point x="78" y="355"/>
      <point x="23" y="293" type="curve"/>
      <point x="108" y="202" type="line"/>
      <point x="144" y="238" smooth="yes"/>
      <point x="178" y="268" smooth="yes"/>
      <point x="212" y="268" type="curve" smooth="yes"/>
      <point x="259" y="268" smooth="yes"/>
      <point x="301" y="203" smooth="yes"/>
    </contour>
  </outline>
</glyph>
<glyph name="exclamdown" format="1">
  <advance width="587"/>
  <unicode hex="00A1"/>
  <outline>
    <contour>
      <point x="294" y="268" type="line"/>
      <point x="305" y="313" type="line"/>
      <point x="-129" y="313" type="line"/>
    </contour>
    <contour>
      <point x="248" y="76" type="line"/>
      <point x="258" y="121" type="line"/>
      <point x="-174" y="121" type="line"/>
    </contour>
    <contour>
      <point x="-150" y="217" type="line"/>
      <point x="271" y="172" type="line"/>
      <point x="282" y="217" type="line"/>
    </contour>
    <contour>
      <point x="-197" y="25" type="line"/>
      <point x="224" y="-19" type="line"/>
      <point x="235" y="25" type="line"/>
    </contour>
    <contour>
      <point x="206" y="-97" type="curve" smooth="yes"/>
      <point x="206" y="-93" smooth="yes"/>
      <point x="207" y="-86" smooth="yes"/>
      <point x="209" y="-80" type="curve" smooth="yes"/>
      <point x="211" y="-72" type="line"/>
      <point x="-220" y="-72" type="line"/>
      <point x="209" y="-117" type="line"/>
      <point x="207" y="-111" smooth="yes"/>
      <point x="206" y="-104" smooth="yes"/>
    </contour>
    <contour>
      <point x="301" y="409" type="curve"/>
      <point x="-112" y="409" type="line"/>
      <point x="313" y="364" type="line"/>
      <point x="305" y="376"/>
      <point x="301" y="391"/>
    </contour>
    <contour>
      <point x="324" y="505" type="curve"/>
      <point x="-95" y="505" type="line"/>
      <point x="305" y="461" type="line"/>
      <point x="309" y="479"/>
      <point x="315" y="493"/>
    </contour>
    <contour>
      <point x="342" y="338" type="line"/>
      <point x="237" y="-90" type="line" smooth="yes"/>
      <point x="236" y="-92" smooth="yes"/>
      <point x="236" y="-95" smooth="yes"/>
      <point x="236" y="-97" type="curve" smooth="yes"/>
      <point x="236" y="-109" smooth="yes"/>
      <point x="245" y="-117" smooth="yes"/>
      <point x="267" y="-117" type="curve" smooth="yes"/>
      <point x="415" y="-117" type="line" smooth="yes"/>
      <point x="443" y="-117" smooth="yes"/>
      <point x="454" y="-105" smooth="yes"/>
      <point x="456" y="-90" type="curve" smooth="yes"/>
      <point x="503" y="338" type="line"/>
    </contour>
    <contour>
      <point x="549" y="464" type="curve" smooth="yes"/>
      <point x="549" y="500" smooth="yes"/>
      <point x="526" y="515" smooth="yes"/>
      <point x="453" y="515" type="curve" smooth="yes" name="hr01"/>
      <point x="360" y="515" smooth="yes"/>
      <point x="331" y="486" smooth="yes"/>
      <point x="331" y="412" type="curve" smooth="yes"/>
      <point x="331" y="376" smooth="yes"/>
      <point x="354" y="359" smooth="yes"/>
      <point x="425" y="359" type="curve" smooth="yes" name="hr02"/>
      <point x="505" y="359" smooth="yes"/>
      <point x="549" y="386" smooth="yes"/>
    </contour>
  </outline>
</glyph>
<glyph name="cent" format="1">
  <advance width="637"/>
  <unicode hex="00A2"/>
  <outline>
    <contour>
      <point x="397" y="504" type="line" name="hr00"/>
      <point x="236" y="463" smooth="yes"/>
      <point x="203" y="243" smooth="yes"/>
      <point x="203" y="172" type="curve" smooth="yes"/>
      <point x="203" y="99"/>
      <point x="233" y="60"/>
      <point x="298" y="44" type="curve"/>
      <point x="275" y="-64" type="line"/>
      <point x="397" y="-64" type="line"/>
      <point x="419" y="35" type="line"/>
      <point x="460" y="36"/>
      <point x="493" y="43"/>
      <point x="527" y="56" type="curve"/>
      <point x="547" y="201" type="line"/>
      <point x="512" y="190" smooth="yes"/>
      <point x="476" y="186" smooth="yes"/>
      <point x="445" y="186" type="curve" smooth="yes"/>
      <point x="429" y="186"/>
      <point x="415" y="187"/>
      <point x="400" y="189" type="curve"/>
      <point x="425" y="302" type="line" smooth="yes"/>
      <point x="435" y="347" smooth="yes"/>
      <point x="467" y="351" smooth="yes"/>
      <point x="497" y="351" type="curve" smooth="yes"/>
      <point x="563" y="351" type="line"/>
      <point x="616" y="496" type="line"/>
      <point x="587" y="504"/>
      <point x="551" y="510"/>
      <point x="520" y="513" type="curve"/>
      <point x="539" y="600" type="line"/>
      <point x="417" y="600" type="line"/>
    </contour>
    <contour>
      <point x="383" y="580" type="line"/>
      <point x="391" y="625" type="line"/>
      <point x="-40" y="625" type="line"/>
    </contour>
    <contour>
      <point x="174" y="196" type="line"/>
      <point x="179" y="241" type="line"/>
      <point x="-250" y="241" type="line"/>
    </contour>
    <contour>
      <point x="204" y="337" type="curve"/>
      <point x="-228" y="337" type="line"/>
      <point x="190" y="292" type="line"/>
      <point x="194" y="307"/>
      <point x="198" y="322"/>
    </contour>
    <contour>
      <point x="252" y="433" type="curve"/>
      <point x="-180" y="433" type="line"/>
      <point x="226" y="390" type="line"/>
      <point x="234" y="404"/>
      <point x="242" y="419"/>
    </contour>
    <contour>
      <point x="175" y="145" type="curve"/>
      <point x="-239" y="145" type="line"/>
      <point x="183" y="100" type="line"/>
      <point x="178" y="113"/>
      <point x="176" y="128"/>
    </contour>
    <contour>
      <point x="264" y="23" type="line"/>
      <point x="246" y="29"/>
      <point x="232" y="37"/>
      <point x="219" y="48" type="curve"/>
      <point x="-163" y="48" type="line"/>
      <point x="260" y="3" type="line"/>
    </contour>
    <contour>
      <point x="372" y="529" type="line"/>
      <point x="-58" y="529" type="line"/>
      <point x="305" y="490" type="line"/>
      <point x="325" y="506"/>
      <point x="347" y="517"/>
      <point x="372" y="525" type="curve"/>
    </contour>
  </outline>
</glyph>
<glyph name="sterling" format="1">
  <advance width="794"/>
  <unicode hex="00A3"/>
  <outline>
    <contour>
      <point x="224" y="292" type="line"/>
      <point x="232" y="337" type="line"/>
      <point x="-200" y="337" type="line"/>
    </contour>
    <contour>
      <point x="174" y="3" type="line"/>
      <point x="182" y="48" type="line"/>
      <point x="-250" y="48" type="line"/>
    </contour>
    <contour>
      <point x="363" y="529" type="curve"/>
      <point x="-67" y="529" type="line"/>
      <point x="344" y="485" type="line"/>
      <point x="349" y="501"/>
      <point x="356" y="515"/>
    </contour>
    <contour>
      <point x="-104" y="433" type="line" name="hr01"/>
      <point x="243" y="399" type="line" name="hr02"/>
      <point x="319" y="399" type="line"/>
      <point x="328" y="433" type="line" name="hr03"/>
    </contour>
    <contour>
      <point x="271" y="232" type="line"/>
      <point x="214" y="232" type="line"/>
      <point x="215" y="241" type="line"/>
      <point x="-159" y="241" type="line"/>
      <point x="260" y="196" type="line"/>
    </contour>
    <contour>
      <point x="445" y="625" type="curve" name="hr04"/>
      <point x="14" y="625" type="line"/>
      <point x="400" y="584" type="line"/>
      <point x="414" y="599"/>
      <point x="429" y="613"/>
    </contour>
    <contour>
      <point x="193" y="118" type="line"/>
      <point x="235" y="145" type="line"/>
      <point x="-195" y="145" type="line"/>
      <point x="191" y="104" type="line"/>
    </contour>
    <contour>
      <point x="649" y="262" type="line"/>
      <point x="677" y="369" type="line"/>
      <point x="533" y="369" type="line"/>
      <point x="549" y="428" type="line" smooth="yes"/>
      <point x="561" y="473" smooth="yes"/>
      <point x="591" y="477" smooth="yes"/>
      <point x="627" y="477" type="curve" smooth="yes" name="hr05"/>
      <point x="720" y="477" type="line"/>
      <point x="774" y="622" type="line"/>
      <point x="733" y="632" smooth="yes"/>
      <point x="681" y="641" smooth="yes"/>
      <point x="600" y="641" type="curve" smooth="yes"/>
      <point x="481" y="641" smooth="yes"/>
      <point x="399" y="573" smooth="yes"/>
      <point x="362" y="443" type="curve" smooth="yes"/>
      <point x="341" y="369" type="line"/>
      <point x="269" y="369" type="line"/>
      <point x="250" y="262" type="line"/>
      <point x="311" y="262" type="line"/>
      <point x="274" y="135" type="line"/>
      <point x="221" y="100" type="line"/>
      <point x="204" y="0" type="line"/>
      <point x="685" y="0" type="line"/>
      <point x="685" y="160" type="line" name="hr06"/>
      <point x="478" y="160" type="line"/>
      <point x="505" y="262" type="line"/>
    </contour>
  </outline>
</glyph>
<glyph name="currency" format="1">
  <advance width="568"/>
  <unicode hex="00A4"/>
  <outline>
    <contour>
      <point x="104" y="313" type="curve" name="hr00"/>
      <point x="97" y="278" smooth="yes"/>
      <point x="93" y="248" smooth="yes"/>
      <point x="93" y="222" type="curve" smooth="yes"/>
      <point x="93" y="203"/>
      <point x="95" y="186"/>
      <point x="101" y="172" type="curve"/>
      <point x="-2" y="80" type="line"/>
      <point x="32" y="34" type="line"/>
      <point x="140" y="129" type="line"/>
      <point x="164" y="117" smooth="yes"/>
      <point x="199" y="111" smooth="yes"/>
      <point x="249" y="111" type="curve" smooth="yes"/>
      <point x="298" y="111"/>
      <point x="334" y="117"/>
      <point x="363" y="130" type="curve"/>
      <point x="437" y="34" type="line"/>
      <point x="490" y="80" type="line"/>
      <point x="417" y="173" type="line"/>
      <point x="450" y="217" smooth="yes"/>
      <point x="474" y="334" smooth="yes"/>
      <point x="474" y="403" type="curve" smooth="yes"/>
      <point x="474" y="422"/>
      <point x="471" y="438"/>
      <point x="466" y="453" type="curve"/>
      <point x="572" y="546" type="line"/>
      <point x="536" y="592" type="line"/>
      <point x="428" y="496" type="line"/>
      <point x="403" y="508" smooth="yes"/>
      <point x="369" y="515" smooth="yes"/>
      <point x="320" y="515" type="curve" smooth="yes"/>
      <point x="270" y="515"/>
      <point x="233" y="509"/>
      <point x="205" y="496" type="curve"/>
      <point x="131" y="592" type="line"/>
      <point x="80" y="546" type="line"/>
      <point x="150" y="453" type="line"/>
      <point x="126" y="420"/>
      <point x="114" y="373"/>
    </contour>
    <contour>
      <point x="244" y="353" type="line" smooth="yes"/>
      <point x="251" y="392" smooth="yes"/>
      <point x="279" y="395" smooth="yes"/>
      <point x="317" y="395" type="curve" smooth="yes"/>
      <point x="346" y="395" type="line"/>
      <point x="325" y="273" type="line" smooth="yes"/>
      <point x="318" y="234" smooth="yes"/>
      <point x="290" y="231" smooth="yes"/>
      <point x="252" y="231" type="curve" smooth="yes"/>
      <point x="222" y="231" type="line"/>
    </contour>
  </outline>
</glyph>
<glyph name="yen" format="1">
  <advance width="695"/>
  <unicode hex="00A5"/>
  <outline>
    <contour>
      <point x="413" y="625" type="line"/>
      <point x="212" y="625" type="line"/>
      <point x="259" y="369" type="line"/>
      <point x="196" y="369" type="line"/>
      <point x="177" y="262" type="line"/>
      <point x="278" y="262" type="line"/>
      <point x="286" y="212" type="line"/>
      <point x="168" y="212" type="line"/>
      <point x="149" y="105" type="line" name="hr01"/>
      <point x="282" y="105" type="line"/>
      <point x="264" y="0" type="line" name="hr02"/>
      <point x="454" y="0" type="line"/>
      <point x="472" y="105" type="line" name="hr03"/>
      <point x="605" y="105" type="line"/>
      <point x="624" y="212" type="line"/>
      <point x="505" y="212" type="line"/>
      <point x="532" y="262" type="line"/>
      <point x="633" y="262" type="line"/>
      <point x="652" y="369" type="line"/>
      <point x="589" y="369" type="line"/>
      <point x="725" y="625" type="line"/>
      <point x="525" y="625" type="line"/>
      <point x="430" y="391" type="line"/>
      <point x="424" y="391" type="line"/>
    </contour>
    <contour>
      <point x="234" y="4" type="line"/>
      <point x="241" y="48" type="line"/>
      <point x="-180" y="48" type="line"/>
    </contour>
    <contour>
      <point x="120" y="101" type="line"/>
      <point x="127" y="145" type="line"/>
      <point x="-163" y="145" type="line"/>
    </contour>
    <contour>
      <point x="143" y="241" type="line"/>
      <point x="-146" y="241" type="line"/>
      <point x="136" y="198" type="line"/>
    </contour>
    <contour>
      <point x="161" y="337" type="line"/>
      <point x="-129" y="337" type="line"/>
      <point x="154" y="298" type="line"/>
    </contour>
    <contour>
      <point x="218" y="433" type="line" name="hr04"/>
      <point x="-112" y="433" type="line"/>
      <point x="225" y="398" type="line"/>
    </contour>
    <contour>
      <point x="200" y="529" type="line"/>
      <point x="-95" y="529" type="line"/>
      <point x="206" y="498" type="line"/>
    </contour>
    <contour>
      <point x="182" y="625" type="line"/>
      <point x="-78" y="625" type="line"/>
      <point x="187" y="597" type="line"/>
    </contour>
  </outline>
</glyph>
<glyph name="section" format="1">
  <advance width="761"/>
  <unicode hex="00A7"/>
  <outline>
    <contour>
      <point x="182" y="48" type="line"/>
      <point x="-250" y="48" type="line"/>
      <point x="167" y="3" type="line"/>
    </contour>
    <contour>
      <point x="197" y="196" type="line"/>
      <point x="197" y="211"/>
      <point x="199" y="226"/>
      <point x="201" y="241" type="curve"/>
      <point x="-227" y="241" type="line"/>
    </contour>
    <contour>
      <point x="233" y="388" type="line"/>
      <point x="233" y="405"/>
      <point x="233" y="419"/>
      <point x="235" y="433" type="curve"/>
      <point x="-191" y="433" type="line"/>
    </contour>
    <contour>
      <point x="234" y="337" type="curve"/>
      <point x="-197" y="337" type="line"/>
      <point x="215" y="293" type="line"/>
      <point x="221" y="309"/>
      <point x="227" y="324"/>
    </contour>
    <contour>
      <point x="260" y="529" type="curve"/>
      <point x="-171" y="529" type="line"/>
      <point x="244" y="485" type="line"/>
      <point x="248" y="500"/>
      <point x="254" y="514"/>
    </contour>
    <contour>
      <point x="202" y="145" type="curve" name="hr01"/>
      <point x="-198" y="145" type="line"/>
      <point x="224" y="100" type="line"/>
      <point x="213" y="113"/>
      <point x="206" y="128"/>
    </contour>
    <contour>
      <point x="368" y="625" type="curve"/>
      <point x="-58" y="625" type="line"/>
      <point x="303" y="586" type="line"/>
      <point x="322" y="603"/>
      <point x="344" y="616"/>
    </contour>
    <contour>
      <point x="537" y="203" type="curve" name="hr02"/>
      <point x="428" y="203" type="line" smooth="yes"/>
      <point x="396" y="203" smooth="yes"/>
      <point x="387" y="213" smooth="yes"/>
      <point x="387" y="233" type="curve" smooth="yes"/>
      <point x="387" y="239"/>
      <point x="388" y="246"/>
      <point x="395" y="290" type="curve"/>
      <point x="504" y="290" type="line" smooth="yes"/>
      <point x="536" y="290" smooth="yes"/>
      <point x="545" y="280" smooth="yes"/>
      <point x="545" y="260" type="curve" smooth="yes"/>
      <point x="545" y="254"/>
      <point x="544" y="247"/>
    </contour>
    <contour>
      <point x="165" y="-91" type="line"/>
      <point x="231" y="-112" smooth="yes"/>
      <point x="307" y="-121" smooth="yes"/>
      <point x="377" y="-121" type="curve" smooth="yes"/>
      <point x="507" y="-121" smooth="yes"/>
      <point x="660" y="-100" smooth="yes"/>
      <point x="660" y="100" type="curve" smooth="yes"/>
      <point x="660" y="120"/>
      <point x="657" y="138"/>
      <point x="649" y="155" type="curve"/>
      <point x="672" y="186" smooth="yes"/>
      <point x="696" y="246" smooth="yes"/>
      <point x="696" y="306" type="curve" smooth="yes"/>
      <point x="696" y="383"/>
      <point x="644" y="432"/>
      <point x="463" y="432" type="curve"/>
      <point x="469" y="466" type="line"/>
      <point x="684" y="466" type="line"/>
      <point x="727" y="593" type="line"/>
      <point x="665" y="611" smooth="yes"/>
      <point x="595" y="618" smooth="yes"/>
      <point x="530" y="618" type="curve" smooth="yes"/>
      <point x="395" y="618" smooth="yes"/>
      <point x="263" y="589" smooth="yes"/>
      <point x="263" y="390" type="curve" smooth="yes" name="hr03"/>
      <point x="263" y="373"/>
      <point x="265" y="357"/>
      <point x="273" y="342" type="curve"/>
      <point x="251" y="311" smooth="yes"/>
      <point x="227" y="249" smooth="yes"/>
      <point x="227" y="190" type="curve" smooth="yes"/>
      <point x="227" y="106"/>
      <point x="286" y="65"/>
      <point x="469" y="65" type="curve"/>
      <point x="463" y="31" type="line"/>
      <point x="208" y="31" type="line"/>
    </contour>
  </outline>
</glyph>
<glyph name="dieresis" format="1">
  <advance width="430"/>
  <unicode hex="00A8"/>
  <outline>
    <contour>
      <point x="353" y="738" type="curve" smooth="yes"/>
      <point x="287" y="738" smooth="yes"/>
      <point x="262" y="709" smooth="yes"/>
      <point x="262" y="630" type="curve" smooth="yes"/>
      <point x="262" y="596" smooth="yes"/>
      <point x="278" y="582" smooth="yes"/>
      <point x="326" y="582" type="curve" smooth="yes"/>
      <point x="392" y="582" smooth="yes"/>
      <point x="417" y="611" smooth="yes"/>
      <point x="417" y="690" type="curve" smooth="yes"/>
      <point x="417" y="724" smooth="yes"/>
      <point x="401" y="738" smooth="yes"/>
    </contour>
    <contour>
      <point x="145" y="738" type="curve" smooth="yes"/>
      <point x="79" y="738" smooth="yes"/>
      <point x="54" y="709" smooth="yes"/>
      <point x="54" y="630" type="curve" smooth="yes"/>
      <point x="54" y="596" smooth="yes"/>
      <point x="70" y="582" smooth="yes"/>
      <point x="118" y="582" type="curve" smooth="yes"/>
      <point x="183" y="582" smooth="yes"/>
      <point x="209" y="611" smooth="yes"/>
      <point x="209" y="690" type="curve" smooth="yes"/>
      <point x="209" y="724" smooth="yes"/>
      <point x="192" y="738" smooth="yes"/>
    </contour>
    <contour>
      <point x="41" y="723" type="curve" name="hr01"/>
      <point x="-275" y="723" type="line"/>
      <point x="27" y="677" type="line"/>
      <point x="30" y="695"/>
      <point x="34" y="710"/>
    </contour>
    <contour>
      <point x="24" y="630" type="curve"/>
      <point x="24" y="644" type="line" name="hr02"/>
      <point x="-275" y="644" type="line"/>
      <point x="27" y="598" type="line"/>
      <point x="25" y="607"/>
      <point x="24" y="618"/>
    </contour>
  </outline>
</glyph>
<glyph name="copyright" format="1">
  <advance width="788"/>
  <unicode hex="00A9"/>
  <outline>
    <contour>
      <point x="573" y="355" type="line"/>
      <point x="550" y="346" smooth="yes"/>
      <point x="522" y="341" smooth="yes"/>
      <point x="499" y="341" type="curve" smooth="yes"/>
      <point x="491" y="341"/>
      <point x="480" y="343"/>
      <point x="469" y="344" type="curve"/>
      <point x="490" y="464" type="line" smooth="yes"/>
      <point x="493" y="480" smooth="yes"/>
      <point x="505" y="483" smooth="yes"/>
      <point x="531" y="483" type="curve" smooth="yes"/>
      <point x="544" y="483"/>
      <point x="568" y="481"/>
      <point x="587" y="476" type="curve"/>
      <point x="615" y="554" type="line"/>
      <point x="598" y="563" smooth="yes"/>
      <point x="560" y="568" smooth="yes"/>
      <point x="539" y="568" type="curve" smooth="yes"/>
      <point x="432" y="568" smooth="yes"/>
      <point x="396" y="515" smooth="yes"/>
      <point x="377" y="411" type="curve" smooth="yes"/>
      <point x="373" y="388" smooth="yes"/>
      <point x="371" y="368" smooth="yes"/>
      <point x="371" y="351" type="curve" smooth="yes"/>
      <point x="371" y="286" smooth="yes"/>
      <point x="400" y="254" smooth="yes"/>
      <point x="484" y="254" type="curve" smooth="yes"/>
      <point x="516" y="254"/>
      <point x="539" y="258"/>
      <point x="564" y="268" type="curve"/>
    </contour>
    <contour>
      <point x="252" y="333" type="curve" smooth="yes"/>
      <point x="252" y="218" smooth="yes"/>
      <point x="313" y="159" smooth="yes"/>
      <point x="456" y="159" type="curve" smooth="yes"/>
      <point x="671" y="159" smooth="yes"/>
      <point x="746" y="316" smooth="yes"/>
      <point x="746" y="491" type="curve" smooth="yes"/>
      <point x="746" y="604" smooth="yes"/>
      <point x="686" y="662" smooth="yes"/>
      <point x="545" y="662" type="curve" smooth="yes" name="hr01"/>
      <point x="331" y="662" smooth="yes"/>
      <point x="252" y="508" smooth="yes"/>
    </contour>
    <contour>
      <point x="537" y="616" type="curve" smooth="yes"/>
      <point x="648" y="616" smooth="yes"/>
      <point x="699" y="583" smooth="yes"/>
      <point x="699" y="487" type="curve" smooth="yes"/>
      <point x="699" y="307" smooth="yes"/>
      <point x="634" y="205" smooth="yes"/>
      <point x="464" y="205" type="curve" smooth="yes"/>
      <point x="351" y="205" smooth="yes"/>
      <point x="300" y="238" smooth="yes"/>
      <point x="300" y="336" type="curve" smooth="yes"/>
      <point x="300" y="515" smooth="yes"/>
      <point x="367" y="616" smooth="yes"/>
    </contour>
    <contour>
      <point x="224" y="388" type="line"/>
      <point x="225" y="393" type="line" smooth="yes"/>
      <point x="226" y="406"/>
      <point x="228" y="420"/>
      <point x="231" y="433" type="curve"/>
      <point x="-200" y="433" type="line"/>
    </contour>
    <contour>
      <point x="224" y="292" type="line"/>
      <point x="223" y="305" smooth="yes"/>
      <point x="222" y="319" smooth="yes"/>
      <point x="222" y="333" type="curve" smooth="yes"/>
      <point x="222" y="337" type="line"/>
      <point x="-200" y="337" type="line"/>
    </contour>
    <contour>
      <point x="261" y="529" type="curve"/>
      <point x="-170" y="529" type="line"/>
      <point x="244" y="485" type="line"/>
      <point x="249" y="500"/>
      <point x="254" y="514"/>
    </contour>
    <contour>
      <point x="334" y="625" type="curve" name="hr02"/>
      <point x="-96" y="625" type="line"/>
      <point x="294" y="583" type="line"/>
      <point x="306" y="598"/>
      <point x="319" y="612"/>
    </contour>
    <contour>
      <point x="236" y="241" type="curve"/>
      <point x="-161" y="241" type="line"/>
      <point x="262" y="196" type="line"/>
      <point x="251" y="209"/>
      <point x="243" y="224"/>
    </contour>
  </outline>
</glyph>
<glyph name="ordfeminine" format="1">
  <advance width="633"/>
  <unicode hex="00AA"/>
  <outline>
    <contour>
      <point x="204" y="191" type="line"/>
      <point x="527" y="191" type="line" smooth="yes"/>
      <point x="555" y="191" smooth="yes"/>
      <point x="574" y="193" smooth="yes"/>
      <point x="579" y="222" type="curve" smooth="yes"/>
      <point x="592" y="300" type="line"/>
      <point x="269" y="300" type="line" smooth="yes"/>
      <point x="241" y="300" smooth="yes"/>
      <point x="223" y="300" smooth="yes"/>
      <point x="218" y="271" type="curve" smooth="yes"/>
    </contour>
    <contour>
      <point x="660" y="738" type="line"/>
      <point x="593" y="758" smooth="yes"/>
      <point x="536" y="770" smooth="yes"/>
      <point x="460" y="770" type="curve" smooth="yes"/>
      <point x="306" y="770" smooth="yes"/>
      <point x="228" y="631" smooth="yes"/>
      <point x="228" y="489" type="curve" smooth="yes"/>
      <point x="228" y="412" smooth="yes"/>
      <point x="258" y="344" smooth="yes"/>
      <point x="362" y="344" type="curve" smooth="yes"/>
      <point x="422" y="344"/>
      <point x="453" y="371"/>
      <point x="481" y="402" type="curve"/>
      <point x="517" y="356" type="line"/>
      <point x="594" y="356" type="line"/>
    </contour>
    <contour>
      <point x="410" y="619" type="line"/>
      <point x="416" y="650" smooth="yes"/>
      <point x="438" y="653" smooth="yes"/>
      <point x="469" y="653" type="curve" smooth="yes"/>
      <point x="493" y="653" type="line"/>
      <point x="464" y="490" type="line" smooth="yes"/>
      <point x="459" y="463" smooth="yes"/>
      <point x="435" y="461" smooth="yes"/>
      <point x="406" y="461" type="curve" smooth="yes"/>
      <point x="383" y="461" type="line"/>
    </contour>
    <contour>
      <point x="174" y="196" type="line"/>
      <point x="182" y="241" type="line"/>
      <point x="-250" y="241" type="line"/>
    </contour>
    <contour>
      <point x="198" y="484" type="line"/>
      <point x="198" y="489" type="line" smooth="yes"/>
      <point x="198" y="502"/>
      <point x="198" y="516"/>
      <point x="200" y="529" type="curve" name="hr01"/>
      <point x="-226" y="529" type="line"/>
    </contour>
    <contour>
      <point x="221" y="625" type="curve"/>
      <point x="-209" y="625" type="line"/>
      <point x="208" y="580" type="line"/>
      <point x="212" y="595"/>
      <point x="216" y="610"/>
    </contour>
    <contour>
      <point x="203" y="433" type="curve" name="hr02"/>
      <point x="-205" y="433" type="line"/>
      <point x="218" y="388" type="line"/>
      <point x="211" y="402"/>
      <point x="206" y="417"/>
    </contour>
    <contour>
      <point x="269" y="330" type="curve"/>
      <point x="279" y="330" type="line"/>
      <point x="274" y="332"/>
      <point x="270" y="334"/>
      <point x="266" y="337" type="curve"/>
      <point x="-151" y="337" type="line"/>
      <point x="194" y="300" type="line" name="hr03"/>
      <point x="207" y="330"/>
      <point x="233" y="330"/>
    </contour>
  </outline>
</glyph>
<glyph name="logicalnot" format="1">
  <advance width="600"/>
  <unicode hex="00AC"/>
  <outline>
    <contour>
      <point x="72" y="240" type="line" name="hr00"/>
      <point x="377" y="240" type="line"/>
      <point x="352" y="100" type="line"/>
      <point x="480" y="100" type="line"/>
      <point x="530" y="384" type="line"/>
      <point x="97" y="384" type="line"/>
    </contour>
  </outline>
</glyph>
